<?xml version="1.0" encoding="utf-8" standalone="no"?>
<!DOCTYPE svg PUBLIC "-//W3C//DTD SVG 1.1//EN"
  "http://www.w3.org/Graphics/SVG/1.1/DTD/svg11.dtd">
<!-- Created with matplotlib (https://matplotlib.org/) -->
<svg height="282.584219pt" version="1.1" viewBox="0 0 544.255 282.584219" width="544.255pt" xmlns="http://www.w3.org/2000/svg" xmlns:xlink="http://www.w3.org/1999/xlink">
 <defs>
  <style type="text/css">
*{stroke-linecap:butt;stroke-linejoin:round;}
  </style>
 </defs>
 <g id="figure_1">
  <g id="patch_1">
   <path d="M 0 282.584219 
L 544.255 282.584219 
L 544.255 0 
L 0 0 
z
" style="fill:#ffffff;"/>
  </g>
  <g id="axes_1">
   <g id="patch_2">
    <path d="M 79.495 231.478594 
L 537.055 231.478594 
L 537.055 14.038594 
L 79.495 14.038594 
z
" style="fill:#ffffff;"/>
   </g>
   <g id="matplotlib.axis_1">
    <g id="xtick_1">
     <g id="line2d_1">
      <defs>
       <path d="M 0 0 
L 0 3.5 
" id="m0ecd99d568" style="stroke:#000000;stroke-width:0.8;"/>
      </defs>
      <g>
       <use style="stroke:#000000;stroke-width:0.8;" x="79.495" xlink:href="#m0ecd99d568" y="231.478594"/>
      </g>
     </g>
     <g id="text_1">
      <!-- 0 -->
      <defs>
       <path d="M 31.78125 66.40625 
Q 24.171875 66.40625 20.328125 58.90625 
Q 16.5 51.421875 16.5 36.375 
Q 16.5 21.390625 20.328125 13.890625 
Q 24.171875 6.390625 31.78125 6.390625 
Q 39.453125 6.390625 43.28125 13.890625 
Q 47.125 21.390625 47.125 36.375 
Q 47.125 51.421875 43.28125 58.90625 
Q 39.453125 66.40625 31.78125 66.40625 
z
M 31.78125 74.21875 
Q 44.046875 74.21875 50.515625 64.515625 
Q 56.984375 54.828125 56.984375 36.375 
Q 56.984375 17.96875 50.515625 8.265625 
Q 44.046875 -1.421875 31.78125 -1.421875 
Q 19.53125 -1.421875 13.0625 8.265625 
Q 6.59375 17.96875 6.59375 36.375 
Q 6.59375 54.828125 13.0625 64.515625 
Q 19.53125 74.21875 31.78125 74.21875 
z
" id="DejaVuSans-48"/>
      </defs>
      <g transform="translate(73.76875 252.155781)scale(0.18 -0.18)">
       <use xlink:href="#DejaVuSans-48"/>
      </g>
     </g>
    </g>
    <g id="xtick_2">
     <g id="line2d_2">
      <g>
       <use style="stroke:#000000;stroke-width:0.8;" x="181.175" xlink:href="#m0ecd99d568" y="231.478594"/>
      </g>
     </g>
     <g id="text_2">
      <!-- 2000 -->
      <defs>
       <path d="M 19.1875 8.296875 
L 53.609375 8.296875 
L 53.609375 0 
L 7.328125 0 
L 7.328125 8.296875 
Q 12.9375 14.109375 22.625 23.890625 
Q 32.328125 33.6875 34.8125 36.53125 
Q 39.546875 41.84375 41.421875 45.53125 
Q 43.3125 49.21875 43.3125 52.78125 
Q 43.3125 58.59375 39.234375 62.25 
Q 35.15625 65.921875 28.609375 65.921875 
Q 23.96875 65.921875 18.8125 64.3125 
Q 13.671875 62.703125 7.8125 59.421875 
L 7.8125 69.390625 
Q 13.765625 71.78125 18.9375 73 
Q 24.125 74.21875 28.421875 74.21875 
Q 39.75 74.21875 46.484375 68.546875 
Q 53.21875 62.890625 53.21875 53.421875 
Q 53.21875 48.921875 51.53125 44.890625 
Q 49.859375 40.875 45.40625 35.40625 
Q 44.1875 33.984375 37.640625 27.21875 
Q 31.109375 20.453125 19.1875 8.296875 
z
" id="DejaVuSans-50"/>
      </defs>
      <g transform="translate(158.27 252.155781)scale(0.18 -0.18)">
       <use xlink:href="#DejaVuSans-50"/>
       <use x="63.623047" xlink:href="#DejaVuSans-48"/>
       <use x="127.246094" xlink:href="#DejaVuSans-48"/>
       <use x="190.869141" xlink:href="#DejaVuSans-48"/>
      </g>
     </g>
    </g>
    <g id="xtick_3">
     <g id="line2d_3">
      <g>
       <use style="stroke:#000000;stroke-width:0.8;" x="282.855" xlink:href="#m0ecd99d568" y="231.478594"/>
      </g>
     </g>
     <g id="text_3">
      <!-- 4000 -->
      <defs>
       <path d="M 37.796875 64.3125 
L 12.890625 25.390625 
L 37.796875 25.390625 
z
M 35.203125 72.90625 
L 47.609375 72.90625 
L 47.609375 25.390625 
L 58.015625 25.390625 
L 58.015625 17.1875 
L 47.609375 17.1875 
L 47.609375 0 
L 37.796875 0 
L 37.796875 17.1875 
L 4.890625 17.1875 
L 4.890625 26.703125 
z
" id="DejaVuSans-52"/>
      </defs>
      <g transform="translate(259.95 252.155781)scale(0.18 -0.18)">
       <use xlink:href="#DejaVuSans-52"/>
       <use x="63.623047" xlink:href="#DejaVuSans-48"/>
       <use x="127.246094" xlink:href="#DejaVuSans-48"/>
       <use x="190.869141" xlink:href="#DejaVuSans-48"/>
      </g>
     </g>
    </g>
    <g id="xtick_4">
     <g id="line2d_4">
      <g>
       <use style="stroke:#000000;stroke-width:0.8;" x="384.535" xlink:href="#m0ecd99d568" y="231.478594"/>
      </g>
     </g>
     <g id="text_4">
      <!-- 6000 -->
      <defs>
       <path d="M 33.015625 40.375 
Q 26.375 40.375 22.484375 35.828125 
Q 18.609375 31.296875 18.609375 23.390625 
Q 18.609375 15.53125 22.484375 10.953125 
Q 26.375 6.390625 33.015625 6.390625 
Q 39.65625 6.390625 43.53125 10.953125 
Q 47.40625 15.53125 47.40625 23.390625 
Q 47.40625 31.296875 43.53125 35.828125 
Q 39.65625 40.375 33.015625 40.375 
z
M 52.59375 71.296875 
L 52.59375 62.3125 
Q 48.875 64.0625 45.09375 64.984375 
Q 41.3125 65.921875 37.59375 65.921875 
Q 27.828125 65.921875 22.671875 59.328125 
Q 17.53125 52.734375 16.796875 39.40625 
Q 19.671875 43.65625 24.015625 45.921875 
Q 28.375 48.1875 33.59375 48.1875 
Q 44.578125 48.1875 50.953125 41.515625 
Q 57.328125 34.859375 57.328125 23.390625 
Q 57.328125 12.15625 50.6875 5.359375 
Q 44.046875 -1.421875 33.015625 -1.421875 
Q 20.359375 -1.421875 13.671875 8.265625 
Q 6.984375 17.96875 6.984375 36.375 
Q 6.984375 53.65625 15.1875 63.9375 
Q 23.390625 74.21875 37.203125 74.21875 
Q 40.921875 74.21875 44.703125 73.484375 
Q 48.484375 72.75 52.59375 71.296875 
z
" id="DejaVuSans-54"/>
      </defs>
      <g transform="translate(361.63 252.155781)scale(0.18 -0.18)">
       <use xlink:href="#DejaVuSans-54"/>
       <use x="63.623047" xlink:href="#DejaVuSans-48"/>
       <use x="127.246094" xlink:href="#DejaVuSans-48"/>
       <use x="190.869141" xlink:href="#DejaVuSans-48"/>
      </g>
     </g>
    </g>
    <g id="xtick_5">
     <g id="line2d_5">
      <g>
       <use style="stroke:#000000;stroke-width:0.8;" x="486.215" xlink:href="#m0ecd99d568" y="231.478594"/>
      </g>
     </g>
     <g id="text_5">
      <!-- 8000 -->
      <defs>
       <path d="M 31.78125 34.625 
Q 24.75 34.625 20.71875 30.859375 
Q 16.703125 27.09375 16.703125 20.515625 
Q 16.703125 13.921875 20.71875 10.15625 
Q 24.75 6.390625 31.78125 6.390625 
Q 38.8125 6.390625 42.859375 10.171875 
Q 46.921875 13.96875 46.921875 20.515625 
Q 46.921875 27.09375 42.890625 30.859375 
Q 38.875 34.625 31.78125 34.625 
z
M 21.921875 38.8125 
Q 15.578125 40.375 12.03125 44.71875 
Q 8.5 49.078125 8.5 55.328125 
Q 8.5 64.0625 14.71875 69.140625 
Q 20.953125 74.21875 31.78125 74.21875 
Q 42.671875 74.21875 48.875 69.140625 
Q 55.078125 64.0625 55.078125 55.328125 
Q 55.078125 49.078125 51.53125 44.71875 
Q 48 40.375 41.703125 38.8125 
Q 48.828125 37.15625 52.796875 32.3125 
Q 56.78125 27.484375 56.78125 20.515625 
Q 56.78125 9.90625 50.3125 4.234375 
Q 43.84375 -1.421875 31.78125 -1.421875 
Q 19.734375 -1.421875 13.25 4.234375 
Q 6.78125 9.90625 6.78125 20.515625 
Q 6.78125 27.484375 10.78125 32.3125 
Q 14.796875 37.15625 21.921875 38.8125 
z
M 18.3125 54.390625 
Q 18.3125 48.734375 21.84375 45.5625 
Q 25.390625 42.390625 31.78125 42.390625 
Q 38.140625 42.390625 41.71875 45.5625 
Q 45.3125 48.734375 45.3125 54.390625 
Q 45.3125 60.0625 41.71875 63.234375 
Q 38.140625 66.40625 31.78125 66.40625 
Q 25.390625 66.40625 21.84375 63.234375 
Q 18.3125 60.0625 18.3125 54.390625 
z
" id="DejaVuSans-56"/>
      </defs>
      <g transform="translate(463.31 252.155781)scale(0.18 -0.18)">
       <use xlink:href="#DejaVuSans-56"/>
       <use x="63.623047" xlink:href="#DejaVuSans-48"/>
       <use x="127.246094" xlink:href="#DejaVuSans-48"/>
       <use x="190.869141" xlink:href="#DejaVuSans-48"/>
      </g>
     </g>
    </g>
    <g id="text_6">
     <!-- Hour (start 01/01) -->
     <defs>
      <path d="M 9.8125 72.90625 
L 19.671875 72.90625 
L 19.671875 43.015625 
L 55.515625 43.015625 
L 55.515625 72.90625 
L 65.375 72.90625 
L 65.375 0 
L 55.515625 0 
L 55.515625 34.71875 
L 19.671875 34.71875 
L 19.671875 0 
L 9.8125 0 
z
" id="DejaVuSans-72"/>
      <path d="M 30.609375 48.390625 
Q 23.390625 48.390625 19.1875 42.75 
Q 14.984375 37.109375 14.984375 27.296875 
Q 14.984375 17.484375 19.15625 11.84375 
Q 23.34375 6.203125 30.609375 6.203125 
Q 37.796875 6.203125 41.984375 11.859375 
Q 46.1875 17.53125 46.1875 27.296875 
Q 46.1875 37.015625 41.984375 42.703125 
Q 37.796875 48.390625 30.609375 48.390625 
z
M 30.609375 56 
Q 42.328125 56 49.015625 48.375 
Q 55.71875 40.765625 55.71875 27.296875 
Q 55.71875 13.875 49.015625 6.21875 
Q 42.328125 -1.421875 30.609375 -1.421875 
Q 18.84375 -1.421875 12.171875 6.21875 
Q 5.515625 13.875 5.515625 27.296875 
Q 5.515625 40.765625 12.171875 48.375 
Q 18.84375 56 30.609375 56 
z
" id="DejaVuSans-111"/>
      <path d="M 8.5 21.578125 
L 8.5 54.6875 
L 17.484375 54.6875 
L 17.484375 21.921875 
Q 17.484375 14.15625 20.5 10.265625 
Q 23.53125 6.390625 29.59375 6.390625 
Q 36.859375 6.390625 41.078125 11.03125 
Q 45.3125 15.671875 45.3125 23.6875 
L 45.3125 54.6875 
L 54.296875 54.6875 
L 54.296875 0 
L 45.3125 0 
L 45.3125 8.40625 
Q 42.046875 3.421875 37.71875 1 
Q 33.40625 -1.421875 27.6875 -1.421875 
Q 18.265625 -1.421875 13.375 4.4375 
Q 8.5 10.296875 8.5 21.578125 
z
M 31.109375 56 
z
" id="DejaVuSans-117"/>
      <path d="M 41.109375 46.296875 
Q 39.59375 47.171875 37.8125 47.578125 
Q 36.03125 48 33.890625 48 
Q 26.265625 48 22.1875 43.046875 
Q 18.109375 38.09375 18.109375 28.8125 
L 18.109375 0 
L 9.078125 0 
L 9.078125 54.6875 
L 18.109375 54.6875 
L 18.109375 46.1875 
Q 20.953125 51.171875 25.484375 53.578125 
Q 30.03125 56 36.53125 56 
Q 37.453125 56 38.578125 55.875 
Q 39.703125 55.765625 41.0625 55.515625 
z
" id="DejaVuSans-114"/>
      <path id="DejaVuSans-32"/>
      <path d="M 31 75.875 
Q 24.46875 64.65625 21.28125 53.65625 
Q 18.109375 42.671875 18.109375 31.390625 
Q 18.109375 20.125 21.3125 9.0625 
Q 24.515625 -2 31 -13.1875 
L 23.1875 -13.1875 
Q 15.875 -1.703125 12.234375 9.375 
Q 8.59375 20.453125 8.59375 31.390625 
Q 8.59375 42.28125 12.203125 53.3125 
Q 15.828125 64.359375 23.1875 75.875 
z
" id="DejaVuSans-40"/>
      <path d="M 44.28125 53.078125 
L 44.28125 44.578125 
Q 40.484375 46.53125 36.375 47.5 
Q 32.28125 48.484375 27.875 48.484375 
Q 21.1875 48.484375 17.84375 46.4375 
Q 14.5 44.390625 14.5 40.28125 
Q 14.5 37.15625 16.890625 35.375 
Q 19.28125 33.59375 26.515625 31.984375 
L 29.59375 31.296875 
Q 39.15625 29.25 43.1875 25.515625 
Q 47.21875 21.78125 47.21875 15.09375 
Q 47.21875 7.46875 41.1875 3.015625 
Q 35.15625 -1.421875 24.609375 -1.421875 
Q 20.21875 -1.421875 15.453125 -0.5625 
Q 10.6875 0.296875 5.421875 2 
L 5.421875 11.28125 
Q 10.40625 8.6875 15.234375 7.390625 
Q 20.0625 6.109375 24.8125 6.109375 
Q 31.15625 6.109375 34.5625 8.28125 
Q 37.984375 10.453125 37.984375 14.40625 
Q 37.984375 18.0625 35.515625 20.015625 
Q 33.0625 21.96875 24.703125 23.78125 
L 21.578125 24.515625 
Q 13.234375 26.265625 9.515625 29.90625 
Q 5.8125 33.546875 5.8125 39.890625 
Q 5.8125 47.609375 11.28125 51.796875 
Q 16.75 56 26.8125 56 
Q 31.78125 56 36.171875 55.265625 
Q 40.578125 54.546875 44.28125 53.078125 
z
" id="DejaVuSans-115"/>
      <path d="M 18.3125 70.21875 
L 18.3125 54.6875 
L 36.8125 54.6875 
L 36.8125 47.703125 
L 18.3125 47.703125 
L 18.3125 18.015625 
Q 18.3125 11.328125 20.140625 9.421875 
Q 21.96875 7.515625 27.59375 7.515625 
L 36.8125 7.515625 
L 36.8125 0 
L 27.59375 0 
Q 17.1875 0 13.234375 3.875 
Q 9.28125 7.765625 9.28125 18.015625 
L 9.28125 47.703125 
L 2.6875 47.703125 
L 2.6875 54.6875 
L 9.28125 54.6875 
L 9.28125 70.21875 
z
" id="DejaVuSans-116"/>
      <path d="M 34.28125 27.484375 
Q 23.390625 27.484375 19.1875 25 
Q 14.984375 22.515625 14.984375 16.5 
Q 14.984375 11.71875 18.140625 8.90625 
Q 21.296875 6.109375 26.703125 6.109375 
Q 34.1875 6.109375 38.703125 11.40625 
Q 43.21875 16.703125 43.21875 25.484375 
L 43.21875 27.484375 
z
M 52.203125 31.203125 
L 52.203125 0 
L 43.21875 0 
L 43.21875 8.296875 
Q 40.140625 3.328125 35.546875 0.953125 
Q 30.953125 -1.421875 24.3125 -1.421875 
Q 15.921875 -1.421875 10.953125 3.296875 
Q 6 8.015625 6 15.921875 
Q 6 25.140625 12.171875 29.828125 
Q 18.359375 34.515625 30.609375 34.515625 
L 43.21875 34.515625 
L 43.21875 35.40625 
Q 43.21875 41.609375 39.140625 45 
Q 35.0625 48.390625 27.6875 48.390625 
Q 23 48.390625 18.546875 47.265625 
Q 14.109375 46.140625 10.015625 43.890625 
L 10.015625 52.203125 
Q 14.9375 54.109375 19.578125 55.046875 
Q 24.21875 56 28.609375 56 
Q 40.484375 56 46.34375 49.84375 
Q 52.203125 43.703125 52.203125 31.203125 
z
" id="DejaVuSans-97"/>
      <path d="M 12.40625 8.296875 
L 28.515625 8.296875 
L 28.515625 63.921875 
L 10.984375 60.40625 
L 10.984375 69.390625 
L 28.421875 72.90625 
L 38.28125 72.90625 
L 38.28125 8.296875 
L 54.390625 8.296875 
L 54.390625 0 
L 12.40625 0 
z
" id="DejaVuSans-49"/>
      <path d="M 25.390625 72.90625 
L 33.6875 72.90625 
L 8.296875 -9.28125 
L 0 -9.28125 
z
" id="DejaVuSans-47"/>
      <path d="M 8.015625 75.875 
L 15.828125 75.875 
Q 23.140625 64.359375 26.78125 53.3125 
Q 30.421875 42.28125 30.421875 31.390625 
Q 30.421875 20.453125 26.78125 9.375 
Q 23.140625 -1.703125 15.828125 -13.1875 
L 8.015625 -13.1875 
Q 14.5 -2 17.703125 9.0625 
Q 20.90625 20.125 20.90625 31.390625 
Q 20.90625 42.671875 17.703125 53.65625 
Q 14.5 64.65625 8.015625 75.875 
z
" id="DejaVuSans-41"/>
     </defs>
     <g style="fill:#696969;" transform="translate(235.99125 272.056719)scale(0.16 -0.16)">
      <use xlink:href="#DejaVuSans-72"/>
      <use x="75.195312" xlink:href="#DejaVuSans-111"/>
      <use x="136.376953" xlink:href="#DejaVuSans-117"/>
      <use x="199.755859" xlink:href="#DejaVuSans-114"/>
      <use x="240.869141" xlink:href="#DejaVuSans-32"/>
      <use x="272.65625" xlink:href="#DejaVuSans-40"/>
      <use x="311.669922" xlink:href="#DejaVuSans-115"/>
      <use x="363.769531" xlink:href="#DejaVuSans-116"/>
      <use x="402.978516" xlink:href="#DejaVuSans-97"/>
      <use x="464.257812" xlink:href="#DejaVuSans-114"/>
      <use x="505.371094" xlink:href="#DejaVuSans-116"/>
      <use x="544.580078" xlink:href="#DejaVuSans-32"/>
      <use x="576.367188" xlink:href="#DejaVuSans-48"/>
      <use x="639.990234" xlink:href="#DejaVuSans-49"/>
      <use x="703.613281" xlink:href="#DejaVuSans-47"/>
      <use x="737.304688" xlink:href="#DejaVuSans-48"/>
      <use x="800.927734" xlink:href="#DejaVuSans-49"/>
      <use x="864.550781" xlink:href="#DejaVuSans-41"/>
     </g>
    </g>
   </g>
   <g id="matplotlib.axis_2">
    <g id="ytick_1">
     <g id="line2d_6">
      <defs>
       <path d="M 0 0 
L -3.5 0 
" id="m722fc1c769" style="stroke:#000000;stroke-width:0.8;"/>
      </defs>
      <g>
       <use style="stroke:#000000;stroke-width:0.8;" x="79.495" xlink:href="#m722fc1c769" y="231.478594"/>
      </g>
     </g>
     <g id="text_7">
      <!-- 200 -->
      <g transform="translate(38.1375 238.317187)scale(0.18 -0.18)">
       <use xlink:href="#DejaVuSans-50"/>
       <use x="63.623047" xlink:href="#DejaVuSans-48"/>
       <use x="127.246094" xlink:href="#DejaVuSans-48"/>
      </g>
     </g>
    </g>
    <g id="ytick_2">
     <g id="line2d_7">
      <g>
       <use style="stroke:#000000;stroke-width:0.8;" x="79.495" xlink:href="#m722fc1c769" y="177.118594"/>
      </g>
     </g>
     <g id="text_8">
      <!-- 400 -->
      <g transform="translate(38.1375 183.957187)scale(0.18 -0.18)">
       <use xlink:href="#DejaVuSans-52"/>
       <use x="63.623047" xlink:href="#DejaVuSans-48"/>
       <use x="127.246094" xlink:href="#DejaVuSans-48"/>
      </g>
     </g>
    </g>
    <g id="ytick_3">
     <g id="line2d_8">
      <g>
       <use style="stroke:#000000;stroke-width:0.8;" x="79.495" xlink:href="#m722fc1c769" y="122.758594"/>
      </g>
     </g>
     <g id="text_9">
      <!-- 600 -->
      <g transform="translate(38.1375 129.597187)scale(0.18 -0.18)">
       <use xlink:href="#DejaVuSans-54"/>
       <use x="63.623047" xlink:href="#DejaVuSans-48"/>
       <use x="127.246094" xlink:href="#DejaVuSans-48"/>
      </g>
     </g>
    </g>
    <g id="ytick_4">
     <g id="line2d_9">
      <g>
       <use style="stroke:#000000;stroke-width:0.8;" x="79.495" xlink:href="#m722fc1c769" y="68.398594"/>
      </g>
     </g>
     <g id="text_10">
      <!-- 800 -->
      <g transform="translate(38.1375 75.237187)scale(0.18 -0.18)">
       <use xlink:href="#DejaVuSans-56"/>
       <use x="63.623047" xlink:href="#DejaVuSans-48"/>
       <use x="127.246094" xlink:href="#DejaVuSans-48"/>
      </g>
     </g>
    </g>
    <g id="ytick_5">
     <g id="line2d_10">
      <g>
       <use style="stroke:#000000;stroke-width:0.8;" x="79.495" xlink:href="#m722fc1c769" y="14.038594"/>
      </g>
     </g>
     <g id="text_11">
      <!-- 1000 -->
      <g transform="translate(26.685 20.877187)scale(0.18 -0.18)">
       <use xlink:href="#DejaVuSans-49"/>
       <use x="63.623047" xlink:href="#DejaVuSans-48"/>
       <use x="127.246094" xlink:href="#DejaVuSans-48"/>
       <use x="190.869141" xlink:href="#DejaVuSans-48"/>
      </g>
     </g>
    </g>
    <g id="text_12">
     <!-- CPU Power sq.meter (W) -->
     <defs>
      <path d="M 64.40625 67.28125 
L 64.40625 56.890625 
Q 59.421875 61.53125 53.78125 63.8125 
Q 48.140625 66.109375 41.796875 66.109375 
Q 29.296875 66.109375 22.65625 58.46875 
Q 16.015625 50.828125 16.015625 36.375 
Q 16.015625 21.96875 22.65625 14.328125 
Q 29.296875 6.6875 41.796875 6.6875 
Q 48.140625 6.6875 53.78125 8.984375 
Q 59.421875 11.28125 64.40625 15.921875 
L 64.40625 5.609375 
Q 59.234375 2.09375 53.4375 0.328125 
Q 47.65625 -1.421875 41.21875 -1.421875 
Q 24.65625 -1.421875 15.125 8.703125 
Q 5.609375 18.84375 5.609375 36.375 
Q 5.609375 53.953125 15.125 64.078125 
Q 24.65625 74.21875 41.21875 74.21875 
Q 47.75 74.21875 53.53125 72.484375 
Q 59.328125 70.75 64.40625 67.28125 
z
" id="DejaVuSans-67"/>
      <path d="M 19.671875 64.796875 
L 19.671875 37.40625 
L 32.078125 37.40625 
Q 38.96875 37.40625 42.71875 40.96875 
Q 46.484375 44.53125 46.484375 51.125 
Q 46.484375 57.671875 42.71875 61.234375 
Q 38.96875 64.796875 32.078125 64.796875 
z
M 9.8125 72.90625 
L 32.078125 72.90625 
Q 44.34375 72.90625 50.609375 67.359375 
Q 56.890625 61.8125 56.890625 51.125 
Q 56.890625 40.328125 50.609375 34.8125 
Q 44.34375 29.296875 32.078125 29.296875 
L 19.671875 29.296875 
L 19.671875 0 
L 9.8125 0 
z
" id="DejaVuSans-80"/>
      <path d="M 8.6875 72.90625 
L 18.609375 72.90625 
L 18.609375 28.609375 
Q 18.609375 16.890625 22.84375 11.734375 
Q 27.09375 6.59375 36.625 6.59375 
Q 46.09375 6.59375 50.34375 11.734375 
Q 54.59375 16.890625 54.59375 28.609375 
L 54.59375 72.90625 
L 64.5 72.90625 
L 64.5 27.390625 
Q 64.5 13.140625 57.4375 5.859375 
Q 50.390625 -1.421875 36.625 -1.421875 
Q 22.796875 -1.421875 15.734375 5.859375 
Q 8.6875 13.140625 8.6875 27.390625 
z
" id="DejaVuSans-85"/>
      <path d="M 4.203125 54.6875 
L 13.1875 54.6875 
L 24.421875 12.015625 
L 35.59375 54.6875 
L 46.1875 54.6875 
L 57.421875 12.015625 
L 68.609375 54.6875 
L 77.59375 54.6875 
L 63.28125 0 
L 52.6875 0 
L 40.921875 44.828125 
L 29.109375 0 
L 18.5 0 
z
" id="DejaVuSans-119"/>
      <path d="M 56.203125 29.59375 
L 56.203125 25.203125 
L 14.890625 25.203125 
Q 15.484375 15.921875 20.484375 11.0625 
Q 25.484375 6.203125 34.421875 6.203125 
Q 39.59375 6.203125 44.453125 7.46875 
Q 49.3125 8.734375 54.109375 11.28125 
L 54.109375 2.78125 
Q 49.265625 0.734375 44.1875 -0.34375 
Q 39.109375 -1.421875 33.890625 -1.421875 
Q 20.796875 -1.421875 13.15625 6.1875 
Q 5.515625 13.8125 5.515625 26.8125 
Q 5.515625 40.234375 12.765625 48.109375 
Q 20.015625 56 32.328125 56 
Q 43.359375 56 49.78125 48.890625 
Q 56.203125 41.796875 56.203125 29.59375 
z
M 47.21875 32.234375 
Q 47.125 39.59375 43.09375 43.984375 
Q 39.0625 48.390625 32.421875 48.390625 
Q 24.90625 48.390625 20.390625 44.140625 
Q 15.875 39.890625 15.1875 32.171875 
z
" id="DejaVuSans-101"/>
      <path d="M 14.796875 27.296875 
Q 14.796875 17.390625 18.875 11.75 
Q 22.953125 6.109375 30.078125 6.109375 
Q 37.203125 6.109375 41.296875 11.75 
Q 45.40625 17.390625 45.40625 27.296875 
Q 45.40625 37.203125 41.296875 42.84375 
Q 37.203125 48.484375 30.078125 48.484375 
Q 22.953125 48.484375 18.875 42.84375 
Q 14.796875 37.203125 14.796875 27.296875 
z
M 45.40625 8.203125 
Q 42.578125 3.328125 38.25 0.953125 
Q 33.9375 -1.421875 27.875 -1.421875 
Q 17.96875 -1.421875 11.734375 6.484375 
Q 5.515625 14.40625 5.515625 27.296875 
Q 5.515625 40.1875 11.734375 48.09375 
Q 17.96875 56 27.875 56 
Q 33.9375 56 38.25 53.625 
Q 42.578125 51.265625 45.40625 46.390625 
L 45.40625 54.6875 
L 54.390625 54.6875 
L 54.390625 -20.796875 
L 45.40625 -20.796875 
z
" id="DejaVuSans-113"/>
      <path d="M 10.6875 12.40625 
L 21 12.40625 
L 21 0 
L 10.6875 0 
z
" id="DejaVuSans-46"/>
      <path d="M 52 44.1875 
Q 55.375 50.25 60.0625 53.125 
Q 64.75 56 71.09375 56 
Q 79.640625 56 84.28125 50.015625 
Q 88.921875 44.046875 88.921875 33.015625 
L 88.921875 0 
L 79.890625 0 
L 79.890625 32.71875 
Q 79.890625 40.578125 77.09375 44.375 
Q 74.3125 48.1875 68.609375 48.1875 
Q 61.625 48.1875 57.5625 43.546875 
Q 53.515625 38.921875 53.515625 30.90625 
L 53.515625 0 
L 44.484375 0 
L 44.484375 32.71875 
Q 44.484375 40.625 41.703125 44.40625 
Q 38.921875 48.1875 33.109375 48.1875 
Q 26.21875 48.1875 22.15625 43.53125 
Q 18.109375 38.875 18.109375 30.90625 
L 18.109375 0 
L 9.078125 0 
L 9.078125 54.6875 
L 18.109375 54.6875 
L 18.109375 46.1875 
Q 21.1875 51.21875 25.484375 53.609375 
Q 29.78125 56 35.6875 56 
Q 41.65625 56 45.828125 52.96875 
Q 50 49.953125 52 44.1875 
z
" id="DejaVuSans-109"/>
      <path d="M 3.328125 72.90625 
L 13.28125 72.90625 
L 28.609375 11.28125 
L 43.890625 72.90625 
L 54.984375 72.90625 
L 70.3125 11.28125 
L 85.59375 72.90625 
L 95.609375 72.90625 
L 77.296875 0 
L 64.890625 0 
L 49.515625 63.28125 
L 33.984375 0 
L 21.578125 0 
z
" id="DejaVuSans-87"/>
     </defs>
     <g style="fill:#696969;" transform="translate(19.3575 221.123594)rotate(-90)scale(0.16 -0.16)">
      <use xlink:href="#DejaVuSans-67"/>
      <use x="69.824219" xlink:href="#DejaVuSans-80"/>
      <use x="130.126953" xlink:href="#DejaVuSans-85"/>
      <use x="203.320312" xlink:href="#DejaVuSans-32"/>
      <use x="235.107422" xlink:href="#DejaVuSans-80"/>
      <use x="295.363281" xlink:href="#DejaVuSans-111"/>
      <use x="356.544922" xlink:href="#DejaVuSans-119"/>
      <use x="438.332031" xlink:href="#DejaVuSans-101"/>
      <use x="499.855469" xlink:href="#DejaVuSans-114"/>
      <use x="540.96875" xlink:href="#DejaVuSans-32"/>
      <use x="572.755859" xlink:href="#DejaVuSans-115"/>
      <use x="624.855469" xlink:href="#DejaVuSans-113"/>
      <use x="688.332031" xlink:href="#DejaVuSans-46"/>
      <use x="720.119141" xlink:href="#DejaVuSans-109"/>
      <use x="817.53125" xlink:href="#DejaVuSans-101"/>
      <use x="879.054688" xlink:href="#DejaVuSans-116"/>
      <use x="918.263672" xlink:href="#DejaVuSans-101"/>
      <use x="979.787109" xlink:href="#DejaVuSans-114"/>
      <use x="1020.900391" xlink:href="#DejaVuSans-32"/>
      <use x="1052.6875" xlink:href="#DejaVuSans-40"/>
      <use x="1091.701172" xlink:href="#DejaVuSans-87"/>
      <use x="1190.578125" xlink:href="#DejaVuSans-41"/>
     </g>
    </g>
   </g>
   <g id="line2d_11">
    <path clip-path="url(#p342482295e)" d="M 79.495 101.498407 
L 84.3248 101.498407 
L 84.47732 99.918461 
L 85.54496 99.918461 
L 85.69748 101.498407 
L 87.98528 101.498407 
L 88.1378 104.658299 
L 89.20544 104.658299 
L 89.35796 103.078353 
L 90.4256 103.078353 
L 90.57812 99.918461 
L 94.08608 99.918461 
L 94.2386 98.338516 
L 95.30624 98.338516 
L 95.45876 99.918461 
L 96.5264 99.918461 
L 96.67892 103.078353 
L 97.74656 103.078353 
L 97.89908 101.498407 
L 98.96672 101.498407 
L 99.11924 96.75857 
L 100.18688 96.75857 
L 100.3394 98.338516 
L 101.40704 98.338516 
L 101.55956 99.918461 
L 105.06752 99.918461 
L 105.22004 101.498407 
L 106.28768 101.498407 
L 106.4402 99.918461 
L 107.50784 99.918461 
L 107.66036 95.178624 
L 108.728 95.178624 
L 108.88052 98.338516 
L 112.38848 98.338516 
L 112.541 99.918461 
L 113.60864 99.918461 
L 113.76116 103.078353 
L 114.8288 103.078353 
L 114.98132 99.918461 
L 116.04896 99.918461 
L 116.20148 96.75857 
L 117.26912 96.75857 
L 117.42164 99.918461 
L 118.48928 99.918461 
L 118.6418 106.238245 
L 119.70944 106.238245 
L 119.86196 98.338516 
L 120.9296 98.338516 
L 121.08212 99.918461 
L 123.36992 99.918461 
L 123.52244 98.338516 
L 124.59008 98.338516 
L 124.7426 95.178624 
L 125.81024 95.178624 
L 125.96276 98.338516 
L 128.25056 98.338516 
L 128.40308 103.078353 
L 129.47072 103.078353 
L 129.62324 101.498407 
L 130.69088 101.498407 
L 130.8434 104.658299 
L 131.91104 104.658299 
L 132.06356 103.078353 
L 133.1312 103.078353 
L 133.28372 95.178624 
L 135.57152 95.178624 
L 135.72404 96.75857 
L 136.79168 96.75857 
L 136.9442 98.338516 
L 139.232 98.338516 
L 139.38452 101.498407 
L 140.45216 101.498407 
L 140.60468 99.918461 
L 141.67232 99.918461 
L 141.82484 95.178624 
L 142.89248 95.178624 
L 143.045 98.338516 
L 145.3328 98.338516 
L 145.48532 96.75857 
L 147.77312 96.75857 
L 147.92564 101.498407 
L 148.99328 101.498407 
L 149.1458 99.918461 
L 150.21344 99.918461 
L 150.36596 93.598678 
L 152.65376 93.598678 
L 152.80628 95.178624 
L 155.09408 95.178624 
L 155.2466 96.75857 
L 156.31424 96.75857 
L 156.46676 101.498407 
L 157.5344 101.498407 
L 157.68692 98.338516 
L 158.75456 98.338516 
L 158.90708 96.75857 
L 159.97472 96.75857 
L 160.12724 98.338516 
L 161.19488 98.338516 
L 161.3474 99.918461 
L 162.41504 99.918461 
L 162.56756 98.338516 
L 163.6352 98.338516 
L 163.78772 99.918461 
L 164.85536 99.918461 
L 165.00788 103.078353 
L 167.29568 103.078353 
L 167.4482 99.918461 
L 169.736 99.918461 
L 169.88852 98.338516 
L 170.95616 98.338516 
L 171.10868 99.918461 
L 172.17632 99.918461 
L 172.32884 101.498407 
L 173.39648 101.498407 
L 173.549 104.658299 
L 174.61664 104.658299 
L 174.76916 101.498407 
L 177.05696 101.498407 
L 177.20948 98.338516 
L 181.9376 98.338516 
L 182.09012 99.918461 
L 183.15776 99.918461 
L 183.31028 101.498407 
L 184.37792 101.498407 
L 184.53044 96.75857 
L 186.81824 96.75857 
L 186.97076 98.338516 
L 190.47872 98.338516 
L 190.63124 95.178624 
L 191.69888 95.178624 
L 191.8514 93.598678 
L 194.1392 93.598678 
L 194.29172 92.018732 
L 196.57952 92.018732 
L 196.73204 101.498407 
L 197.79968 101.498407 
L 197.9522 98.338516 
L 199.01984 98.338516 
L 199.17236 103.078353 
L 201.46016 103.078353 
L 201.61268 96.75857 
L 202.68032 96.75857 
L 202.83284 98.338516 
L 203.90048 98.338516 
L 204.053 99.918461 
L 205.12064 99.918461 
L 205.27316 101.498407 
L 207.56096 101.498407 
L 207.71348 104.658299 
L 210.00128 104.658299 
L 210.1538 99.918461 
L 216.10208 99.918461 
L 216.2546 103.078353 
L 218.5424 103.078353 
L 218.69492 98.338516 
L 220.98272 98.338516 
L 221.13524 99.918461 
L 223.42304 99.918461 
L 223.57556 103.078353 
L 225.86336 103.078353 
L 226.01588 101.498407 
L 227.08352 101.498407 
L 227.23604 98.338516 
L 228.30368 98.338516 
L 228.4562 103.078353 
L 230.744 103.078353 
L 230.89652 104.658299 
L 231.96416 104.658299 
L 232.11668 103.078353 
L 233.18432 103.078353 
L 233.33684 106.238245 
L 234.40448 106.238245 
L 234.557 103.078353 
L 235.62464 103.078353 
L 235.77716 98.338516 
L 236.8448 98.338516 
L 236.99732 99.918461 
L 238.06496 99.918461 
L 238.21748 101.498407 
L 240.50528 101.498407 
L 240.6578 99.918461 
L 241.72544 99.918461 
L 241.87796 103.078353 
L 244.16576 103.078353 
L 244.31828 99.918461 
L 245.38592 99.918461 
L 245.53844 98.338516 
L 247.82624 98.338516 
L 247.97876 99.918461 
L 250.26656 99.918461 
L 250.41908 103.078353 
L 252.70688 103.078353 
L 252.8594 98.338516 
L 256.36736 98.338516 
L 256.51988 99.918461 
L 258.80768 99.918461 
L 258.9602 103.078353 
L 261.248 103.078353 
L 261.40052 96.75857 
L 264.90848 96.75857 
L 265.061 98.338516 
L 267.3488 98.338516 
L 267.50132 103.078353 
L 268.56896 103.078353 
L 268.72148 101.498407 
L 269.78912 101.498407 
L 269.94164 98.338516 
L 271.00928 98.338516 
L 271.1618 99.918461 
L 273.4496 99.918461 
L 273.60212 98.338516 
L 275.88992 98.338516 
L 276.04244 101.498407 
L 277.11008 101.498407 
L 277.2626 99.918461 
L 279.5504 99.918461 
L 279.70292 96.75857 
L 280.77056 96.75857 
L 280.92308 98.338516 
L 281.99072 98.338516 
L 282.14324 99.918461 
L 284.43104 99.918461 
L 284.58356 101.498407 
L 286.87136 101.498407 
L 287.02388 96.75857 
L 288.09152 96.75857 
L 288.24404 98.338516 
L 291.752 98.338516 
L 291.90452 99.918461 
L 292.97216 99.918461 
L 293.12468 101.498407 
L 294.19232 101.498407 
L 294.34484 98.338516 
L 295.41248 98.338516 
L 295.565 95.178624 
L 296.63264 95.178624 
L 296.78516 96.75857 
L 297.8528 96.75857 
L 298.00532 99.918461 
L 299.07296 99.918461 
L 299.22548 96.75857 
L 300.29312 96.75857 
L 300.44564 95.178624 
L 301.51328 95.178624 
L 301.6658 101.498407 
L 302.73344 101.498407 
L 302.88596 99.918461 
L 303.9536 99.918461 
L 304.10612 95.178624 
L 305.17376 95.178624 
L 305.32628 96.75857 
L 306.39392 96.75857 
L 306.54644 95.178624 
L 307.61408 95.178624 
L 307.7666 96.75857 
L 308.83424 96.75857 
L 308.98676 101.498407 
L 311.27456 101.498407 
L 311.42708 98.338516 
L 313.71488 98.338516 
L 313.8674 99.918461 
L 318.59552 99.918461 
L 318.74804 101.498407 
L 321.03584 101.498407 
L 321.18836 104.658299 
L 322.256 104.658299 
L 322.40852 99.918461 
L 323.47616 99.918461 
L 323.62868 98.338516 
L 328.3568 98.338516 
L 328.50932 96.75857 
L 329.57696 96.75857 
L 329.72948 95.178624 
L 330.79712 95.178624 
L 330.94964 96.75857 
L 334.4576 96.75857 
L 334.61012 98.338516 
L 335.67776 98.338516 
L 335.83028 99.918461 
L 338.11808 99.918461 
L 338.2706 98.338516 
L 339.33824 98.338516 
L 339.49076 99.918461 
L 344.21888 99.918461 
L 344.3714 98.338516 
L 346.6592 98.338516 
L 346.81172 96.75857 
L 347.87936 96.75857 
L 348.03188 98.338516 
L 349.09952 98.338516 
L 349.25204 96.75857 
L 350.31968 96.75857 
L 350.4722 98.338516 
L 351.53984 98.338516 
L 351.69236 99.918461 
L 352.76 99.918461 
L 352.91252 98.338516 
L 355.20032 98.338516 
L 355.35284 99.918461 
L 356.42048 99.918461 
L 356.573 103.078353 
L 357.64064 103.078353 
L 357.79316 101.498407 
L 358.8608 101.498407 
L 359.01332 103.078353 
L 360.08096 103.078353 
L 360.23348 101.498407 
L 361.30112 101.498407 
L 361.45364 103.078353 
L 362.52128 103.078353 
L 362.6738 99.918461 
L 363.74144 99.918461 
L 363.89396 101.498407 
L 364.9616 101.498407 
L 365.11412 103.078353 
L 366.18176 103.078353 
L 366.33428 101.498407 
L 368.62208 101.498407 
L 368.7746 99.918461 
L 369.84224 99.918461 
L 369.99476 103.078353 
L 371.0624 103.078353 
L 371.21492 101.498407 
L 372.28256 101.498407 
L 372.43508 98.338516 
L 374.72288 98.338516 
L 374.8754 96.75857 
L 377.1632 96.75857 
L 377.31572 98.338516 
L 378.38336 98.338516 
L 378.53588 103.078353 
L 380.82368 103.078353 
L 380.9762 98.338516 
L 383.264 98.338516 
L 383.41652 99.918461 
L 385.70432 99.918461 
L 385.85684 98.338516 
L 386.92448 98.338516 
L 387.077 99.918461 
L 388.14464 99.918461 
L 388.29716 101.498407 
L 389.3648 101.498407 
L 389.51732 98.338516 
L 390.58496 98.338516 
L 390.73748 99.918461 
L 395.4656 99.918461 
L 395.61812 103.078353 
L 397.90592 103.078353 
L 398.05844 104.658299 
L 399.12608 104.658299 
L 399.2786 99.918461 
L 401.5664 99.918461 
L 401.71892 103.078353 
L 402.78656 103.078353 
L 402.93908 99.918461 
L 404.00672 99.918461 
L 404.15924 103.078353 
L 405.22688 103.078353 
L 405.3794 99.918461 
L 406.44704 99.918461 
L 406.59956 98.338516 
L 407.6672 98.338516 
L 407.81972 99.918461 
L 408.88736 99.918461 
L 409.03988 98.338516 
L 411.32768 98.338516 
L 411.4802 96.75857 
L 412.54784 96.75857 
L 412.70036 99.918461 
L 414.98816 99.918461 
L 415.14068 96.75857 
L 421.08896 96.75857 
L 421.24148 101.498407 
L 422.30912 101.498407 
L 422.46164 99.918461 
L 423.52928 99.918461 
L 423.6818 98.338516 
L 424.74944 98.338516 
L 424.90196 95.178624 
L 425.9696 95.178624 
L 426.12212 93.598678 
L 427.18976 93.598678 
L 427.34228 95.178624 
L 428.40992 95.178624 
L 428.56244 96.75857 
L 429.63008 96.75857 
L 429.7826 99.918461 
L 430.85024 99.918461 
L 431.00276 98.338516 
L 432.0704 98.338516 
L 432.22292 96.75857 
L 434.51072 96.75857 
L 434.66324 98.338516 
L 435.73088 98.338516 
L 435.8834 95.178624 
L 436.95104 95.178624 
L 437.10356 96.75857 
L 438.1712 96.75857 
L 438.32372 99.918461 
L 440.61152 99.918461 
L 440.76404 96.75857 
L 443.05184 96.75857 
L 443.20436 95.178624 
L 444.272 95.178624 
L 444.42452 96.75857 
L 445.49216 96.75857 
L 445.64468 99.918461 
L 446.71232 99.918461 
L 446.86484 103.078353 
L 447.93248 103.078353 
L 448.085 99.918461 
L 449.15264 99.918461 
L 449.30516 96.75857 
L 451.59296 96.75857 
L 451.74548 95.178624 
L 452.81312 95.178624 
L 452.96564 96.75857 
L 454.03328 96.75857 
L 454.1858 98.338516 
L 457.69376 98.338516 
L 457.84628 93.598678 
L 460.13408 93.598678 
L 460.2866 92.018732 
L 461.35424 92.018732 
L 461.50676 90.438786 
L 463.79456 90.438786 
L 463.94708 95.178624 
L 466.23488 95.178624 
L 466.3874 93.598678 
L 467.45504 93.598678 
L 467.60756 92.018732 
L 469.89536 92.018732 
L 470.04788 93.598678 
L 471.11552 93.598678 
L 471.26804 96.75857 
L 472.33568 96.75857 
L 472.4882 99.918461 
L 473.55584 99.918461 
L 473.70836 98.338516 
L 474.776 98.338516 
L 474.92852 95.178624 
L 477.21632 95.178624 
L 477.36884 99.918461 
L 478.43648 99.918461 
L 478.589 96.75857 
L 480.8768 96.75857 
L 481.02932 98.338516 
L 483.31712 98.338516 
L 483.46964 95.178624 
L 484.53728 95.178624 
L 484.6898 96.75857 
L 485.75744 96.75857 
L 485.90996 95.178624 
L 486.9776 95.178624 
L 487.13012 96.75857 
L 488.19776 96.75857 
L 488.35028 98.338516 
L 489.41792 98.338516 
L 489.57044 99.918461 
L 491.85824 99.918461 
L 492.01076 96.75857 
L 493.0784 96.75857 
L 493.23092 95.178624 
L 494.29856 95.178624 
L 494.45108 96.75857 
L 497.95904 96.75857 
L 498.11156 99.918461 
L 500.39936 99.918461 
L 500.55188 95.178624 
L 501.61952 95.178624 
L 501.77204 96.75857 
L 502.83968 96.75857 
L 502.9922 98.338516 
L 504.05984 98.338516 
L 504.21236 96.75857 
L 506.50016 96.75857 
L 506.65268 99.918461 
L 507.72032 99.918461 
L 507.87284 98.338516 
L 508.94048 98.338516 
L 509.093 95.178624 
L 510.16064 95.178624 
L 510.31316 96.75857 
L 513.82112 96.75857 
L 513.97364 103.078353 
L 515.04128 103.078353 
L 515.1938 99.918461 
L 516.26144 99.918461 
L 516.41396 98.338516 
L 517.4816 98.338516 
L 517.63412 90.438786 
L 518.70176 90.438786 
L 518.85428 88.85884 
L 519.92192 88.85884 
L 520.07444 90.438786 
L 522.36224 90.438786 
L 522.51476 95.178624 
L 523.5824 95.178624 
L 523.73492 99.918461 
L 524.80256 99.918461 
L 524.80256 99.918461 
" style="fill:none;stroke:#1f77b4;stroke-linecap:square;stroke-width:1.5;"/>
   </g>
   <g id="line2d_12">
    <path clip-path="url(#p342482295e)" d="M 79.495 22.501113 
L 524.80256 22.501113 
L 524.80256 22.501113 
" style="fill:none;stroke:#ff7f0e;stroke-linecap:square;stroke-width:1.5;"/>
   </g>
   <g id="line2d_13">
    <path clip-path="url(#p342482295e)" d="M 79.495 126.777542 
L 80.66432 126.777542 
L 80.81684 128.357487 
L 89.20544 128.357487 
L 89.35796 129.937433 
L 90.4256 129.937433 
L 90.57812 125.197596 
L 91.64576 125.197596 
L 91.79828 128.357487 
L 95.30624 128.357487 
L 95.45876 126.777542 
L 97.74656 126.777542 
L 97.89908 128.357487 
L 98.96672 128.357487 
L 99.11924 125.197596 
L 100.18688 125.197596 
L 100.3394 126.777542 
L 101.40704 126.777542 
L 101.55956 128.357487 
L 103.84736 128.357487 
L 103.99988 126.777542 
L 107.50784 126.777542 
L 107.66036 125.197596 
L 108.728 125.197596 
L 108.88052 126.777542 
L 109.94816 126.777542 
L 110.10068 128.357487 
L 112.38848 128.357487 
L 112.541 126.777542 
L 117.26912 126.777542 
L 117.42164 128.357487 
L 118.48928 128.357487 
L 118.6418 131.517379 
L 119.70944 131.517379 
L 119.86196 126.777542 
L 120.9296 126.777542 
L 121.08212 125.197596 
L 122.14976 125.197596 
L 122.30228 123.61765 
L 123.36992 123.61765 
L 123.52244 125.197596 
L 125.81024 125.197596 
L 125.96276 128.357487 
L 127.0304 128.357487 
L 127.18292 126.777542 
L 128.25056 126.777542 
L 128.40308 128.357487 
L 129.47072 128.357487 
L 129.62324 126.777542 
L 131.91104 126.777542 
L 132.06356 128.357487 
L 133.1312 128.357487 
L 133.28372 125.197596 
L 135.57152 125.197596 
L 135.72404 126.777542 
L 138.01184 126.777542 
L 138.16436 125.197596 
L 140.45216 125.197596 
L 140.60468 126.777542 
L 141.67232 126.777542 
L 141.82484 125.197596 
L 142.89248 125.197596 
L 143.045 128.357487 
L 146.55296 128.357487 
L 146.70548 126.777542 
L 148.99328 126.777542 
L 149.1458 129.937433 
L 150.21344 129.937433 
L 150.36596 125.197596 
L 151.4336 125.197596 
L 151.58612 126.777542 
L 155.09408 126.777542 
L 155.2466 125.197596 
L 157.5344 125.197596 
L 157.68692 126.777542 
L 159.97472 126.777542 
L 160.12724 128.357487 
L 163.6352 128.357487 
L 163.78772 126.777542 
L 166.07552 126.777542 
L 166.22804 128.357487 
L 167.29568 128.357487 
L 167.4482 129.937433 
L 169.736 129.937433 
L 169.88852 128.357487 
L 172.17632 128.357487 
L 172.32884 126.777542 
L 179.49728 126.777542 
L 179.6498 128.357487 
L 181.9376 128.357487 
L 182.09012 125.197596 
L 183.15776 125.197596 
L 183.31028 128.357487 
L 188.0384 128.357487 
L 188.19092 126.777542 
L 189.25856 126.777542 
L 189.41108 125.197596 
L 190.47872 125.197596 
L 190.63124 117.297866 
L 192.91904 117.297866 
L 193.07156 118.877812 
L 194.1392 118.877812 
L 194.29172 120.457758 
L 196.57952 120.457758 
L 196.73204 128.357487 
L 197.79968 128.357487 
L 197.9522 126.777542 
L 199.01984 126.777542 
L 199.17236 123.61765 
L 200.24 123.61765 
L 200.39252 125.197596 
L 201.46016 125.197596 
L 201.61268 126.777542 
L 203.90048 126.777542 
L 204.053 128.357487 
L 205.12064 128.357487 
L 205.27316 129.937433 
L 206.3408 129.937433 
L 206.49332 128.357487 
L 207.56096 128.357487 
L 207.71348 126.777542 
L 208.78112 126.777542 
L 208.93364 128.357487 
L 211.22144 128.357487 
L 211.37396 129.937433 
L 212.4416 129.937433 
L 212.59412 128.357487 
L 213.66176 128.357487 
L 213.81428 126.777542 
L 214.88192 126.777542 
L 215.03444 125.197596 
L 217.32224 125.197596 
L 217.47476 126.777542 
L 218.5424 126.777542 
L 218.69492 128.357487 
L 219.76256 128.357487 
L 219.91508 129.937433 
L 222.20288 129.937433 
L 222.3554 128.357487 
L 223.42304 128.357487 
L 223.57556 125.197596 
L 228.30368 125.197596 
L 228.4562 126.777542 
L 229.52384 126.777542 
L 229.67636 125.197596 
L 231.96416 125.197596 
L 232.11668 123.61765 
L 235.62464 123.61765 
L 235.77716 126.777542 
L 236.8448 126.777542 
L 236.99732 128.357487 
L 238.06496 128.357487 
L 238.21748 129.937433 
L 240.50528 129.937433 
L 240.6578 126.777542 
L 244.16576 126.777542 
L 244.31828 129.937433 
L 245.38592 129.937433 
L 245.53844 128.357487 
L 249.0464 128.357487 
L 249.19892 125.197596 
L 250.26656 125.197596 
L 250.41908 123.61765 
L 251.48672 123.61765 
L 251.63924 126.777542 
L 252.70688 126.777542 
L 252.8594 128.357487 
L 255.1472 128.357487 
L 255.29972 126.777542 
L 257.58752 126.777542 
L 257.74004 125.197596 
L 260.02784 125.197596 
L 260.18036 129.937433 
L 261.248 129.937433 
L 261.40052 128.357487 
L 263.68832 128.357487 
L 263.84084 129.937433 
L 266.12864 129.937433 
L 266.28116 126.777542 
L 267.3488 126.777542 
L 267.50132 125.197596 
L 269.78912 125.197596 
L 269.94164 128.357487 
L 273.4496 128.357487 
L 273.60212 126.777542 
L 274.66976 126.777542 
L 274.82228 125.197596 
L 277.11008 125.197596 
L 277.2626 128.357487 
L 278.33024 128.357487 
L 278.48276 129.937433 
L 283.21088 129.937433 
L 283.3634 126.777542 
L 290.53184 126.777542 
L 290.68436 123.61765 
L 294.19232 123.61765 
L 294.34484 126.777542 
L 296.63264 126.777542 
L 296.78516 125.197596 
L 300.29312 125.197596 
L 300.44564 123.61765 
L 302.73344 123.61765 
L 302.88596 125.197596 
L 303.9536 125.197596 
L 304.10612 122.037704 
L 306.39392 122.037704 
L 306.54644 123.61765 
L 307.61408 123.61765 
L 307.7666 122.037704 
L 310.0544 122.037704 
L 310.20692 118.877812 
L 311.27456 118.877812 
L 311.42708 120.457758 
L 312.49472 120.457758 
L 312.64724 123.61765 
L 313.71488 123.61765 
L 313.8674 125.197596 
L 317.37536 125.197596 
L 317.52788 123.61765 
L 318.59552 123.61765 
L 318.74804 120.457758 
L 319.81568 120.457758 
L 319.9682 122.037704 
L 321.03584 122.037704 
L 321.18836 123.61765 
L 323.47616 123.61765 
L 323.62868 122.037704 
L 324.69632 122.037704 
L 324.84884 123.61765 
L 325.91648 123.61765 
L 326.069 122.037704 
L 327.13664 122.037704 
L 327.28916 120.457758 
L 329.57696 120.457758 
L 329.72948 122.037704 
L 335.67776 122.037704 
L 335.83028 120.457758 
L 336.89792 120.457758 
L 337.05044 123.61765 
L 338.11808 123.61765 
L 338.2706 122.037704 
L 339.33824 122.037704 
L 339.49076 125.197596 
L 340.5584 125.197596 
L 340.71092 123.61765 
L 341.77856 123.61765 
L 341.93108 125.197596 
L 342.99872 125.197596 
L 343.15124 123.61765 
L 344.21888 123.61765 
L 344.3714 120.457758 
L 347.87936 120.457758 
L 348.03188 123.61765 
L 349.09952 123.61765 
L 349.25204 122.037704 
L 351.53984 122.037704 
L 351.69236 123.61765 
L 352.76 123.61765 
L 352.91252 118.877812 
L 353.98016 118.877812 
L 354.13268 122.037704 
L 356.42048 122.037704 
L 356.573 123.61765 
L 357.64064 123.61765 
L 357.79316 125.197596 
L 358.8608 125.197596 
L 359.01332 126.777542 
L 360.08096 126.777542 
L 360.23348 125.197596 
L 361.30112 125.197596 
L 361.45364 123.61765 
L 364.9616 123.61765 
L 365.11412 126.777542 
L 367.40192 126.777542 
L 367.55444 125.197596 
L 368.62208 125.197596 
L 368.7746 123.61765 
L 369.84224 123.61765 
L 369.99476 120.457758 
L 371.0624 120.457758 
L 371.21492 122.037704 
L 372.28256 122.037704 
L 372.43508 123.61765 
L 373.50272 123.61765 
L 373.65524 125.197596 
L 374.72288 125.197596 
L 374.8754 123.61765 
L 378.38336 123.61765 
L 378.53588 122.037704 
L 379.60352 122.037704 
L 379.75604 125.197596 
L 380.82368 125.197596 
L 380.9762 123.61765 
L 382.04384 123.61765 
L 382.19636 125.197596 
L 383.264 125.197596 
L 383.41652 128.357487 
L 384.48416 128.357487 
L 384.63668 126.777542 
L 385.70432 126.777542 
L 385.85684 123.61765 
L 386.92448 123.61765 
L 387.077 122.037704 
L 388.14464 122.037704 
L 388.29716 123.61765 
L 389.3648 123.61765 
L 389.51732 125.197596 
L 390.58496 125.197596 
L 390.73748 126.777542 
L 391.80512 126.777542 
L 391.95764 128.357487 
L 393.02528 128.357487 
L 393.1778 126.777542 
L 394.24544 126.777542 
L 394.39796 125.197596 
L 396.68576 125.197596 
L 396.83828 126.777542 
L 397.90592 126.777542 
L 398.05844 125.197596 
L 399.12608 125.197596 
L 399.2786 126.777542 
L 402.78656 126.777542 
L 402.93908 125.197596 
L 404.00672 125.197596 
L 404.15924 122.037704 
L 405.22688 122.037704 
L 405.3794 123.61765 
L 406.44704 123.61765 
L 406.59956 126.777542 
L 410.10752 126.777542 
L 410.26004 125.197596 
L 411.32768 125.197596 
L 411.4802 123.61765 
L 413.768 123.61765 
L 413.92052 125.197596 
L 414.98816 125.197596 
L 415.14068 126.777542 
L 416.20832 126.777542 
L 416.36084 125.197596 
L 418.64864 125.197596 
L 418.80116 126.777542 
L 419.8688 126.777542 
L 420.02132 125.197596 
L 421.08896 125.197596 
L 421.24148 123.61765 
L 422.30912 123.61765 
L 422.46164 125.197596 
L 423.52928 125.197596 
L 423.6818 123.61765 
L 425.9696 123.61765 
L 426.12212 125.197596 
L 427.18976 125.197596 
L 427.34228 126.777542 
L 428.40992 126.777542 
L 428.56244 125.197596 
L 433.29056 125.197596 
L 433.44308 126.777542 
L 435.73088 126.777542 
L 435.8834 125.197596 
L 436.95104 125.197596 
L 437.10356 123.61765 
L 439.39136 123.61765 
L 439.54388 126.777542 
L 443.05184 126.777542 
L 443.20436 125.197596 
L 444.272 125.197596 
L 444.42452 126.777542 
L 446.71232 126.777542 
L 446.86484 125.197596 
L 447.93248 125.197596 
L 448.085 126.777542 
L 449.15264 126.777542 
L 449.30516 125.197596 
L 450.3728 125.197596 
L 450.52532 129.937433 
L 451.59296 129.937433 
L 451.74548 126.777542 
L 452.81312 126.777542 
L 452.96564 125.197596 
L 456.4736 125.197596 
L 456.62612 128.357487 
L 457.69376 128.357487 
L 457.84628 126.777542 
L 461.35424 126.777542 
L 461.50676 123.61765 
L 463.79456 123.61765 
L 463.94708 125.197596 
L 471.11552 125.197596 
L 471.26804 123.61765 
L 472.33568 123.61765 
L 472.4882 125.197596 
L 473.55584 125.197596 
L 473.70836 126.777542 
L 474.776 126.777542 
L 474.92852 125.197596 
L 475.99616 125.197596 
L 476.14868 126.777542 
L 479.65664 126.777542 
L 479.80916 123.61765 
L 482.09696 123.61765 
L 482.24948 126.777542 
L 488.19776 126.777542 
L 488.35028 125.197596 
L 490.63808 125.197596 
L 490.7906 126.777542 
L 491.85824 126.777542 
L 492.01076 125.197596 
L 496.73888 125.197596 
L 496.8914 123.61765 
L 497.95904 123.61765 
L 498.11156 125.197596 
L 499.1792 125.197596 
L 499.33172 126.777542 
L 500.39936 126.777542 
L 500.55188 125.197596 
L 506.50016 125.197596 
L 506.65268 123.61765 
L 507.72032 123.61765 
L 507.87284 125.197596 
L 508.94048 125.197596 
L 509.093 123.61765 
L 510.16064 123.61765 
L 510.31316 125.197596 
L 511.3808 125.197596 
L 511.53332 123.61765 
L 515.04128 123.61765 
L 515.1938 122.037704 
L 516.26144 122.037704 
L 516.41396 128.357487 
L 517.4816 128.357487 
L 517.63412 126.777542 
L 518.70176 126.777542 
L 518.85428 122.037704 
L 521.14208 122.037704 
L 521.2946 120.457758 
L 522.36224 120.457758 
L 522.51476 122.037704 
L 524.80256 122.037704 
L 524.80256 122.037704 
" style="fill:none;stroke:#2ca02c;stroke-linecap:square;stroke-width:1.5;"/>
   </g>
   <g id="line2d_14">
    <path clip-path="url(#p342482295e)" d="M 79.495 148.896784 
L 81.88448 148.896784 
L 82.037 152.056676 
L 83.10464 152.056676 
L 83.25716 150.47673 
L 85.54496 150.47673 
L 85.69748 152.056676 
L 87.98528 152.056676 
L 88.1378 148.896784 
L 89.20544 148.896784 
L 89.35796 150.47673 
L 90.4256 150.47673 
L 90.57812 153.636622 
L 91.64576 153.636622 
L 91.79828 158.376459 
L 94.08608 158.376459 
L 94.2386 156.796513 
L 95.30624 156.796513 
L 95.45876 155.216568 
L 96.5264 155.216568 
L 96.67892 150.47673 
L 98.96672 150.47673 
L 99.11924 155.216568 
L 100.18688 155.216568 
L 100.3394 158.376459 
L 101.40704 158.376459 
L 101.55956 159.956405 
L 103.84736 159.956405 
L 103.99988 156.796513 
L 105.06752 156.796513 
L 105.22004 152.056676 
L 106.28768 152.056676 
L 106.4402 153.636622 
L 107.50784 153.636622 
L 107.66036 158.376459 
L 108.728 158.376459 
L 108.88052 161.536351 
L 112.38848 161.536351 
L 112.541 155.216568 
L 113.60864 155.216568 
L 113.76116 152.056676 
L 114.8288 152.056676 
L 114.98132 153.636622 
L 116.04896 153.636622 
L 116.20148 156.796513 
L 117.26912 156.796513 
L 117.42164 161.536351 
L 118.48928 161.536351 
L 118.6418 163.116297 
L 120.9296 163.116297 
L 121.08212 158.376459 
L 122.14976 158.376459 
L 122.30228 153.636622 
L 123.36992 153.636622 
L 123.52244 155.216568 
L 124.59008 155.216568 
L 124.7426 159.956405 
L 125.81024 159.956405 
L 125.96276 163.116297 
L 129.47072 163.116297 
L 129.62324 159.956405 
L 130.69088 159.956405 
L 130.8434 155.216568 
L 131.91104 155.216568 
L 132.06356 156.796513 
L 133.1312 156.796513 
L 133.28372 159.956405 
L 134.35136 159.956405 
L 134.50388 163.116297 
L 138.01184 163.116297 
L 138.16436 159.956405 
L 139.232 159.956405 
L 139.38452 155.216568 
L 140.45216 155.216568 
L 140.60468 156.796513 
L 141.67232 156.796513 
L 141.82484 161.536351 
L 142.89248 161.536351 
L 143.045 163.116297 
L 146.55296 163.116297 
L 146.70548 158.376459 
L 147.77312 158.376459 
L 147.92564 155.216568 
L 148.99328 155.216568 
L 149.1458 156.796513 
L 150.21344 156.796513 
L 150.36596 159.956405 
L 151.4336 159.956405 
L 151.58612 163.116297 
L 155.09408 163.116297 
L 155.2466 159.956405 
L 156.31424 159.956405 
L 156.46676 155.216568 
L 157.5344 155.216568 
L 157.68692 156.796513 
L 158.75456 156.796513 
L 158.90708 161.536351 
L 159.97472 161.536351 
L 160.12724 163.116297 
L 163.6352 163.116297 
L 163.78772 159.956405 
L 164.85536 159.956405 
L 165.00788 155.216568 
L 166.07552 155.216568 
L 166.22804 158.376459 
L 167.29568 158.376459 
L 167.4482 163.116297 
L 168.51584 163.116297 
L 168.66836 164.696243 
L 169.736 164.696243 
L 169.88852 163.116297 
L 172.17632 163.116297 
L 172.32884 158.376459 
L 173.39648 158.376459 
L 173.549 153.636622 
L 175.8368 153.636622 
L 175.98932 156.796513 
L 177.05696 156.796513 
L 177.20948 158.376459 
L 178.27712 158.376459 
L 178.42964 156.796513 
L 179.49728 156.796513 
L 179.6498 155.216568 
L 180.71744 155.216568 
L 180.86996 156.796513 
L 183.15776 156.796513 
L 183.31028 158.376459 
L 184.37792 158.376459 
L 184.53044 159.956405 
L 185.59808 159.956405 
L 185.7506 161.536351 
L 186.81824 161.536351 
L 186.97076 163.116297 
L 189.25856 163.116297 
L 189.41108 158.376459 
L 190.47872 158.376459 
L 190.63124 152.056676 
L 192.91904 152.056676 
L 193.07156 158.376459 
L 194.1392 158.376459 
L 194.29172 159.956405 
L 195.35936 159.956405 
L 195.51188 161.536351 
L 196.57952 161.536351 
L 196.73204 164.696243 
L 197.79968 164.696243 
L 197.9522 159.956405 
L 199.01984 159.956405 
L 199.17236 155.216568 
L 200.24 155.216568 
L 200.39252 158.376459 
L 201.46016 158.376459 
L 201.61268 163.116297 
L 203.90048 163.116297 
L 204.053 164.696243 
L 206.3408 164.696243 
L 206.49332 161.536351 
L 207.56096 161.536351 
L 207.71348 156.796513 
L 208.78112 156.796513 
L 208.93364 159.956405 
L 210.00128 159.956405 
L 210.1538 163.116297 
L 211.22144 163.116297 
L 211.37396 164.696243 
L 213.66176 164.696243 
L 213.81428 163.116297 
L 214.88192 163.116297 
L 215.03444 159.956405 
L 216.10208 159.956405 
L 216.2546 155.216568 
L 217.32224 155.216568 
L 217.47476 158.376459 
L 218.5424 158.376459 
L 218.69492 161.536351 
L 219.76256 161.536351 
L 219.91508 163.116297 
L 223.42304 163.116297 
L 223.57556 158.376459 
L 224.6432 158.376459 
L 224.79572 155.216568 
L 225.86336 155.216568 
L 226.01588 156.796513 
L 227.08352 156.796513 
L 227.23604 161.536351 
L 228.30368 161.536351 
L 228.4562 163.116297 
L 231.96416 163.116297 
L 232.11668 159.956405 
L 233.18432 159.956405 
L 233.33684 155.216568 
L 234.40448 155.216568 
L 234.557 156.796513 
L 235.62464 156.796513 
L 235.77716 161.536351 
L 238.06496 161.536351 
L 238.21748 163.116297 
L 240.50528 163.116297 
L 240.6578 159.956405 
L 241.72544 159.956405 
L 241.87796 156.796513 
L 242.9456 156.796513 
L 243.09812 158.376459 
L 244.16576 158.376459 
L 244.31828 161.536351 
L 245.38592 161.536351 
L 245.53844 163.116297 
L 246.60608 163.116297 
L 246.7586 164.696243 
L 247.82624 164.696243 
L 247.97876 163.116297 
L 249.0464 163.116297 
L 249.19892 159.956405 
L 250.26656 159.956405 
L 250.41908 156.796513 
L 251.48672 156.796513 
L 251.63924 159.956405 
L 252.70688 159.956405 
L 252.8594 163.116297 
L 255.1472 163.116297 
L 255.29972 164.696243 
L 256.36736 164.696243 
L 256.51988 163.116297 
L 257.58752 163.116297 
L 257.74004 159.956405 
L 258.80768 159.956405 
L 258.9602 156.796513 
L 260.02784 156.796513 
L 260.18036 159.956405 
L 261.248 159.956405 
L 261.40052 163.116297 
L 263.68832 163.116297 
L 263.84084 164.696243 
L 264.90848 164.696243 
L 265.061 163.116297 
L 266.12864 163.116297 
L 266.28116 159.956405 
L 267.3488 159.956405 
L 267.50132 155.216568 
L 268.56896 155.216568 
L 268.72148 156.796513 
L 269.78912 156.796513 
L 269.94164 161.536351 
L 271.00928 161.536351 
L 271.1618 163.116297 
L 274.66976 163.116297 
L 274.82228 158.376459 
L 275.88992 158.376459 
L 276.04244 153.636622 
L 277.11008 153.636622 
L 277.2626 155.216568 
L 278.33024 155.216568 
L 278.48276 159.956405 
L 279.5504 159.956405 
L 279.70292 161.536351 
L 281.99072 161.536351 
L 282.14324 159.956405 
L 283.21088 159.956405 
L 283.3634 156.796513 
L 284.43104 156.796513 
L 284.58356 155.216568 
L 286.87136 155.216568 
L 287.02388 158.376459 
L 288.09152 158.376459 
L 288.24404 159.956405 
L 290.53184 159.956405 
L 290.68436 158.376459 
L 291.752 158.376459 
L 291.90452 156.796513 
L 292.97216 156.796513 
L 293.12468 153.636622 
L 294.19232 153.636622 
L 294.34484 155.216568 
L 295.41248 155.216568 
L 295.565 158.376459 
L 296.63264 158.376459 
L 296.78516 159.956405 
L 297.8528 159.956405 
L 298.00532 158.376459 
L 300.29312 158.376459 
L 300.44564 155.216568 
L 301.51328 155.216568 
L 301.6658 153.636622 
L 302.73344 153.636622 
L 302.88596 155.216568 
L 305.17376 155.216568 
L 305.32628 156.796513 
L 308.83424 156.796513 
L 308.98676 155.216568 
L 310.0544 155.216568 
L 310.20692 152.056676 
L 311.27456 152.056676 
L 311.42708 153.636622 
L 312.49472 153.636622 
L 312.64724 156.796513 
L 314.93504 156.796513 
L 315.08756 158.376459 
L 317.37536 158.376459 
L 317.52788 156.796513 
L 318.59552 156.796513 
L 318.74804 152.056676 
L 319.81568 152.056676 
L 319.9682 153.636622 
L 321.03584 153.636622 
L 321.18836 156.796513 
L 325.91648 156.796513 
L 326.069 153.636622 
L 327.13664 153.636622 
L 327.28916 152.056676 
L 329.57696 152.056676 
L 329.72948 155.216568 
L 330.79712 155.216568 
L 330.94964 156.796513 
L 334.4576 156.796513 
L 334.61012 153.636622 
L 335.67776 153.636622 
L 335.83028 152.056676 
L 336.89792 152.056676 
L 337.05044 153.636622 
L 338.11808 153.636622 
L 338.2706 156.796513 
L 342.99872 156.796513 
L 343.15124 155.216568 
L 344.21888 155.216568 
L 344.3714 153.636622 
L 346.6592 153.636622 
L 346.81172 156.796513 
L 347.87936 156.796513 
L 348.03188 159.956405 
L 349.09952 159.956405 
L 349.25204 158.376459 
L 351.53984 158.376459 
L 351.69236 155.216568 
L 352.76 155.216568 
L 352.91252 152.056676 
L 355.20032 152.056676 
L 355.35284 158.376459 
L 356.42048 158.376459 
L 356.573 161.536351 
L 360.08096 161.536351 
L 360.23348 158.376459 
L 361.30112 158.376459 
L 361.45364 155.216568 
L 362.52128 155.216568 
L 362.6738 156.796513 
L 363.74144 156.796513 
L 363.89396 161.536351 
L 364.9616 161.536351 
L 365.11412 164.696243 
L 368.62208 164.696243 
L 368.7746 161.536351 
L 369.84224 161.536351 
L 369.99476 156.796513 
L 371.0624 156.796513 
L 371.21492 158.376459 
L 372.28256 158.376459 
L 372.43508 163.116297 
L 373.50272 163.116297 
L 373.65524 164.696243 
L 374.72288 164.696243 
L 374.8754 166.276189 
L 375.94304 166.276189 
L 376.09556 164.696243 
L 377.1632 164.696243 
L 377.31572 161.536351 
L 378.38336 161.536351 
L 378.53588 155.216568 
L 379.60352 155.216568 
L 379.75604 159.956405 
L 380.82368 159.956405 
L 380.9762 163.116297 
L 382.04384 163.116297 
L 382.19636 164.696243 
L 385.70432 164.696243 
L 385.85684 161.536351 
L 386.92448 161.536351 
L 387.077 155.216568 
L 388.14464 155.216568 
L 388.29716 158.376459 
L 389.3648 158.376459 
L 389.51732 161.536351 
L 390.58496 161.536351 
L 390.73748 164.696243 
L 393.02528 164.696243 
L 393.1778 161.536351 
L 394.24544 161.536351 
L 394.39796 156.796513 
L 395.4656 156.796513 
L 395.61812 155.216568 
L 396.68576 155.216568 
L 396.83828 156.796513 
L 397.90592 156.796513 
L 398.05844 161.536351 
L 399.12608 161.536351 
L 399.2786 164.696243 
L 402.78656 164.696243 
L 402.93908 161.536351 
L 404.00672 161.536351 
L 404.15924 155.216568 
L 405.22688 155.216568 
L 405.3794 158.376459 
L 406.44704 158.376459 
L 406.59956 163.116297 
L 407.6672 163.116297 
L 407.81972 164.696243 
L 410.10752 164.696243 
L 410.26004 163.116297 
L 411.32768 163.116297 
L 411.4802 158.376459 
L 412.54784 158.376459 
L 412.70036 155.216568 
L 413.768 155.216568 
L 413.92052 156.796513 
L 414.98816 156.796513 
L 415.14068 161.536351 
L 416.20832 161.536351 
L 416.36084 163.116297 
L 419.8688 163.116297 
L 420.02132 159.956405 
L 421.08896 159.956405 
L 421.24148 153.636622 
L 422.30912 153.636622 
L 422.46164 155.216568 
L 423.52928 155.216568 
L 423.6818 159.956405 
L 424.74944 159.956405 
L 424.90196 161.536351 
L 425.9696 161.536351 
L 426.12212 163.116297 
L 427.18976 163.116297 
L 427.34228 161.536351 
L 428.40992 161.536351 
L 428.56244 158.376459 
L 429.63008 158.376459 
L 429.7826 153.636622 
L 430.85024 153.636622 
L 431.00276 155.216568 
L 432.0704 155.216568 
L 432.22292 161.536351 
L 433.29056 161.536351 
L 433.44308 163.116297 
L 436.95104 163.116297 
L 437.10356 158.376459 
L 438.1712 158.376459 
L 438.32372 153.636622 
L 439.39136 153.636622 
L 439.54388 156.796513 
L 440.61152 156.796513 
L 440.76404 161.536351 
L 441.83168 161.536351 
L 441.9842 163.116297 
L 444.272 163.116297 
L 444.42452 161.536351 
L 445.49216 161.536351 
L 445.64468 158.376459 
L 446.71232 158.376459 
L 446.86484 153.636622 
L 447.93248 153.636622 
L 448.085 155.216568 
L 449.15264 155.216568 
L 449.30516 158.376459 
L 450.3728 158.376459 
L 450.52532 159.956405 
L 452.81312 159.956405 
L 452.96564 161.536351 
L 454.03328 161.536351 
L 454.1858 158.376459 
L 455.25344 158.376459 
L 455.40596 153.636622 
L 456.4736 153.636622 
L 456.62612 155.216568 
L 457.69376 155.216568 
L 457.84628 159.956405 
L 458.91392 159.956405 
L 459.06644 163.116297 
L 461.35424 163.116297 
L 461.50676 161.536351 
L 462.5744 161.536351 
L 462.72692 156.796513 
L 463.79456 156.796513 
L 463.94708 152.056676 
L 465.01472 152.056676 
L 465.16724 153.636622 
L 466.23488 153.636622 
L 466.3874 158.376459 
L 467.45504 158.376459 
L 467.60756 161.536351 
L 469.89536 161.536351 
L 470.04788 159.956405 
L 471.11552 159.956405 
L 471.26804 156.796513 
L 472.33568 156.796513 
L 472.4882 152.056676 
L 473.55584 152.056676 
L 473.70836 153.636622 
L 474.776 153.636622 
L 474.92852 156.796513 
L 475.99616 156.796513 
L 476.14868 161.536351 
L 478.43648 161.536351 
L 478.589 159.956405 
L 479.65664 159.956405 
L 479.80916 155.216568 
L 480.8768 155.216568 
L 481.02932 152.056676 
L 482.09696 152.056676 
L 482.24948 153.636622 
L 483.31712 153.636622 
L 483.46964 158.376459 
L 484.53728 158.376459 
L 484.6898 161.536351 
L 485.75744 161.536351 
L 485.90996 159.956405 
L 488.19776 159.956405 
L 488.35028 156.796513 
L 489.41792 156.796513 
L 489.57044 150.47673 
L 490.63808 150.47673 
L 490.7906 152.056676 
L 491.85824 152.056676 
L 492.01076 156.796513 
L 493.0784 156.796513 
L 493.23092 158.376459 
L 494.29856 158.376459 
L 494.45108 156.796513 
L 496.73888 156.796513 
L 496.8914 153.636622 
L 497.95904 153.636622 
L 498.11156 148.896784 
L 499.1792 148.896784 
L 499.33172 150.47673 
L 500.39936 150.47673 
L 500.55188 153.636622 
L 505.28 153.636622 
L 505.43252 150.47673 
L 506.50016 150.47673 
L 506.65268 147.316838 
L 508.94048 147.316838 
L 509.093 148.896784 
L 510.16064 148.896784 
L 510.31316 150.47673 
L 511.3808 150.47673 
L 511.53332 148.896784 
L 512.60096 148.896784 
L 512.75348 147.316838 
L 515.04128 147.316838 
L 515.1938 145.736892 
L 517.4816 145.736892 
L 517.63412 148.896784 
L 518.70176 148.896784 
L 518.85428 147.316838 
L 519.92192 147.316838 
L 520.07444 148.896784 
L 521.14208 148.896784 
L 521.2946 147.316838 
L 522.36224 147.316838 
L 522.51476 145.736892 
L 524.80256 145.736892 
L 524.80256 145.736892 
" style="fill:none;stroke:#d62728;stroke-linecap:square;stroke-width:1.5;"/>
   </g>
   <g id="line2d_15">
    <path clip-path="url(#p342482295e)" d="M 79.495 71.479435 
L 81.88448 71.479435 
L 82.037 74.639327 
L 83.10464 74.639327 
L 83.25716 73.059381 
L 85.54496 73.059381 
L 85.69748 76.219273 
L 87.98528 76.219273 
L 88.1378 73.059381 
L 90.4256 73.059381 
L 90.57812 77.799219 
L 91.64576 77.799219 
L 91.79828 85.698948 
L 94.08608 85.698948 
L 94.2386 84.119003 
L 95.30624 84.119003 
L 95.45876 79.379165 
L 96.5264 79.379165 
L 96.67892 73.059381 
L 97.74656 73.059381 
L 97.89908 74.639327 
L 98.96672 74.639327 
L 99.11924 79.379165 
L 100.18688 79.379165 
L 100.3394 85.698948 
L 101.40704 85.698948 
L 101.55956 88.85884 
L 102.6272 88.85884 
L 102.77972 87.278894 
L 103.84736 87.278894 
L 103.99988 82.539057 
L 105.06752 82.539057 
L 105.22004 74.639327 
L 106.28768 74.639327 
L 106.4402 76.219273 
L 107.50784 76.219273 
L 107.66036 84.119003 
L 108.728 84.119003 
L 108.88052 92.018732 
L 111.16832 92.018732 
L 111.32084 90.438786 
L 112.38848 90.438786 
L 112.541 80.959111 
L 113.60864 80.959111 
L 113.76116 76.219273 
L 114.8288 76.219273 
L 114.98132 77.799219 
L 116.04896 77.799219 
L 116.20148 82.539057 
L 117.26912 82.539057 
L 117.42164 90.438786 
L 118.48928 90.438786 
L 118.6418 93.598678 
L 119.70944 93.598678 
L 119.86196 95.178624 
L 120.9296 95.178624 
L 121.08212 85.698948 
L 122.14976 85.698948 
L 122.30228 76.219273 
L 123.36992 76.219273 
L 123.52244 79.379165 
L 124.59008 79.379165 
L 124.7426 87.278894 
L 125.81024 87.278894 
L 125.96276 95.178624 
L 129.47072 95.178624 
L 129.62324 87.278894 
L 130.69088 87.278894 
L 130.8434 79.379165 
L 131.91104 79.379165 
L 132.06356 80.959111 
L 133.1312 80.959111 
L 133.28372 87.278894 
L 134.35136 87.278894 
L 134.50388 93.598678 
L 135.57152 93.598678 
L 135.72404 96.75857 
L 138.01184 96.75857 
L 138.16436 88.85884 
L 139.232 88.85884 
L 139.38452 79.379165 
L 140.45216 79.379165 
L 140.60468 82.539057 
L 141.67232 82.539057 
L 141.82484 90.438786 
L 142.89248 90.438786 
L 143.045 96.75857 
L 145.3328 96.75857 
L 145.48532 93.598678 
L 146.55296 93.598678 
L 146.70548 85.698948 
L 147.77312 85.698948 
L 147.92564 79.379165 
L 148.99328 79.379165 
L 149.1458 82.539057 
L 150.21344 82.539057 
L 150.36596 88.85884 
L 151.4336 88.85884 
L 151.58612 95.178624 
L 155.09408 95.178624 
L 155.2466 88.85884 
L 156.31424 88.85884 
L 156.46676 80.959111 
L 157.5344 80.959111 
L 157.68692 82.539057 
L 158.75456 82.539057 
L 158.90708 90.438786 
L 159.97472 90.438786 
L 160.12724 96.75857 
L 162.41504 96.75857 
L 162.56756 95.178624 
L 163.6352 95.178624 
L 163.78772 88.85884 
L 164.85536 88.85884 
L 165.00788 80.959111 
L 166.07552 80.959111 
L 166.22804 84.119003 
L 167.29568 84.119003 
L 167.4482 93.598678 
L 168.51584 93.598678 
L 168.66836 96.75857 
L 169.736 96.75857 
L 169.88852 95.178624 
L 172.17632 95.178624 
L 172.32884 85.698948 
L 173.39648 85.698948 
L 173.549 77.799219 
L 174.61664 77.799219 
L 174.76916 76.219273 
L 175.8368 76.219273 
L 175.98932 82.539057 
L 177.05696 82.539057 
L 177.20948 84.119003 
L 178.27712 84.119003 
L 178.42964 80.959111 
L 181.9376 80.959111 
L 182.09012 82.539057 
L 183.15776 82.539057 
L 183.31028 84.119003 
L 184.37792 84.119003 
L 184.53044 88.85884 
L 185.59808 88.85884 
L 185.7506 90.438786 
L 186.81824 90.438786 
L 186.97076 95.178624 
L 188.0384 95.178624 
L 188.19092 93.598678 
L 189.25856 93.598678 
L 189.41108 84.119003 
L 190.47872 84.119003 
L 190.63124 73.059381 
L 191.69888 73.059381 
L 191.8514 74.639327 
L 192.91904 74.639327 
L 193.07156 82.539057 
L 194.1392 82.539057 
L 194.29172 88.85884 
L 195.35936 88.85884 
L 195.51188 90.438786 
L 196.57952 90.438786 
L 196.73204 98.338516 
L 197.79968 98.338516 
L 197.9522 88.85884 
L 199.01984 88.85884 
L 199.17236 80.959111 
L 200.24 80.959111 
L 200.39252 85.698948 
L 201.46016 85.698948 
L 201.61268 93.598678 
L 202.68032 93.598678 
L 202.83284 96.75857 
L 203.90048 96.75857 
L 204.053 98.338516 
L 206.3408 98.338516 
L 206.49332 90.438786 
L 207.56096 90.438786 
L 207.71348 82.539057 
L 208.78112 82.539057 
L 208.93364 87.278894 
L 210.00128 87.278894 
L 210.1538 93.598678 
L 211.22144 93.598678 
L 211.37396 98.338516 
L 213.66176 98.338516 
L 213.81428 95.178624 
L 214.88192 95.178624 
L 215.03444 87.278894 
L 216.10208 87.278894 
L 216.2546 80.959111 
L 217.32224 80.959111 
L 217.47476 84.119003 
L 218.5424 84.119003 
L 218.69492 92.018732 
L 219.76256 92.018732 
L 219.91508 95.178624 
L 220.98272 95.178624 
L 221.13524 96.75857 
L 222.20288 96.75857 
L 222.3554 93.598678 
L 223.42304 93.598678 
L 223.57556 85.698948 
L 224.6432 85.698948 
L 224.79572 79.379165 
L 225.86336 79.379165 
L 226.01588 82.539057 
L 227.08352 82.539057 
L 227.23604 90.438786 
L 228.30368 90.438786 
L 228.4562 95.178624 
L 230.744 95.178624 
L 230.89652 93.598678 
L 231.96416 93.598678 
L 232.11668 87.278894 
L 233.18432 87.278894 
L 233.33684 80.959111 
L 234.40448 80.959111 
L 234.557 82.539057 
L 235.62464 82.539057 
L 235.77716 90.438786 
L 236.8448 90.438786 
L 236.99732 92.018732 
L 238.06496 92.018732 
L 238.21748 96.75857 
L 240.50528 96.75857 
L 240.6578 87.278894 
L 241.72544 87.278894 
L 241.87796 80.959111 
L 242.9456 80.959111 
L 243.09812 84.119003 
L 244.16576 84.119003 
L 244.31828 92.018732 
L 245.38592 92.018732 
L 245.53844 95.178624 
L 246.60608 95.178624 
L 246.7586 96.75857 
L 247.82624 96.75857 
L 247.97876 95.178624 
L 249.0464 95.178624 
L 249.19892 88.85884 
L 250.26656 88.85884 
L 250.41908 82.539057 
L 251.48672 82.539057 
L 251.63924 87.278894 
L 252.70688 87.278894 
L 252.8594 93.598678 
L 253.92704 93.598678 
L 254.07956 96.75857 
L 256.36736 96.75857 
L 256.51988 95.178624 
L 257.58752 95.178624 
L 257.74004 87.278894 
L 258.80768 87.278894 
L 258.9602 82.539057 
L 260.02784 82.539057 
L 260.18036 87.278894 
L 261.248 87.278894 
L 261.40052 93.598678 
L 262.46816 93.598678 
L 262.62068 96.75857 
L 263.68832 96.75857 
L 263.84084 98.338516 
L 264.90848 98.338516 
L 265.061 96.75857 
L 266.12864 96.75857 
L 266.28116 87.278894 
L 267.3488 87.278894 
L 267.50132 80.959111 
L 268.56896 80.959111 
L 268.72148 82.539057 
L 269.78912 82.539057 
L 269.94164 92.018732 
L 271.00928 92.018732 
L 271.1618 96.75857 
L 272.22944 96.75857 
L 272.38196 95.178624 
L 273.4496 95.178624 
L 273.60212 93.598678 
L 274.66976 93.598678 
L 274.82228 85.698948 
L 275.88992 85.698948 
L 276.04244 77.799219 
L 277.11008 77.799219 
L 277.2626 80.959111 
L 278.33024 80.959111 
L 278.48276 88.85884 
L 279.5504 88.85884 
L 279.70292 92.018732 
L 281.99072 92.018732 
L 282.14324 88.85884 
L 283.21088 88.85884 
L 283.3634 82.539057 
L 284.43104 82.539057 
L 284.58356 80.959111 
L 285.6512 80.959111 
L 285.80372 79.379165 
L 286.87136 79.379165 
L 287.02388 85.698948 
L 288.09152 85.698948 
L 288.24404 87.278894 
L 290.53184 87.278894 
L 290.68436 85.698948 
L 291.752 85.698948 
L 291.90452 80.959111 
L 292.97216 80.959111 
L 293.12468 77.799219 
L 294.19232 77.799219 
L 294.34484 80.959111 
L 295.41248 80.959111 
L 295.565 84.119003 
L 296.63264 84.119003 
L 296.78516 87.278894 
L 297.8528 87.278894 
L 298.00532 85.698948 
L 299.07296 85.698948 
L 299.22548 84.119003 
L 300.29312 84.119003 
L 300.44564 79.379165 
L 301.51328 79.379165 
L 301.6658 77.799219 
L 302.73344 77.799219 
L 302.88596 79.379165 
L 303.9536 79.379165 
L 304.10612 80.959111 
L 305.17376 80.959111 
L 305.32628 82.539057 
L 306.39392 82.539057 
L 306.54644 80.959111 
L 308.83424 80.959111 
L 308.98676 77.799219 
L 310.0544 77.799219 
L 310.20692 73.059381 
L 311.27456 73.059381 
L 311.42708 76.219273 
L 312.49472 76.219273 
L 312.64724 80.959111 
L 313.71488 80.959111 
L 313.8674 84.119003 
L 317.37536 84.119003 
L 317.52788 80.959111 
L 318.59552 80.959111 
L 318.74804 74.639327 
L 319.81568 74.639327 
L 319.9682 76.219273 
L 321.03584 76.219273 
L 321.18836 82.539057 
L 323.47616 82.539057 
L 323.62868 80.959111 
L 325.91648 80.959111 
L 326.069 77.799219 
L 327.13664 77.799219 
L 327.28916 74.639327 
L 329.57696 74.639327 
L 329.72948 79.379165 
L 330.79712 79.379165 
L 330.94964 80.959111 
L 334.4576 80.959111 
L 334.61012 77.799219 
L 335.67776 77.799219 
L 335.83028 76.219273 
L 338.11808 76.219273 
L 338.2706 80.959111 
L 339.33824 80.959111 
L 339.49076 82.539057 
L 340.5584 82.539057 
L 340.71092 84.119003 
L 341.77856 84.119003 
L 341.93108 82.539057 
L 342.99872 82.539057 
L 343.15124 79.379165 
L 344.21888 79.379165 
L 344.3714 76.219273 
L 345.43904 76.219273 
L 345.59156 77.799219 
L 346.6592 77.799219 
L 346.81172 82.539057 
L 347.87936 82.539057 
L 348.03188 85.698948 
L 350.31968 85.698948 
L 350.4722 84.119003 
L 351.53984 84.119003 
L 351.69236 79.379165 
L 352.76 79.379165 
L 352.91252 74.639327 
L 355.20032 74.639327 
L 355.35284 85.698948 
L 356.42048 85.698948 
L 356.573 90.438786 
L 357.64064 90.438786 
L 357.79316 92.018732 
L 360.08096 92.018732 
L 360.23348 85.698948 
L 361.30112 85.698948 
L 361.45364 80.959111 
L 362.52128 80.959111 
L 362.6738 82.539057 
L 363.74144 82.539057 
L 363.89396 90.438786 
L 364.9616 90.438786 
L 365.11412 98.338516 
L 366.18176 98.338516 
L 366.33428 99.918461 
L 368.62208 99.918461 
L 368.7746 90.438786 
L 369.84224 90.438786 
L 369.99476 82.539057 
L 371.0624 82.539057 
L 371.21492 85.698948 
L 372.28256 85.698948 
L 372.43508 95.178624 
L 373.50272 95.178624 
L 373.65524 99.918461 
L 374.72288 99.918461 
L 374.8754 101.498407 
L 375.94304 101.498407 
L 376.09556 99.918461 
L 377.1632 99.918461 
L 377.31572 90.438786 
L 378.38336 90.438786 
L 378.53588 79.379165 
L 379.60352 79.379165 
L 379.75604 87.278894 
L 380.82368 87.278894 
L 380.9762 93.598678 
L 382.04384 93.598678 
L 382.19636 99.918461 
L 383.264 99.918461 
L 383.41652 101.498407 
L 384.48416 101.498407 
L 384.63668 99.918461 
L 385.70432 99.918461 
L 385.85684 90.438786 
L 386.92448 90.438786 
L 387.077 79.379165 
L 388.14464 79.379165 
L 388.29716 84.119003 
L 389.3648 84.119003 
L 389.51732 93.598678 
L 390.58496 93.598678 
L 390.73748 98.338516 
L 393.02528 98.338516 
L 393.1778 90.438786 
L 394.24544 90.438786 
L 394.39796 82.539057 
L 395.4656 82.539057 
L 395.61812 79.379165 
L 396.68576 79.379165 
L 396.83828 82.539057 
L 397.90592 82.539057 
L 398.05844 92.018732 
L 399.12608 92.018732 
L 399.2786 98.338516 
L 401.5664 98.338516 
L 401.71892 96.75857 
L 402.78656 96.75857 
L 402.93908 90.438786 
L 404.00672 90.438786 
L 404.15924 80.959111 
L 405.22688 80.959111 
L 405.3794 84.119003 
L 406.44704 84.119003 
L 406.59956 93.598678 
L 407.6672 93.598678 
L 407.81972 98.338516 
L 408.88736 98.338516 
L 409.03988 96.75857 
L 410.10752 96.75857 
L 410.26004 95.178624 
L 411.32768 95.178624 
L 411.4802 85.698948 
L 412.54784 85.698948 
L 412.70036 79.379165 
L 413.768 79.379165 
L 413.92052 82.539057 
L 414.98816 82.539057 
L 415.14068 90.438786 
L 416.20832 90.438786 
L 416.36084 95.178624 
L 417.42848 95.178624 
L 417.581 96.75857 
L 418.64864 96.75857 
L 418.80116 95.178624 
L 419.8688 95.178624 
L 420.02132 88.85884 
L 421.08896 88.85884 
L 421.24148 77.799219 
L 422.30912 77.799219 
L 422.46164 79.379165 
L 423.52928 79.379165 
L 423.6818 87.278894 
L 424.74944 87.278894 
L 424.90196 92.018732 
L 425.9696 92.018732 
L 426.12212 93.598678 
L 428.40992 93.598678 
L 428.56244 87.278894 
L 429.63008 87.278894 
L 429.7826 77.799219 
L 430.85024 77.799219 
L 431.00276 80.959111 
L 432.0704 80.959111 
L 432.22292 90.438786 
L 433.29056 90.438786 
L 433.44308 95.178624 
L 434.51072 95.178624 
L 434.66324 96.75857 
L 435.73088 96.75857 
L 435.8834 93.598678 
L 436.95104 93.598678 
L 437.10356 85.698948 
L 438.1712 85.698948 
L 438.32372 77.799219 
L 439.39136 77.799219 
L 439.54388 82.539057 
L 440.61152 82.539057 
L 440.76404 92.018732 
L 441.83168 92.018732 
L 441.9842 95.178624 
L 444.272 95.178624 
L 444.42452 92.018732 
L 445.49216 92.018732 
L 445.64468 84.119003 
L 446.71232 84.119003 
L 446.86484 77.799219 
L 447.93248 77.799219 
L 448.085 79.379165 
L 449.15264 79.379165 
L 449.30516 85.698948 
L 450.3728 85.698948 
L 450.52532 88.85884 
L 452.81312 88.85884 
L 452.96564 90.438786 
L 454.03328 90.438786 
L 454.1858 85.698948 
L 455.25344 85.698948 
L 455.40596 77.799219 
L 456.4736 77.799219 
L 456.62612 80.959111 
L 457.69376 80.959111 
L 457.84628 88.85884 
L 458.91392 88.85884 
L 459.06644 93.598678 
L 460.13408 93.598678 
L 460.2866 95.178624 
L 461.35424 95.178624 
L 461.50676 90.438786 
L 462.5744 90.438786 
L 462.72692 82.539057 
L 463.79456 82.539057 
L 463.94708 76.219273 
L 465.01472 76.219273 
L 465.16724 77.799219 
L 466.23488 77.799219 
L 466.3874 85.698948 
L 467.45504 85.698948 
L 467.60756 90.438786 
L 469.89536 90.438786 
L 470.04788 88.85884 
L 471.11552 88.85884 
L 471.26804 82.539057 
L 472.33568 82.539057 
L 472.4882 74.639327 
L 473.55584 74.639327 
L 473.70836 77.799219 
L 474.776 77.799219 
L 474.92852 82.539057 
L 475.99616 82.539057 
L 476.14868 90.438786 
L 477.21632 90.438786 
L 477.36884 92.018732 
L 478.43648 92.018732 
L 478.589 88.85884 
L 479.65664 88.85884 
L 479.80916 80.959111 
L 480.8768 80.959111 
L 481.02932 76.219273 
L 482.09696 76.219273 
L 482.24948 77.799219 
L 483.31712 77.799219 
L 483.46964 85.698948 
L 484.53728 85.698948 
L 484.6898 90.438786 
L 485.75744 90.438786 
L 485.90996 88.85884 
L 486.9776 88.85884 
L 487.13012 87.278894 
L 488.19776 87.278894 
L 488.35028 80.959111 
L 489.41792 80.959111 
L 489.57044 73.059381 
L 490.63808 73.059381 
L 490.7906 76.219273 
L 491.85824 76.219273 
L 492.01076 80.959111 
L 493.0784 80.959111 
L 493.23092 84.119003 
L 494.29856 84.119003 
L 494.45108 80.959111 
L 496.73888 80.959111 
L 496.8914 77.799219 
L 497.95904 77.799219 
L 498.11156 71.479435 
L 499.1792 71.479435 
L 499.33172 73.059381 
L 500.39936 73.059381 
L 500.55188 76.219273 
L 501.61952 76.219273 
L 501.77204 77.799219 
L 504.05984 77.799219 
L 504.21236 76.219273 
L 505.28 76.219273 
L 505.43252 73.059381 
L 506.50016 73.059381 
L 506.65268 69.89949 
L 508.94048 69.89949 
L 509.093 71.479435 
L 510.16064 71.479435 
L 510.31316 73.059381 
L 511.3808 73.059381 
L 511.53332 71.479435 
L 512.60096 71.479435 
L 512.75348 69.89949 
L 513.82112 69.89949 
L 513.97364 68.319544 
L 515.04128 68.319544 
L 515.1938 66.739598 
L 517.4816 66.739598 
L 517.63412 71.479435 
L 518.70176 71.479435 
L 518.85428 68.319544 
L 519.92192 68.319544 
L 520.07444 69.89949 
L 521.14208 69.89949 
L 521.2946 68.319544 
L 523.5824 68.319544 
L 523.73492 66.739598 
L 524.80256 66.739598 
L 524.80256 66.739598 
" style="fill:none;stroke:#9467bd;stroke-linecap:square;stroke-width:1.5;"/>
   </g>
   <g id="patch_3">
    <path d="M 79.495 231.478594 
L 79.495 14.038594 
" style="fill:none;stroke:#000000;stroke-linecap:square;stroke-linejoin:miter;stroke-width:0.8;"/>
   </g>
   <g id="patch_4">
    <path d="M 537.055 231.478594 
L 537.055 14.038594 
" style="fill:none;stroke:#000000;stroke-linecap:square;stroke-linejoin:miter;stroke-width:0.8;"/>
   </g>
   <g id="patch_5">
    <path d="M 79.495 231.478594 
L 537.055 231.478594 
" style="fill:none;stroke:#000000;stroke-linecap:square;stroke-linejoin:miter;stroke-width:0.8;"/>
   </g>
   <g id="patch_6">
    <path d="M 79.495 14.038594 
L 537.055 14.038594 
" style="fill:none;stroke:#000000;stroke-linecap:square;stroke-linejoin:miter;stroke-width:0.8;"/>
   </g>
   <g id="legend_1">
    <g id="patch_7">
     <path d="M 87.895 225.478594 
L 528.42625 225.478594 
Q 530.82625 225.478594 530.82625 223.078594 
L 530.82625 206.331094 
Q 530.82625 203.931094 528.42625 203.931094 
L 87.895 203.931094 
Q 85.495 203.931094 85.495 206.331094 
L 85.495 223.078594 
Q 85.495 225.478594 87.895 225.478594 
z
" style="fill:#ffffff;opacity:0.8;stroke:#cccccc;stroke-linejoin:miter;"/>
    </g>
    <g id="line2d_16">
     <path d="M 90.295 213.649219 
L 114.295 213.649219 
" style="fill:none;stroke:#1f77b4;stroke-linecap:square;stroke-width:1.5;"/>
    </g>
    <g id="line2d_17"/>
    <g id="text_13">
     <!-- sin_rl -->
     <defs>
      <path d="M 9.421875 54.6875 
L 18.40625 54.6875 
L 18.40625 0 
L 9.421875 0 
z
M 9.421875 75.984375 
L 18.40625 75.984375 
L 18.40625 64.59375 
L 9.421875 64.59375 
z
" id="DejaVuSans-105"/>
      <path d="M 54.890625 33.015625 
L 54.890625 0 
L 45.90625 0 
L 45.90625 32.71875 
Q 45.90625 40.484375 42.875 44.328125 
Q 39.84375 48.1875 33.796875 48.1875 
Q 26.515625 48.1875 22.3125 43.546875 
Q 18.109375 38.921875 18.109375 30.90625 
L 18.109375 0 
L 9.078125 0 
L 9.078125 54.6875 
L 18.109375 54.6875 
L 18.109375 46.1875 
Q 21.34375 51.125 25.703125 53.5625 
Q 30.078125 56 35.796875 56 
Q 45.21875 56 50.046875 50.171875 
Q 54.890625 44.34375 54.890625 33.015625 
z
" id="DejaVuSans-110"/>
      <path d="M 50.984375 -16.609375 
L 50.984375 -23.578125 
L -0.984375 -23.578125 
L -0.984375 -16.609375 
z
" id="DejaVuSans-95"/>
      <path d="M 9.421875 75.984375 
L 18.40625 75.984375 
L 18.40625 0 
L 9.421875 0 
z
" id="DejaVuSans-108"/>
     </defs>
     <g transform="translate(123.895 217.849219)scale(0.12 -0.12)">
      <use xlink:href="#DejaVuSans-115"/>
      <use x="52.099609" xlink:href="#DejaVuSans-105"/>
      <use x="79.882812" xlink:href="#DejaVuSans-110"/>
      <use x="143.261719" xlink:href="#DejaVuSans-95"/>
      <use x="193.261719" xlink:href="#DejaVuSans-114"/>
      <use x="234.375" xlink:href="#DejaVuSans-108"/>
     </g>
    </g>
    <g id="line2d_18">
     <path d="M 179.351875 213.649219 
L 203.351875 213.649219 
" style="fill:none;stroke:#ff7f0e;stroke-linecap:square;stroke-width:1.5;"/>
    </g>
    <g id="line2d_19"/>
    <g id="text_14">
     <!-- sfo_rl -->
     <defs>
      <path d="M 37.109375 75.984375 
L 37.109375 68.5 
L 28.515625 68.5 
Q 23.6875 68.5 21.796875 66.546875 
Q 19.921875 64.59375 19.921875 59.515625 
L 19.921875 54.6875 
L 34.71875 54.6875 
L 34.71875 47.703125 
L 19.921875 47.703125 
L 19.921875 0 
L 10.890625 0 
L 10.890625 47.703125 
L 2.296875 47.703125 
L 2.296875 54.6875 
L 10.890625 54.6875 
L 10.890625 58.5 
Q 10.890625 67.625 15.140625 71.796875 
Q 19.390625 75.984375 28.609375 75.984375 
z
" id="DejaVuSans-102"/>
     </defs>
     <g transform="translate(212.951875 217.849219)scale(0.12 -0.12)">
      <use xlink:href="#DejaVuSans-115"/>
      <use x="52.099609" xlink:href="#DejaVuSans-102"/>
      <use x="87.304688" xlink:href="#DejaVuSans-111"/>
      <use x="148.486328" xlink:href="#DejaVuSans-95"/>
      <use x="198.486328" xlink:href="#DejaVuSans-114"/>
      <use x="239.599609" xlink:href="#DejaVuSans-108"/>
     </g>
    </g>
    <g id="line2d_20">
     <path d="M 269.036875 213.649219 
L 293.036875 213.649219 
" style="fill:none;stroke:#2ca02c;stroke-linecap:square;stroke-width:1.5;"/>
    </g>
    <g id="line2d_21"/>
    <g id="text_15">
     <!-- ams_rl -->
     <g transform="translate(302.636875 217.849219)scale(0.12 -0.12)">
      <use xlink:href="#DejaVuSans-97"/>
      <use x="61.279297" xlink:href="#DejaVuSans-109"/>
      <use x="158.691406" xlink:href="#DejaVuSans-115"/>
      <use x="210.791016" xlink:href="#DejaVuSans-95"/>
      <use x="260.791016" xlink:href="#DejaVuSans-114"/>
      <use x="301.904297" xlink:href="#DejaVuSans-108"/>
     </g>
    </g>
    <g id="line2d_22">
     <path d="M 366.1975 213.649219 
L 390.1975 213.649219 
" style="fill:none;stroke:#d62728;stroke-linecap:square;stroke-width:1.5;"/>
    </g>
    <g id="line2d_23"/>
    <g id="text_16">
     <!-- car_rl -->
     <defs>
      <path d="M 48.78125 52.59375 
L 48.78125 44.1875 
Q 44.96875 46.296875 41.140625 47.34375 
Q 37.3125 48.390625 33.40625 48.390625 
Q 24.65625 48.390625 19.8125 42.84375 
Q 14.984375 37.3125 14.984375 27.296875 
Q 14.984375 17.28125 19.8125 11.734375 
Q 24.65625 6.203125 33.40625 6.203125 
Q 37.3125 6.203125 41.140625 7.25 
Q 44.96875 8.296875 48.78125 10.40625 
L 48.78125 2.09375 
Q 45.015625 0.34375 40.984375 -0.53125 
Q 36.96875 -1.421875 32.421875 -1.421875 
Q 20.0625 -1.421875 12.78125 6.34375 
Q 5.515625 14.109375 5.515625 27.296875 
Q 5.515625 40.671875 12.859375 48.328125 
Q 20.21875 56 33.015625 56 
Q 37.15625 56 41.109375 55.140625 
Q 45.0625 54.296875 48.78125 52.59375 
z
" id="DejaVuSans-99"/>
     </defs>
     <g transform="translate(399.7975 217.849219)scale(0.12 -0.12)">
      <use xlink:href="#DejaVuSans-99"/>
      <use x="54.980469" xlink:href="#DejaVuSans-97"/>
      <use x="116.259766" xlink:href="#DejaVuSans-114"/>
      <use x="157.373047" xlink:href="#DejaVuSans-95"/>
      <use x="207.373047" xlink:href="#DejaVuSans-114"/>
      <use x="248.486328" xlink:href="#DejaVuSans-108"/>
     </g>
    </g>
    <g id="line2d_24">
     <path d="M 456.949375 213.649219 
L 480.949375 213.649219 
" style="fill:none;stroke:#9467bd;stroke-linecap:square;stroke-width:1.5;"/>
    </g>
    <g id="line2d_25"/>
    <g id="text_17">
     <!-- ash_rl -->
     <defs>
      <path d="M 54.890625 33.015625 
L 54.890625 0 
L 45.90625 0 
L 45.90625 32.71875 
Q 45.90625 40.484375 42.875 44.328125 
Q 39.84375 48.1875 33.796875 48.1875 
Q 26.515625 48.1875 22.3125 43.546875 
Q 18.109375 38.921875 18.109375 30.90625 
L 18.109375 0 
L 9.078125 0 
L 9.078125 75.984375 
L 18.109375 75.984375 
L 18.109375 46.1875 
Q 21.34375 51.125 25.703125 53.5625 
Q 30.078125 56 35.796875 56 
Q 45.21875 56 50.046875 50.171875 
Q 54.890625 44.34375 54.890625 33.015625 
z
" id="DejaVuSans-104"/>
     </defs>
     <g transform="translate(490.549375 217.849219)scale(0.12 -0.12)">
      <use xlink:href="#DejaVuSans-97"/>
      <use x="61.279297" xlink:href="#DejaVuSans-115"/>
      <use x="113.378906" xlink:href="#DejaVuSans-104"/>
      <use x="176.757812" xlink:href="#DejaVuSans-95"/>
      <use x="226.757812" xlink:href="#DejaVuSans-114"/>
      <use x="267.871094" xlink:href="#DejaVuSans-108"/>
     </g>
    </g>
   </g>
  </g>
 </g>
 <defs>
  <clipPath id="p342482295e">
   <rect height="217.44" width="457.56" x="79.495" y="14.038594"/>
  </clipPath>
 </defs>
</svg>
