<?xml version="1.0" encoding="utf-8" standalone="no"?>
<!DOCTYPE svg PUBLIC "-//W3C//DTD SVG 1.1//EN"
  "http://www.w3.org/Graphics/SVG/1.1/DTD/svg11.dtd">
<!-- Created with matplotlib (https://matplotlib.org/) -->
<svg height="277.68125pt" version="1.1" viewBox="0 0 511.833125 277.68125" width="511.833125pt" xmlns="http://www.w3.org/2000/svg" xmlns:xlink="http://www.w3.org/1999/xlink">
 <defs>
  <style type="text/css">
*{stroke-linecap:butt;stroke-linejoin:round;}
  </style>
 </defs>
 <g id="figure_1">
  <g id="patch_1">
   <path d="M -0 277.68125 
L 511.833125 277.68125 
L 511.833125 0 
L -0 0 
z
" style="fill:#ffffff;"/>
  </g>
  <g id="axes_1">
   <g id="patch_2">
    <path d="M 47.073125 224.64 
L 504.633125 224.64 
L 504.633125 7.2 
L 47.073125 7.2 
z
" style="fill:#ffffff;"/>
   </g>
   <g id="matplotlib.axis_1">
    <g id="xtick_1">
     <g id="line2d_1">
      <defs>
       <path d="M 0 0 
L 0 3.5 
" id="m30ba6c8ec4" style="stroke:#000000;stroke-width:0.8;"/>
      </defs>
      <g>
       <use style="stroke:#000000;stroke-width:0.8;" x="47.073125" xlink:href="#m30ba6c8ec4" y="224.64"/>
      </g>
     </g>
     <g id="text_1">
      <!-- 0 -->
      <defs>
       <path d="M 31.78125 66.40625 
Q 24.171875 66.40625 20.328125 58.90625 
Q 16.5 51.421875 16.5 36.375 
Q 16.5 21.390625 20.328125 13.890625 
Q 24.171875 6.390625 31.78125 6.390625 
Q 39.453125 6.390625 43.28125 13.890625 
Q 47.125 21.390625 47.125 36.375 
Q 47.125 51.421875 43.28125 58.90625 
Q 39.453125 66.40625 31.78125 66.40625 
z
M 31.78125 74.21875 
Q 44.046875 74.21875 50.515625 64.515625 
Q 56.984375 54.828125 56.984375 36.375 
Q 56.984375 17.96875 50.515625 8.265625 
Q 44.046875 -1.421875 31.78125 -1.421875 
Q 19.53125 -1.421875 13.0625 8.265625 
Q 6.59375 17.96875 6.59375 36.375 
Q 6.59375 54.828125 13.0625 64.515625 
Q 19.53125 74.21875 31.78125 74.21875 
z
" id="DejaVuSans-48"/>
      </defs>
      <g transform="translate(41.346875 245.317187)scale(0.18 -0.18)">
       <use xlink:href="#DejaVuSans-48"/>
      </g>
     </g>
    </g>
    <g id="xtick_2">
     <g id="line2d_2">
      <g>
       <use style="stroke:#000000;stroke-width:0.8;" x="148.753125" xlink:href="#m30ba6c8ec4" y="224.64"/>
      </g>
     </g>
     <g id="text_2">
      <!-- 2000 -->
      <defs>
       <path d="M 19.1875 8.296875 
L 53.609375 8.296875 
L 53.609375 0 
L 7.328125 0 
L 7.328125 8.296875 
Q 12.9375 14.109375 22.625 23.890625 
Q 32.328125 33.6875 34.8125 36.53125 
Q 39.546875 41.84375 41.421875 45.53125 
Q 43.3125 49.21875 43.3125 52.78125 
Q 43.3125 58.59375 39.234375 62.25 
Q 35.15625 65.921875 28.609375 65.921875 
Q 23.96875 65.921875 18.8125 64.3125 
Q 13.671875 62.703125 7.8125 59.421875 
L 7.8125 69.390625 
Q 13.765625 71.78125 18.9375 73 
Q 24.125 74.21875 28.421875 74.21875 
Q 39.75 74.21875 46.484375 68.546875 
Q 53.21875 62.890625 53.21875 53.421875 
Q 53.21875 48.921875 51.53125 44.890625 
Q 49.859375 40.875 45.40625 35.40625 
Q 44.1875 33.984375 37.640625 27.21875 
Q 31.109375 20.453125 19.1875 8.296875 
z
" id="DejaVuSans-50"/>
      </defs>
      <g transform="translate(125.848125 245.317187)scale(0.18 -0.18)">
       <use xlink:href="#DejaVuSans-50"/>
       <use x="63.623047" xlink:href="#DejaVuSans-48"/>
       <use x="127.246094" xlink:href="#DejaVuSans-48"/>
       <use x="190.869141" xlink:href="#DejaVuSans-48"/>
      </g>
     </g>
    </g>
    <g id="xtick_3">
     <g id="line2d_3">
      <g>
       <use style="stroke:#000000;stroke-width:0.8;" x="250.433125" xlink:href="#m30ba6c8ec4" y="224.64"/>
      </g>
     </g>
     <g id="text_3">
      <!-- 4000 -->
      <defs>
       <path d="M 37.796875 64.3125 
L 12.890625 25.390625 
L 37.796875 25.390625 
z
M 35.203125 72.90625 
L 47.609375 72.90625 
L 47.609375 25.390625 
L 58.015625 25.390625 
L 58.015625 17.1875 
L 47.609375 17.1875 
L 47.609375 0 
L 37.796875 0 
L 37.796875 17.1875 
L 4.890625 17.1875 
L 4.890625 26.703125 
z
" id="DejaVuSans-52"/>
      </defs>
      <g transform="translate(227.528125 245.317187)scale(0.18 -0.18)">
       <use xlink:href="#DejaVuSans-52"/>
       <use x="63.623047" xlink:href="#DejaVuSans-48"/>
       <use x="127.246094" xlink:href="#DejaVuSans-48"/>
       <use x="190.869141" xlink:href="#DejaVuSans-48"/>
      </g>
     </g>
    </g>
    <g id="xtick_4">
     <g id="line2d_4">
      <g>
       <use style="stroke:#000000;stroke-width:0.8;" x="352.113125" xlink:href="#m30ba6c8ec4" y="224.64"/>
      </g>
     </g>
     <g id="text_4">
      <!-- 6000 -->
      <defs>
       <path d="M 33.015625 40.375 
Q 26.375 40.375 22.484375 35.828125 
Q 18.609375 31.296875 18.609375 23.390625 
Q 18.609375 15.53125 22.484375 10.953125 
Q 26.375 6.390625 33.015625 6.390625 
Q 39.65625 6.390625 43.53125 10.953125 
Q 47.40625 15.53125 47.40625 23.390625 
Q 47.40625 31.296875 43.53125 35.828125 
Q 39.65625 40.375 33.015625 40.375 
z
M 52.59375 71.296875 
L 52.59375 62.3125 
Q 48.875 64.0625 45.09375 64.984375 
Q 41.3125 65.921875 37.59375 65.921875 
Q 27.828125 65.921875 22.671875 59.328125 
Q 17.53125 52.734375 16.796875 39.40625 
Q 19.671875 43.65625 24.015625 45.921875 
Q 28.375 48.1875 33.59375 48.1875 
Q 44.578125 48.1875 50.953125 41.515625 
Q 57.328125 34.859375 57.328125 23.390625 
Q 57.328125 12.15625 50.6875 5.359375 
Q 44.046875 -1.421875 33.015625 -1.421875 
Q 20.359375 -1.421875 13.671875 8.265625 
Q 6.984375 17.96875 6.984375 36.375 
Q 6.984375 53.65625 15.1875 63.9375 
Q 23.390625 74.21875 37.203125 74.21875 
Q 40.921875 74.21875 44.703125 73.484375 
Q 48.484375 72.75 52.59375 71.296875 
z
" id="DejaVuSans-54"/>
      </defs>
      <g transform="translate(329.208125 245.317187)scale(0.18 -0.18)">
       <use xlink:href="#DejaVuSans-54"/>
       <use x="63.623047" xlink:href="#DejaVuSans-48"/>
       <use x="127.246094" xlink:href="#DejaVuSans-48"/>
       <use x="190.869141" xlink:href="#DejaVuSans-48"/>
      </g>
     </g>
    </g>
    <g id="xtick_5">
     <g id="line2d_5">
      <g>
       <use style="stroke:#000000;stroke-width:0.8;" x="453.793125" xlink:href="#m30ba6c8ec4" y="224.64"/>
      </g>
     </g>
     <g id="text_5">
      <!-- 8000 -->
      <defs>
       <path d="M 31.78125 34.625 
Q 24.75 34.625 20.71875 30.859375 
Q 16.703125 27.09375 16.703125 20.515625 
Q 16.703125 13.921875 20.71875 10.15625 
Q 24.75 6.390625 31.78125 6.390625 
Q 38.8125 6.390625 42.859375 10.171875 
Q 46.921875 13.96875 46.921875 20.515625 
Q 46.921875 27.09375 42.890625 30.859375 
Q 38.875 34.625 31.78125 34.625 
z
M 21.921875 38.8125 
Q 15.578125 40.375 12.03125 44.71875 
Q 8.5 49.078125 8.5 55.328125 
Q 8.5 64.0625 14.71875 69.140625 
Q 20.953125 74.21875 31.78125 74.21875 
Q 42.671875 74.21875 48.875 69.140625 
Q 55.078125 64.0625 55.078125 55.328125 
Q 55.078125 49.078125 51.53125 44.71875 
Q 48 40.375 41.703125 38.8125 
Q 48.828125 37.15625 52.796875 32.3125 
Q 56.78125 27.484375 56.78125 20.515625 
Q 56.78125 9.90625 50.3125 4.234375 
Q 43.84375 -1.421875 31.78125 -1.421875 
Q 19.734375 -1.421875 13.25 4.234375 
Q 6.78125 9.90625 6.78125 20.515625 
Q 6.78125 27.484375 10.78125 32.3125 
Q 14.796875 37.15625 21.921875 38.8125 
z
M 18.3125 54.390625 
Q 18.3125 48.734375 21.84375 45.5625 
Q 25.390625 42.390625 31.78125 42.390625 
Q 38.140625 42.390625 41.71875 45.5625 
Q 45.3125 48.734375 45.3125 54.390625 
Q 45.3125 60.0625 41.71875 63.234375 
Q 38.140625 66.40625 31.78125 66.40625 
Q 25.390625 66.40625 21.84375 63.234375 
Q 18.3125 60.0625 18.3125 54.390625 
z
" id="DejaVuSans-56"/>
      </defs>
      <g transform="translate(430.888125 245.317187)scale(0.18 -0.18)">
       <use xlink:href="#DejaVuSans-56"/>
       <use x="63.623047" xlink:href="#DejaVuSans-48"/>
       <use x="127.246094" xlink:href="#DejaVuSans-48"/>
       <use x="190.869141" xlink:href="#DejaVuSans-48"/>
      </g>
     </g>
    </g>
    <g id="text_6">
     <!-- Hour (start 01/01) -->
     <defs>
      <path d="M 9.8125 72.90625 
L 19.671875 72.90625 
L 19.671875 43.015625 
L 55.515625 43.015625 
L 55.515625 72.90625 
L 65.375 72.90625 
L 65.375 0 
L 55.515625 0 
L 55.515625 34.71875 
L 19.671875 34.71875 
L 19.671875 0 
L 9.8125 0 
z
" id="DejaVuSans-72"/>
      <path d="M 30.609375 48.390625 
Q 23.390625 48.390625 19.1875 42.75 
Q 14.984375 37.109375 14.984375 27.296875 
Q 14.984375 17.484375 19.15625 11.84375 
Q 23.34375 6.203125 30.609375 6.203125 
Q 37.796875 6.203125 41.984375 11.859375 
Q 46.1875 17.53125 46.1875 27.296875 
Q 46.1875 37.015625 41.984375 42.703125 
Q 37.796875 48.390625 30.609375 48.390625 
z
M 30.609375 56 
Q 42.328125 56 49.015625 48.375 
Q 55.71875 40.765625 55.71875 27.296875 
Q 55.71875 13.875 49.015625 6.21875 
Q 42.328125 -1.421875 30.609375 -1.421875 
Q 18.84375 -1.421875 12.171875 6.21875 
Q 5.515625 13.875 5.515625 27.296875 
Q 5.515625 40.765625 12.171875 48.375 
Q 18.84375 56 30.609375 56 
z
" id="DejaVuSans-111"/>
      <path d="M 8.5 21.578125 
L 8.5 54.6875 
L 17.484375 54.6875 
L 17.484375 21.921875 
Q 17.484375 14.15625 20.5 10.265625 
Q 23.53125 6.390625 29.59375 6.390625 
Q 36.859375 6.390625 41.078125 11.03125 
Q 45.3125 15.671875 45.3125 23.6875 
L 45.3125 54.6875 
L 54.296875 54.6875 
L 54.296875 0 
L 45.3125 0 
L 45.3125 8.40625 
Q 42.046875 3.421875 37.71875 1 
Q 33.40625 -1.421875 27.6875 -1.421875 
Q 18.265625 -1.421875 13.375 4.4375 
Q 8.5 10.296875 8.5 21.578125 
z
M 31.109375 56 
z
" id="DejaVuSans-117"/>
      <path d="M 41.109375 46.296875 
Q 39.59375 47.171875 37.8125 47.578125 
Q 36.03125 48 33.890625 48 
Q 26.265625 48 22.1875 43.046875 
Q 18.109375 38.09375 18.109375 28.8125 
L 18.109375 0 
L 9.078125 0 
L 9.078125 54.6875 
L 18.109375 54.6875 
L 18.109375 46.1875 
Q 20.953125 51.171875 25.484375 53.578125 
Q 30.03125 56 36.53125 56 
Q 37.453125 56 38.578125 55.875 
Q 39.703125 55.765625 41.0625 55.515625 
z
" id="DejaVuSans-114"/>
      <path id="DejaVuSans-32"/>
      <path d="M 31 75.875 
Q 24.46875 64.65625 21.28125 53.65625 
Q 18.109375 42.671875 18.109375 31.390625 
Q 18.109375 20.125 21.3125 9.0625 
Q 24.515625 -2 31 -13.1875 
L 23.1875 -13.1875 
Q 15.875 -1.703125 12.234375 9.375 
Q 8.59375 20.453125 8.59375 31.390625 
Q 8.59375 42.28125 12.203125 53.3125 
Q 15.828125 64.359375 23.1875 75.875 
z
" id="DejaVuSans-40"/>
      <path d="M 44.28125 53.078125 
L 44.28125 44.578125 
Q 40.484375 46.53125 36.375 47.5 
Q 32.28125 48.484375 27.875 48.484375 
Q 21.1875 48.484375 17.84375 46.4375 
Q 14.5 44.390625 14.5 40.28125 
Q 14.5 37.15625 16.890625 35.375 
Q 19.28125 33.59375 26.515625 31.984375 
L 29.59375 31.296875 
Q 39.15625 29.25 43.1875 25.515625 
Q 47.21875 21.78125 47.21875 15.09375 
Q 47.21875 7.46875 41.1875 3.015625 
Q 35.15625 -1.421875 24.609375 -1.421875 
Q 20.21875 -1.421875 15.453125 -0.5625 
Q 10.6875 0.296875 5.421875 2 
L 5.421875 11.28125 
Q 10.40625 8.6875 15.234375 7.390625 
Q 20.0625 6.109375 24.8125 6.109375 
Q 31.15625 6.109375 34.5625 8.28125 
Q 37.984375 10.453125 37.984375 14.40625 
Q 37.984375 18.0625 35.515625 20.015625 
Q 33.0625 21.96875 24.703125 23.78125 
L 21.578125 24.515625 
Q 13.234375 26.265625 9.515625 29.90625 
Q 5.8125 33.546875 5.8125 39.890625 
Q 5.8125 47.609375 11.28125 51.796875 
Q 16.75 56 26.8125 56 
Q 31.78125 56 36.171875 55.265625 
Q 40.578125 54.546875 44.28125 53.078125 
z
" id="DejaVuSans-115"/>
      <path d="M 18.3125 70.21875 
L 18.3125 54.6875 
L 36.8125 54.6875 
L 36.8125 47.703125 
L 18.3125 47.703125 
L 18.3125 18.015625 
Q 18.3125 11.328125 20.140625 9.421875 
Q 21.96875 7.515625 27.59375 7.515625 
L 36.8125 7.515625 
L 36.8125 0 
L 27.59375 0 
Q 17.1875 0 13.234375 3.875 
Q 9.28125 7.765625 9.28125 18.015625 
L 9.28125 47.703125 
L 2.6875 47.703125 
L 2.6875 54.6875 
L 9.28125 54.6875 
L 9.28125 70.21875 
z
" id="DejaVuSans-116"/>
      <path d="M 34.28125 27.484375 
Q 23.390625 27.484375 19.1875 25 
Q 14.984375 22.515625 14.984375 16.5 
Q 14.984375 11.71875 18.140625 8.90625 
Q 21.296875 6.109375 26.703125 6.109375 
Q 34.1875 6.109375 38.703125 11.40625 
Q 43.21875 16.703125 43.21875 25.484375 
L 43.21875 27.484375 
z
M 52.203125 31.203125 
L 52.203125 0 
L 43.21875 0 
L 43.21875 8.296875 
Q 40.140625 3.328125 35.546875 0.953125 
Q 30.953125 -1.421875 24.3125 -1.421875 
Q 15.921875 -1.421875 10.953125 3.296875 
Q 6 8.015625 6 15.921875 
Q 6 25.140625 12.171875 29.828125 
Q 18.359375 34.515625 30.609375 34.515625 
L 43.21875 34.515625 
L 43.21875 35.40625 
Q 43.21875 41.609375 39.140625 45 
Q 35.0625 48.390625 27.6875 48.390625 
Q 23 48.390625 18.546875 47.265625 
Q 14.109375 46.140625 10.015625 43.890625 
L 10.015625 52.203125 
Q 14.9375 54.109375 19.578125 55.046875 
Q 24.21875 56 28.609375 56 
Q 40.484375 56 46.34375 49.84375 
Q 52.203125 43.703125 52.203125 31.203125 
z
" id="DejaVuSans-97"/>
      <path d="M 12.40625 8.296875 
L 28.515625 8.296875 
L 28.515625 63.921875 
L 10.984375 60.40625 
L 10.984375 69.390625 
L 28.421875 72.90625 
L 38.28125 72.90625 
L 38.28125 8.296875 
L 54.390625 8.296875 
L 54.390625 0 
L 12.40625 0 
z
" id="DejaVuSans-49"/>
      <path d="M 25.390625 72.90625 
L 33.6875 72.90625 
L 8.296875 -9.28125 
L 0 -9.28125 
z
" id="DejaVuSans-47"/>
      <path d="M 8.015625 75.875 
L 15.828125 75.875 
Q 23.140625 64.359375 26.78125 53.3125 
Q 30.421875 42.28125 30.421875 31.390625 
Q 30.421875 20.453125 26.78125 9.375 
Q 23.140625 -1.703125 15.828125 -13.1875 
L 8.015625 -13.1875 
Q 14.5 -2 17.703125 9.0625 
Q 20.90625 20.125 20.90625 31.390625 
Q 20.90625 42.671875 17.703125 53.65625 
Q 14.5 64.65625 8.015625 75.875 
z
" id="DejaVuSans-41"/>
     </defs>
     <g style="fill:#696969;" transform="translate(194.533906 266.737812)scale(0.18 -0.18)">
      <use xlink:href="#DejaVuSans-72"/>
      <use x="75.195312" xlink:href="#DejaVuSans-111"/>
      <use x="136.376953" xlink:href="#DejaVuSans-117"/>
      <use x="199.755859" xlink:href="#DejaVuSans-114"/>
      <use x="240.869141" xlink:href="#DejaVuSans-32"/>
      <use x="272.65625" xlink:href="#DejaVuSans-40"/>
      <use x="311.669922" xlink:href="#DejaVuSans-115"/>
      <use x="363.769531" xlink:href="#DejaVuSans-116"/>
      <use x="402.978516" xlink:href="#DejaVuSans-97"/>
      <use x="464.257812" xlink:href="#DejaVuSans-114"/>
      <use x="505.371094" xlink:href="#DejaVuSans-116"/>
      <use x="544.580078" xlink:href="#DejaVuSans-32"/>
      <use x="576.367188" xlink:href="#DejaVuSans-48"/>
      <use x="639.990234" xlink:href="#DejaVuSans-49"/>
      <use x="703.613281" xlink:href="#DejaVuSans-47"/>
      <use x="737.304688" xlink:href="#DejaVuSans-48"/>
      <use x="800.927734" xlink:href="#DejaVuSans-49"/>
      <use x="864.550781" xlink:href="#DejaVuSans-41"/>
     </g>
    </g>
   </g>
   <g id="matplotlib.axis_2">
    <g id="ytick_1">
     <g id="line2d_6">
      <defs>
       <path d="M 0 0 
L -3.5 0 
" id="m64d88b938d" style="stroke:#000000;stroke-width:0.8;"/>
      </defs>
      <g>
       <use style="stroke:#000000;stroke-width:0.8;" x="47.073125" xlink:href="#m64d88b938d" y="224.64"/>
      </g>
     </g>
     <g id="text_7">
      <!-- 2 -->
      <g transform="translate(28.620625 231.478594)scale(0.18 -0.18)">
       <use xlink:href="#DejaVuSans-50"/>
      </g>
     </g>
    </g>
    <g id="ytick_2">
     <g id="line2d_7">
      <g>
       <use style="stroke:#000000;stroke-width:0.8;" x="47.073125" xlink:href="#m64d88b938d" y="162.514286"/>
      </g>
     </g>
     <g id="text_8">
      <!-- 4 -->
      <g transform="translate(28.620625 169.352879)scale(0.18 -0.18)">
       <use xlink:href="#DejaVuSans-52"/>
      </g>
     </g>
    </g>
    <g id="ytick_3">
     <g id="line2d_8">
      <g>
       <use style="stroke:#000000;stroke-width:0.8;" x="47.073125" xlink:href="#m64d88b938d" y="100.388571"/>
      </g>
     </g>
     <g id="text_9">
      <!-- 6 -->
      <g transform="translate(28.620625 107.227165)scale(0.18 -0.18)">
       <use xlink:href="#DejaVuSans-54"/>
      </g>
     </g>
    </g>
    <g id="ytick_4">
     <g id="line2d_9">
      <g>
       <use style="stroke:#000000;stroke-width:0.8;" x="47.073125" xlink:href="#m64d88b938d" y="38.262857"/>
      </g>
     </g>
     <g id="text_10">
      <!-- 8 -->
      <g transform="translate(28.620625 45.101451)scale(0.18 -0.18)">
       <use xlink:href="#DejaVuSans-56"/>
      </g>
     </g>
    </g>
    <g id="text_11">
     <!-- CPU Pwr [x 100000 W] -->
     <defs>
      <path d="M 64.40625 67.28125 
L 64.40625 56.890625 
Q 59.421875 61.53125 53.78125 63.8125 
Q 48.140625 66.109375 41.796875 66.109375 
Q 29.296875 66.109375 22.65625 58.46875 
Q 16.015625 50.828125 16.015625 36.375 
Q 16.015625 21.96875 22.65625 14.328125 
Q 29.296875 6.6875 41.796875 6.6875 
Q 48.140625 6.6875 53.78125 8.984375 
Q 59.421875 11.28125 64.40625 15.921875 
L 64.40625 5.609375 
Q 59.234375 2.09375 53.4375 0.328125 
Q 47.65625 -1.421875 41.21875 -1.421875 
Q 24.65625 -1.421875 15.125 8.703125 
Q 5.609375 18.84375 5.609375 36.375 
Q 5.609375 53.953125 15.125 64.078125 
Q 24.65625 74.21875 41.21875 74.21875 
Q 47.75 74.21875 53.53125 72.484375 
Q 59.328125 70.75 64.40625 67.28125 
z
" id="DejaVuSans-67"/>
      <path d="M 19.671875 64.796875 
L 19.671875 37.40625 
L 32.078125 37.40625 
Q 38.96875 37.40625 42.71875 40.96875 
Q 46.484375 44.53125 46.484375 51.125 
Q 46.484375 57.671875 42.71875 61.234375 
Q 38.96875 64.796875 32.078125 64.796875 
z
M 9.8125 72.90625 
L 32.078125 72.90625 
Q 44.34375 72.90625 50.609375 67.359375 
Q 56.890625 61.8125 56.890625 51.125 
Q 56.890625 40.328125 50.609375 34.8125 
Q 44.34375 29.296875 32.078125 29.296875 
L 19.671875 29.296875 
L 19.671875 0 
L 9.8125 0 
z
" id="DejaVuSans-80"/>
      <path d="M 8.6875 72.90625 
L 18.609375 72.90625 
L 18.609375 28.609375 
Q 18.609375 16.890625 22.84375 11.734375 
Q 27.09375 6.59375 36.625 6.59375 
Q 46.09375 6.59375 50.34375 11.734375 
Q 54.59375 16.890625 54.59375 28.609375 
L 54.59375 72.90625 
L 64.5 72.90625 
L 64.5 27.390625 
Q 64.5 13.140625 57.4375 5.859375 
Q 50.390625 -1.421875 36.625 -1.421875 
Q 22.796875 -1.421875 15.734375 5.859375 
Q 8.6875 13.140625 8.6875 27.390625 
z
" id="DejaVuSans-85"/>
      <path d="M 4.203125 54.6875 
L 13.1875 54.6875 
L 24.421875 12.015625 
L 35.59375 54.6875 
L 46.1875 54.6875 
L 57.421875 12.015625 
L 68.609375 54.6875 
L 77.59375 54.6875 
L 63.28125 0 
L 52.6875 0 
L 40.921875 44.828125 
L 29.109375 0 
L 18.5 0 
z
" id="DejaVuSans-119"/>
      <path d="M 8.59375 75.984375 
L 29.296875 75.984375 
L 29.296875 69 
L 17.578125 69 
L 17.578125 -6.203125 
L 29.296875 -6.203125 
L 29.296875 -13.1875 
L 8.59375 -13.1875 
z
" id="DejaVuSans-91"/>
      <path d="M 54.890625 54.6875 
L 35.109375 28.078125 
L 55.90625 0 
L 45.3125 0 
L 29.390625 21.484375 
L 13.484375 0 
L 2.875 0 
L 24.125 28.609375 
L 4.6875 54.6875 
L 15.28125 54.6875 
L 29.78125 35.203125 
L 44.28125 54.6875 
z
" id="DejaVuSans-120"/>
      <path d="M 3.328125 72.90625 
L 13.28125 72.90625 
L 28.609375 11.28125 
L 43.890625 72.90625 
L 54.984375 72.90625 
L 70.3125 11.28125 
L 85.59375 72.90625 
L 95.609375 72.90625 
L 77.296875 0 
L 64.890625 0 
L 49.515625 63.28125 
L 33.984375 0 
L 21.578125 0 
z
" id="DejaVuSans-87"/>
      <path d="M 30.421875 75.984375 
L 30.421875 -13.1875 
L 9.71875 -13.1875 
L 9.71875 -6.203125 
L 21.390625 -6.203125 
L 21.390625 69 
L 9.71875 69 
L 9.71875 75.984375 
z
" id="DejaVuSans-93"/>
     </defs>
     <g style="fill:#696969;" transform="translate(20.877187 217.752187)rotate(-90)scale(0.18 -0.18)">
      <use xlink:href="#DejaVuSans-67"/>
      <use x="69.824219" xlink:href="#DejaVuSans-80"/>
      <use x="130.126953" xlink:href="#DejaVuSans-85"/>
      <use x="203.320312" xlink:href="#DejaVuSans-32"/>
      <use x="235.107422" xlink:href="#DejaVuSans-80"/>
      <use x="295.410156" xlink:href="#DejaVuSans-119"/>
      <use x="377.197266" xlink:href="#DejaVuSans-114"/>
      <use x="418.310547" xlink:href="#DejaVuSans-32"/>
      <use x="450.097656" xlink:href="#DejaVuSans-91"/>
      <use x="489.111328" xlink:href="#DejaVuSans-120"/>
      <use x="548.291016" xlink:href="#DejaVuSans-32"/>
      <use x="580.078125" xlink:href="#DejaVuSans-49"/>
      <use x="643.701172" xlink:href="#DejaVuSans-48"/>
      <use x="707.324219" xlink:href="#DejaVuSans-48"/>
      <use x="770.947266" xlink:href="#DejaVuSans-48"/>
      <use x="834.570312" xlink:href="#DejaVuSans-48"/>
      <use x="898.193359" xlink:href="#DejaVuSans-48"/>
      <use x="961.816406" xlink:href="#DejaVuSans-32"/>
      <use x="993.603516" xlink:href="#DejaVuSans-87"/>
      <use x="1092.480469" xlink:href="#DejaVuSans-93"/>
     </g>
    </g>
   </g>
   <g id="line2d_10">
    <path clip-path="url(#pd881a6a353)" d="M 47.073125 135.248615 
L 51.902925 135.248615 
L 52.055445 133.94999 
L 53.123085 133.94999 
L 53.275605 135.248615 
L 55.563405 135.248615 
L 55.715925 137.845865 
L 56.783565 137.845865 
L 56.936085 136.54724 
L 58.003725 136.54724 
L 58.156245 133.94999 
L 61.664205 133.94999 
L 61.816725 132.651364 
L 62.884365 132.651364 
L 63.036885 133.94999 
L 64.104525 133.94999 
L 64.257045 136.54724 
L 65.324685 136.54724 
L 65.477205 135.248615 
L 66.544845 135.248615 
L 66.697365 131.352739 
L 67.765005 131.352739 
L 67.917525 132.651364 
L 68.985165 132.651364 
L 69.137685 133.94999 
L 72.645645 133.94999 
L 72.798165 135.248615 
L 73.865805 135.248615 
L 74.018325 133.94999 
L 75.085965 133.94999 
L 75.238485 130.054114 
L 76.306125 130.054114 
L 76.458645 132.651364 
L 79.966605 132.651364 
L 80.119125 133.94999 
L 81.186765 133.94999 
L 81.339285 136.54724 
L 82.406925 136.54724 
L 82.559445 133.94999 
L 83.627085 133.94999 
L 83.779605 131.352739 
L 84.847245 131.352739 
L 84.999765 133.94999 
L 86.067405 133.94999 
L 86.219925 139.14449 
L 87.287565 139.14449 
L 87.440085 132.651364 
L 88.507725 132.651364 
L 88.660245 133.94999 
L 90.948045 133.94999 
L 91.100565 132.651364 
L 92.168205 132.651364 
L 92.320725 130.054114 
L 93.388365 130.054114 
L 93.540885 132.651364 
L 95.828685 132.651364 
L 95.981205 136.54724 
L 97.048845 136.54724 
L 97.201365 135.248615 
L 98.269005 135.248615 
L 98.421525 137.845865 
L 99.489165 137.845865 
L 99.641685 136.54724 
L 100.709325 136.54724 
L 100.861845 130.054114 
L 103.149645 130.054114 
L 103.302165 131.352739 
L 104.369805 131.352739 
L 104.522325 132.651364 
L 106.810125 132.651364 
L 106.962645 135.248615 
L 108.030285 135.248615 
L 108.182805 133.94999 
L 109.250445 133.94999 
L 109.402965 130.054114 
L 110.470605 130.054114 
L 110.623125 132.651364 
L 112.910925 132.651364 
L 113.063445 131.352739 
L 115.351245 131.352739 
L 115.503765 135.248615 
L 116.571405 135.248615 
L 116.723925 133.94999 
L 117.791565 133.94999 
L 117.944085 128.755489 
L 120.231885 128.755489 
L 120.384405 130.054114 
L 122.672205 130.054114 
L 122.824725 131.352739 
L 123.892365 131.352739 
L 124.044885 135.248615 
L 125.112525 135.248615 
L 125.265045 132.651364 
L 126.332685 132.651364 
L 126.485205 131.352739 
L 127.552845 131.352739 
L 127.705365 132.651364 
L 128.773005 132.651364 
L 128.925525 133.94999 
L 129.993165 133.94999 
L 130.145685 132.651364 
L 131.213325 132.651364 
L 131.365845 133.94999 
L 132.433485 133.94999 
L 132.586005 136.54724 
L 134.873805 136.54724 
L 135.026325 133.94999 
L 137.314125 133.94999 
L 137.466645 132.651364 
L 138.534285 132.651364 
L 138.686805 133.94999 
L 139.754445 133.94999 
L 139.906965 135.248615 
L 140.974605 135.248615 
L 141.127125 137.845865 
L 142.194765 137.845865 
L 142.347285 135.248615 
L 144.635085 135.248615 
L 144.787605 132.651364 
L 149.515725 132.651364 
L 149.668245 133.94999 
L 150.735885 133.94999 
L 150.888405 135.248615 
L 151.956045 135.248615 
L 152.108565 131.352739 
L 154.396365 131.352739 
L 154.548885 132.651364 
L 158.056845 132.651364 
L 158.209365 130.054114 
L 159.277005 130.054114 
L 159.429525 128.755489 
L 161.717325 128.755489 
L 161.869845 127.456863 
L 164.157645 127.456863 
L 164.310165 135.248615 
L 165.377805 135.248615 
L 165.530325 132.651364 
L 166.597965 132.651364 
L 166.750485 136.54724 
L 169.038285 136.54724 
L 169.190805 131.352739 
L 170.258445 131.352739 
L 170.410965 132.651364 
L 171.478605 132.651364 
L 171.631125 133.94999 
L 172.698765 133.94999 
L 172.851285 135.248615 
L 175.139085 135.248615 
L 175.291605 137.845865 
L 177.579405 137.845865 
L 177.731925 133.94999 
L 183.680205 133.94999 
L 183.832725 136.54724 
L 186.120525 136.54724 
L 186.273045 132.651364 
L 188.560845 132.651364 
L 188.713365 133.94999 
L 191.001165 133.94999 
L 191.153685 136.54724 
L 193.441485 136.54724 
L 193.594005 135.248615 
L 194.661645 135.248615 
L 194.814165 132.651364 
L 195.881805 132.651364 
L 196.034325 136.54724 
L 198.322125 136.54724 
L 198.474645 137.845865 
L 199.542285 137.845865 
L 199.694805 136.54724 
L 200.762445 136.54724 
L 200.914965 139.14449 
L 201.982605 139.14449 
L 202.135125 136.54724 
L 203.202765 136.54724 
L 203.355285 132.651364 
L 204.422925 132.651364 
L 204.575445 133.94999 
L 205.643085 133.94999 
L 205.795605 135.248615 
L 208.083405 135.248615 
L 208.235925 133.94999 
L 209.303565 133.94999 
L 209.456085 136.54724 
L 211.743885 136.54724 
L 211.896405 133.94999 
L 212.964045 133.94999 
L 213.116565 132.651364 
L 215.404365 132.651364 
L 215.556885 133.94999 
L 217.844685 133.94999 
L 217.997205 136.54724 
L 220.285005 136.54724 
L 220.437525 132.651364 
L 223.945485 132.651364 
L 224.098005 133.94999 
L 226.385805 133.94999 
L 226.538325 136.54724 
L 228.826125 136.54724 
L 228.978645 131.352739 
L 232.486605 131.352739 
L 232.639125 132.651364 
L 234.926925 132.651364 
L 235.079445 136.54724 
L 236.147085 136.54724 
L 236.299605 135.248615 
L 237.367245 135.248615 
L 237.519765 132.651364 
L 238.587405 132.651364 
L 238.739925 133.94999 
L 241.027725 133.94999 
L 241.180245 132.651364 
L 243.468045 132.651364 
L 243.620565 135.248615 
L 244.688205 135.248615 
L 244.840725 133.94999 
L 247.128525 133.94999 
L 247.281045 131.352739 
L 248.348685 131.352739 
L 248.501205 132.651364 
L 249.568845 132.651364 
L 249.721365 133.94999 
L 252.009165 133.94999 
L 252.161685 135.248615 
L 254.449485 135.248615 
L 254.602005 131.352739 
L 255.669645 131.352739 
L 255.822165 132.651364 
L 259.330125 132.651364 
L 259.482645 133.94999 
L 260.550285 133.94999 
L 260.702805 135.248615 
L 261.770445 135.248615 
L 261.922965 132.651364 
L 262.990605 132.651364 
L 263.143125 130.054114 
L 264.210765 130.054114 
L 264.363285 131.352739 
L 265.430925 131.352739 
L 265.583445 133.94999 
L 266.651085 133.94999 
L 266.803605 131.352739 
L 267.871245 131.352739 
L 268.023765 130.054114 
L 269.091405 130.054114 
L 269.243925 135.248615 
L 270.311565 135.248615 
L 270.464085 133.94999 
L 271.531725 133.94999 
L 271.684245 130.054114 
L 272.751885 130.054114 
L 272.904405 131.352739 
L 273.972045 131.352739 
L 274.124565 130.054114 
L 275.192205 130.054114 
L 275.344725 131.352739 
L 276.412365 131.352739 
L 276.564885 135.248615 
L 278.852685 135.248615 
L 279.005205 132.651364 
L 281.293005 132.651364 
L 281.445525 133.94999 
L 286.173645 133.94999 
L 286.326165 135.248615 
L 288.613965 135.248615 
L 288.766485 137.845865 
L 289.834125 137.845865 
L 289.986645 133.94999 
L 291.054285 133.94999 
L 291.206805 132.651364 
L 295.934925 132.651364 
L 296.087445 131.352739 
L 297.155085 131.352739 
L 297.307605 130.054114 
L 298.375245 130.054114 
L 298.527765 131.352739 
L 302.035725 131.352739 
L 302.188245 132.651364 
L 303.255885 132.651364 
L 303.408405 133.94999 
L 305.696205 133.94999 
L 305.848725 132.651364 
L 306.916365 132.651364 
L 307.068885 133.94999 
L 311.797005 133.94999 
L 311.949525 132.651364 
L 314.237325 132.651364 
L 314.389845 131.352739 
L 315.457485 131.352739 
L 315.610005 132.651364 
L 316.677645 132.651364 
L 316.830165 131.352739 
L 317.897805 131.352739 
L 318.050325 132.651364 
L 319.117965 132.651364 
L 319.270485 133.94999 
L 320.338125 133.94999 
L 320.490645 132.651364 
L 322.778445 132.651364 
L 322.930965 133.94999 
L 323.998605 133.94999 
L 324.151125 136.54724 
L 325.218765 136.54724 
L 325.371285 135.248615 
L 326.438925 135.248615 
L 326.591445 136.54724 
L 327.659085 136.54724 
L 327.811605 135.248615 
L 328.879245 135.248615 
L 329.031765 136.54724 
L 330.099405 136.54724 
L 330.251925 133.94999 
L 331.319565 133.94999 
L 331.472085 135.248615 
L 332.539725 135.248615 
L 332.692245 136.54724 
L 333.759885 136.54724 
L 333.912405 135.248615 
L 336.200205 135.248615 
L 336.352725 133.94999 
L 337.420365 133.94999 
L 337.572885 136.54724 
L 338.640525 136.54724 
L 338.793045 135.248615 
L 339.860685 135.248615 
L 340.013205 132.651364 
L 342.301005 132.651364 
L 342.453525 131.352739 
L 344.741325 131.352739 
L 344.893845 132.651364 
L 345.961485 132.651364 
L 346.114005 136.54724 
L 348.401805 136.54724 
L 348.554325 132.651364 
L 350.842125 132.651364 
L 350.994645 133.94999 
L 353.282445 133.94999 
L 353.434965 132.651364 
L 354.502605 132.651364 
L 354.655125 133.94999 
L 355.722765 133.94999 
L 355.875285 135.248615 
L 356.942925 135.248615 
L 357.095445 132.651364 
L 358.163085 132.651364 
L 358.315605 133.94999 
L 363.043725 133.94999 
L 363.196245 136.54724 
L 365.484045 136.54724 
L 365.636565 137.845865 
L 366.704205 137.845865 
L 366.856725 133.94999 
L 369.144525 133.94999 
L 369.297045 136.54724 
L 370.364685 136.54724 
L 370.517205 133.94999 
L 371.584845 133.94999 
L 371.737365 136.54724 
L 372.805005 136.54724 
L 372.957525 133.94999 
L 374.025165 133.94999 
L 374.177685 132.651364 
L 375.245325 132.651364 
L 375.397845 133.94999 
L 376.465485 133.94999 
L 376.618005 132.651364 
L 378.905805 132.651364 
L 379.058325 131.352739 
L 380.125965 131.352739 
L 380.278485 133.94999 
L 382.566285 133.94999 
L 382.718805 131.352739 
L 388.667085 131.352739 
L 388.819605 135.248615 
L 389.887245 135.248615 
L 390.039765 133.94999 
L 391.107405 133.94999 
L 391.259925 132.651364 
L 392.327565 132.651364 
L 392.480085 130.054114 
L 393.547725 130.054114 
L 393.700245 128.755489 
L 394.767885 128.755489 
L 394.920405 130.054114 
L 395.988045 130.054114 
L 396.140565 131.352739 
L 397.208205 131.352739 
L 397.360725 133.94999 
L 398.428365 133.94999 
L 398.580885 132.651364 
L 399.648525 132.651364 
L 399.801045 131.352739 
L 402.088845 131.352739 
L 402.241365 132.651364 
L 403.309005 132.651364 
L 403.461525 130.054114 
L 404.529165 130.054114 
L 404.681685 131.352739 
L 405.749325 131.352739 
L 405.901845 133.94999 
L 408.189645 133.94999 
L 408.342165 131.352739 
L 410.629965 131.352739 
L 410.782485 130.054114 
L 411.850125 130.054114 
L 412.002645 131.352739 
L 413.070285 131.352739 
L 413.222805 133.94999 
L 414.290445 133.94999 
L 414.442965 136.54724 
L 415.510605 136.54724 
L 415.663125 133.94999 
L 416.730765 133.94999 
L 416.883285 131.352739 
L 419.171085 131.352739 
L 419.323605 130.054114 
L 420.391245 130.054114 
L 420.543765 131.352739 
L 421.611405 131.352739 
L 421.763925 132.651364 
L 425.271885 132.651364 
L 425.424405 128.755489 
L 427.712205 128.755489 
L 427.864725 127.456863 
L 428.932365 127.456863 
L 429.084885 126.158238 
L 431.372685 126.158238 
L 431.525205 130.054114 
L 433.813005 130.054114 
L 433.965525 128.755489 
L 435.033165 128.755489 
L 435.185685 127.456863 
L 437.473485 127.456863 
L 437.626005 128.755489 
L 438.693645 128.755489 
L 438.846165 131.352739 
L 439.913805 131.352739 
L 440.066325 133.94999 
L 441.133965 133.94999 
L 441.286485 132.651364 
L 442.354125 132.651364 
L 442.506645 130.054114 
L 444.794445 130.054114 
L 444.946965 133.94999 
L 446.014605 133.94999 
L 446.167125 131.352739 
L 448.454925 131.352739 
L 448.607445 132.651364 
L 450.895245 132.651364 
L 451.047765 130.054114 
L 452.115405 130.054114 
L 452.267925 131.352739 
L 453.335565 131.352739 
L 453.488085 130.054114 
L 454.555725 130.054114 
L 454.708245 131.352739 
L 455.775885 131.352739 
L 455.928405 132.651364 
L 456.996045 132.651364 
L 457.148565 133.94999 
L 459.436365 133.94999 
L 459.588885 131.352739 
L 460.656525 131.352739 
L 460.809045 130.054114 
L 461.876685 130.054114 
L 462.029205 131.352739 
L 465.537165 131.352739 
L 465.689685 133.94999 
L 467.977485 133.94999 
L 468.130005 130.054114 
L 469.197645 130.054114 
L 469.350165 131.352739 
L 470.417805 131.352739 
L 470.570325 132.651364 
L 471.637965 132.651364 
L 471.790485 131.352739 
L 474.078285 131.352739 
L 474.230805 133.94999 
L 475.298445 133.94999 
L 475.450965 132.651364 
L 476.518605 132.651364 
L 476.671125 130.054114 
L 477.738765 130.054114 
L 477.891285 131.352739 
L 481.399245 131.352739 
L 481.551765 136.54724 
L 482.619405 136.54724 
L 482.771925 133.94999 
L 483.839565 133.94999 
L 483.992085 132.651364 
L 485.059725 132.651364 
L 485.212245 126.158238 
L 486.279885 126.158238 
L 486.432405 124.859613 
L 487.500045 124.859613 
L 487.652565 126.158238 
L 489.940365 126.158238 
L 490.092885 130.054114 
L 491.160525 130.054114 
L 491.313045 133.94999 
L 492.380685 133.94999 
L 492.380685 133.94999 
" style="fill:none;stroke:#1f77b4;stroke-linecap:square;stroke-width:1.5;"/>
   </g>
   <g id="line2d_11">
    <path clip-path="url(#pd881a6a353)" d="M 47.073125 70.317353 
L 492.380685 70.317353 
L 492.380685 70.317353 
" style="fill:none;stroke:#ff7f0e;stroke-linecap:square;stroke-width:1.5;"/>
   </g>
   <g id="line2d_12">
    <path clip-path="url(#pd881a6a353)" d="M 47.073125 156.026619 
L 48.242445 156.026619 
L 48.394965 157.325244 
L 56.783565 157.325244 
L 56.936085 158.623869 
L 58.003725 158.623869 
L 58.156245 154.727993 
L 59.223885 154.727993 
L 59.376405 157.325244 
L 62.884365 157.325244 
L 63.036885 156.026619 
L 65.324685 156.026619 
L 65.477205 157.325244 
L 66.544845 157.325244 
L 66.697365 154.727993 
L 67.765005 154.727993 
L 67.917525 156.026619 
L 68.985165 156.026619 
L 69.137685 157.325244 
L 71.425485 157.325244 
L 71.578005 156.026619 
L 75.085965 156.026619 
L 75.238485 154.727993 
L 76.306125 154.727993 
L 76.458645 156.026619 
L 77.526285 156.026619 
L 77.678805 157.325244 
L 79.966605 157.325244 
L 80.119125 156.026619 
L 84.847245 156.026619 
L 84.999765 157.325244 
L 86.067405 157.325244 
L 86.219925 159.922494 
L 87.287565 159.922494 
L 87.440085 156.026619 
L 88.507725 156.026619 
L 88.660245 154.727993 
L 89.727885 154.727993 
L 89.880405 153.429368 
L 90.948045 153.429368 
L 91.100565 154.727993 
L 93.388365 154.727993 
L 93.540885 157.325244 
L 94.608525 157.325244 
L 94.761045 156.026619 
L 95.828685 156.026619 
L 95.981205 157.325244 
L 97.048845 157.325244 
L 97.201365 156.026619 
L 99.489165 156.026619 
L 99.641685 157.325244 
L 100.709325 157.325244 
L 100.861845 154.727993 
L 103.149645 154.727993 
L 103.302165 156.026619 
L 105.589965 156.026619 
L 105.742485 154.727993 
L 108.030285 154.727993 
L 108.182805 156.026619 
L 109.250445 156.026619 
L 109.402965 154.727993 
L 110.470605 154.727993 
L 110.623125 157.325244 
L 114.131085 157.325244 
L 114.283605 156.026619 
L 116.571405 156.026619 
L 116.723925 158.623869 
L 117.791565 158.623869 
L 117.944085 154.727993 
L 119.011725 154.727993 
L 119.164245 156.026619 
L 122.672205 156.026619 
L 122.824725 154.727993 
L 125.112525 154.727993 
L 125.265045 156.026619 
L 127.552845 156.026619 
L 127.705365 157.325244 
L 131.213325 157.325244 
L 131.365845 156.026619 
L 133.653645 156.026619 
L 133.806165 157.325244 
L 134.873805 157.325244 
L 135.026325 158.623869 
L 137.314125 158.623869 
L 137.466645 157.325244 
L 139.754445 157.325244 
L 139.906965 156.026619 
L 147.075405 156.026619 
L 147.227925 157.325244 
L 149.515725 157.325244 
L 149.668245 154.727993 
L 150.735885 154.727993 
L 150.888405 157.325244 
L 155.616525 157.325244 
L 155.769045 156.026619 
L 156.836685 156.026619 
L 156.989205 154.727993 
L 158.056845 154.727993 
L 158.209365 148.234867 
L 160.497165 148.234867 
L 160.649685 149.533492 
L 161.717325 149.533492 
L 161.869845 150.832118 
L 164.157645 150.832118 
L 164.310165 157.325244 
L 165.377805 157.325244 
L 165.530325 156.026619 
L 166.597965 156.026619 
L 166.750485 153.429368 
L 167.818125 153.429368 
L 167.970645 154.727993 
L 169.038285 154.727993 
L 169.190805 156.026619 
L 171.478605 156.026619 
L 171.631125 157.325244 
L 172.698765 157.325244 
L 172.851285 158.623869 
L 173.918925 158.623869 
L 174.071445 157.325244 
L 175.139085 157.325244 
L 175.291605 156.026619 
L 176.359245 156.026619 
L 176.511765 157.325244 
L 178.799565 157.325244 
L 178.952085 158.623869 
L 180.019725 158.623869 
L 180.172245 157.325244 
L 181.239885 157.325244 
L 181.392405 156.026619 
L 182.460045 156.026619 
L 182.612565 154.727993 
L 184.900365 154.727993 
L 185.052885 156.026619 
L 186.120525 156.026619 
L 186.273045 157.325244 
L 187.340685 157.325244 
L 187.493205 158.623869 
L 189.781005 158.623869 
L 189.933525 157.325244 
L 191.001165 157.325244 
L 191.153685 154.727993 
L 195.881805 154.727993 
L 196.034325 156.026619 
L 197.101965 156.026619 
L 197.254485 154.727993 
L 199.542285 154.727993 
L 199.694805 153.429368 
L 203.202765 153.429368 
L 203.355285 156.026619 
L 204.422925 156.026619 
L 204.575445 157.325244 
L 205.643085 157.325244 
L 205.795605 158.623869 
L 208.083405 158.623869 
L 208.235925 156.026619 
L 211.743885 156.026619 
L 211.896405 158.623869 
L 212.964045 158.623869 
L 213.116565 157.325244 
L 216.624525 157.325244 
L 216.777045 154.727993 
L 217.844685 154.727993 
L 217.997205 153.429368 
L 219.064845 153.429368 
L 219.217365 156.026619 
L 220.285005 156.026619 
L 220.437525 157.325244 
L 222.725325 157.325244 
L 222.877845 156.026619 
L 225.165645 156.026619 
L 225.318165 154.727993 
L 227.605965 154.727993 
L 227.758485 158.623869 
L 228.826125 158.623869 
L 228.978645 157.325244 
L 231.266445 157.325244 
L 231.418965 158.623869 
L 233.706765 158.623869 
L 233.859285 156.026619 
L 234.926925 156.026619 
L 235.079445 154.727993 
L 237.367245 154.727993 
L 237.519765 157.325244 
L 241.027725 157.325244 
L 241.180245 156.026619 
L 242.247885 156.026619 
L 242.400405 154.727993 
L 244.688205 154.727993 
L 244.840725 157.325244 
L 245.908365 157.325244 
L 246.060885 158.623869 
L 250.789005 158.623869 
L 250.941525 156.026619 
L 258.109965 156.026619 
L 258.262485 153.429368 
L 261.770445 153.429368 
L 261.922965 156.026619 
L 264.210765 156.026619 
L 264.363285 154.727993 
L 267.871245 154.727993 
L 268.023765 153.429368 
L 270.311565 153.429368 
L 270.464085 154.727993 
L 271.531725 154.727993 
L 271.684245 152.130743 
L 273.972045 152.130743 
L 274.124565 153.429368 
L 275.192205 153.429368 
L 275.344725 152.130743 
L 277.632525 152.130743 
L 277.785045 149.533492 
L 278.852685 149.533492 
L 279.005205 150.832118 
L 280.072845 150.832118 
L 280.225365 153.429368 
L 281.293005 153.429368 
L 281.445525 154.727993 
L 284.953485 154.727993 
L 285.106005 153.429368 
L 286.173645 153.429368 
L 286.326165 150.832118 
L 287.393805 150.832118 
L 287.546325 152.130743 
L 288.613965 152.130743 
L 288.766485 153.429368 
L 291.054285 153.429368 
L 291.206805 152.130743 
L 292.274445 152.130743 
L 292.426965 153.429368 
L 293.494605 153.429368 
L 293.647125 152.130743 
L 294.714765 152.130743 
L 294.867285 150.832118 
L 297.155085 150.832118 
L 297.307605 152.130743 
L 303.255885 152.130743 
L 303.408405 150.832118 
L 304.476045 150.832118 
L 304.628565 153.429368 
L 305.696205 153.429368 
L 305.848725 152.130743 
L 306.916365 152.130743 
L 307.068885 154.727993 
L 308.136525 154.727993 
L 308.289045 153.429368 
L 309.356685 153.429368 
L 309.509205 154.727993 
L 310.576845 154.727993 
L 310.729365 153.429368 
L 311.797005 153.429368 
L 311.949525 150.832118 
L 315.457485 150.832118 
L 315.610005 153.429368 
L 316.677645 153.429368 
L 316.830165 152.130743 
L 319.117965 152.130743 
L 319.270485 153.429368 
L 320.338125 153.429368 
L 320.490645 149.533492 
L 321.558285 149.533492 
L 321.710805 152.130743 
L 323.998605 152.130743 
L 324.151125 153.429368 
L 325.218765 153.429368 
L 325.371285 154.727993 
L 326.438925 154.727993 
L 326.591445 156.026619 
L 327.659085 156.026619 
L 327.811605 154.727993 
L 328.879245 154.727993 
L 329.031765 153.429368 
L 332.539725 153.429368 
L 332.692245 156.026619 
L 334.980045 156.026619 
L 335.132565 154.727993 
L 336.200205 154.727993 
L 336.352725 153.429368 
L 337.420365 153.429368 
L 337.572885 150.832118 
L 338.640525 150.832118 
L 338.793045 152.130743 
L 339.860685 152.130743 
L 340.013205 153.429368 
L 341.080845 153.429368 
L 341.233365 154.727993 
L 342.301005 154.727993 
L 342.453525 153.429368 
L 345.961485 153.429368 
L 346.114005 152.130743 
L 347.181645 152.130743 
L 347.334165 154.727993 
L 348.401805 154.727993 
L 348.554325 153.429368 
L 349.621965 153.429368 
L 349.774485 154.727993 
L 350.842125 154.727993 
L 350.994645 157.325244 
L 352.062285 157.325244 
L 352.214805 156.026619 
L 353.282445 156.026619 
L 353.434965 153.429368 
L 354.502605 153.429368 
L 354.655125 152.130743 
L 355.722765 152.130743 
L 355.875285 153.429368 
L 356.942925 153.429368 
L 357.095445 154.727993 
L 358.163085 154.727993 
L 358.315605 156.026619 
L 359.383245 156.026619 
L 359.535765 157.325244 
L 360.603405 157.325244 
L 360.755925 156.026619 
L 361.823565 156.026619 
L 361.976085 154.727993 
L 364.263885 154.727993 
L 364.416405 156.026619 
L 365.484045 156.026619 
L 365.636565 154.727993 
L 366.704205 154.727993 
L 366.856725 156.026619 
L 370.364685 156.026619 
L 370.517205 154.727993 
L 371.584845 154.727993 
L 371.737365 152.130743 
L 372.805005 152.130743 
L 372.957525 153.429368 
L 374.025165 153.429368 
L 374.177685 156.026619 
L 377.685645 156.026619 
L 377.838165 154.727993 
L 378.905805 154.727993 
L 379.058325 153.429368 
L 381.346125 153.429368 
L 381.498645 154.727993 
L 382.566285 154.727993 
L 382.718805 156.026619 
L 383.786445 156.026619 
L 383.938965 154.727993 
L 386.226765 154.727993 
L 386.379285 156.026619 
L 387.446925 156.026619 
L 387.599445 154.727993 
L 388.667085 154.727993 
L 388.819605 153.429368 
L 389.887245 153.429368 
L 390.039765 154.727993 
L 391.107405 154.727993 
L 391.259925 153.429368 
L 393.547725 153.429368 
L 393.700245 154.727993 
L 394.767885 154.727993 
L 394.920405 156.026619 
L 395.988045 156.026619 
L 396.140565 154.727993 
L 400.868685 154.727993 
L 401.021205 156.026619 
L 403.309005 156.026619 
L 403.461525 154.727993 
L 404.529165 154.727993 
L 404.681685 153.429368 
L 406.969485 153.429368 
L 407.122005 156.026619 
L 410.629965 156.026619 
L 410.782485 154.727993 
L 411.850125 154.727993 
L 412.002645 156.026619 
L 414.290445 156.026619 
L 414.442965 154.727993 
L 415.510605 154.727993 
L 415.663125 156.026619 
L 416.730765 156.026619 
L 416.883285 154.727993 
L 417.950925 154.727993 
L 418.103445 158.623869 
L 419.171085 158.623869 
L 419.323605 156.026619 
L 420.391245 156.026619 
L 420.543765 154.727993 
L 424.051725 154.727993 
L 424.204245 157.325244 
L 425.271885 157.325244 
L 425.424405 156.026619 
L 428.932365 156.026619 
L 429.084885 153.429368 
L 431.372685 153.429368 
L 431.525205 154.727993 
L 438.693645 154.727993 
L 438.846165 153.429368 
L 439.913805 153.429368 
L 440.066325 154.727993 
L 441.133965 154.727993 
L 441.286485 156.026619 
L 442.354125 156.026619 
L 442.506645 154.727993 
L 443.574285 154.727993 
L 443.726805 156.026619 
L 447.234765 156.026619 
L 447.387285 153.429368 
L 449.675085 153.429368 
L 449.827605 156.026619 
L 455.775885 156.026619 
L 455.928405 154.727993 
L 458.216205 154.727993 
L 458.368725 156.026619 
L 459.436365 156.026619 
L 459.588885 154.727993 
L 464.317005 154.727993 
L 464.469525 153.429368 
L 465.537165 153.429368 
L 465.689685 154.727993 
L 466.757325 154.727993 
L 466.909845 156.026619 
L 467.977485 156.026619 
L 468.130005 154.727993 
L 474.078285 154.727993 
L 474.230805 153.429368 
L 475.298445 153.429368 
L 475.450965 154.727993 
L 476.518605 154.727993 
L 476.671125 153.429368 
L 477.738765 153.429368 
L 477.891285 154.727993 
L 478.958925 154.727993 
L 479.111445 153.429368 
L 482.619405 153.429368 
L 482.771925 152.130743 
L 483.839565 152.130743 
L 483.992085 157.325244 
L 485.059725 157.325244 
L 485.212245 156.026619 
L 486.279885 156.026619 
L 486.432405 152.130743 
L 488.720205 152.130743 
L 488.872725 150.832118 
L 489.940365 150.832118 
L 490.092885 152.130743 
L 492.380685 152.130743 
L 492.380685 152.130743 
" style="fill:none;stroke:#2ca02c;stroke-linecap:square;stroke-width:1.5;"/>
   </g>
   <g id="line2d_13">
    <path clip-path="url(#pd881a6a353)" d="M 47.073125 174.207372 
L 49.462605 174.207372 
L 49.615125 176.804622 
L 50.682765 176.804622 
L 50.835285 175.505997 
L 53.123085 175.505997 
L 53.275605 176.804622 
L 55.563405 176.804622 
L 55.715925 174.207372 
L 56.783565 174.207372 
L 56.936085 175.505997 
L 58.003725 175.505997 
L 58.156245 178.103248 
L 59.223885 178.103248 
L 59.376405 181.999123 
L 61.664205 181.999123 
L 61.816725 180.700498 
L 62.884365 180.700498 
L 63.036885 179.401873 
L 64.104525 179.401873 
L 64.257045 175.505997 
L 66.544845 175.505997 
L 66.697365 179.401873 
L 67.765005 179.401873 
L 67.917525 181.999123 
L 68.985165 181.999123 
L 69.137685 183.297749 
L 71.425485 183.297749 
L 71.578005 180.700498 
L 72.645645 180.700498 
L 72.798165 176.804622 
L 73.865805 176.804622 
L 74.018325 178.103248 
L 75.085965 178.103248 
L 75.238485 181.999123 
L 76.306125 181.999123 
L 76.458645 184.596374 
L 79.966605 184.596374 
L 80.119125 179.401873 
L 81.186765 179.401873 
L 81.339285 176.804622 
L 82.406925 176.804622 
L 82.559445 178.103248 
L 83.627085 178.103248 
L 83.779605 180.700498 
L 84.847245 180.700498 
L 84.999765 184.596374 
L 86.067405 184.596374 
L 86.219925 185.894999 
L 88.507725 185.894999 
L 88.660245 181.999123 
L 89.727885 181.999123 
L 89.880405 178.103248 
L 90.948045 178.103248 
L 91.100565 179.401873 
L 92.168205 179.401873 
L 92.320725 183.297749 
L 93.388365 183.297749 
L 93.540885 185.894999 
L 97.048845 185.894999 
L 97.201365 183.297749 
L 98.269005 183.297749 
L 98.421525 179.401873 
L 99.489165 179.401873 
L 99.641685 180.700498 
L 100.709325 180.700498 
L 100.861845 183.297749 
L 101.929485 183.297749 
L 102.082005 185.894999 
L 105.589965 185.894999 
L 105.742485 183.297749 
L 106.810125 183.297749 
L 106.962645 179.401873 
L 108.030285 179.401873 
L 108.182805 180.700498 
L 109.250445 180.700498 
L 109.402965 184.596374 
L 110.470605 184.596374 
L 110.623125 185.894999 
L 114.131085 185.894999 
L 114.283605 181.999123 
L 115.351245 181.999123 
L 115.503765 179.401873 
L 116.571405 179.401873 
L 116.723925 180.700498 
L 117.791565 180.700498 
L 117.944085 183.297749 
L 119.011725 183.297749 
L 119.164245 185.894999 
L 122.672205 185.894999 
L 122.824725 183.297749 
L 123.892365 183.297749 
L 124.044885 179.401873 
L 125.112525 179.401873 
L 125.265045 180.700498 
L 126.332685 180.700498 
L 126.485205 184.596374 
L 127.552845 184.596374 
L 127.705365 185.894999 
L 131.213325 185.894999 
L 131.365845 183.297749 
L 132.433485 183.297749 
L 132.586005 179.401873 
L 133.653645 179.401873 
L 133.806165 181.999123 
L 134.873805 181.999123 
L 135.026325 185.894999 
L 136.093965 185.894999 
L 136.246485 187.193624 
L 137.314125 187.193624 
L 137.466645 185.894999 
L 139.754445 185.894999 
L 139.906965 181.999123 
L 140.974605 181.999123 
L 141.127125 178.103248 
L 143.414925 178.103248 
L 143.567445 180.700498 
L 144.635085 180.700498 
L 144.787605 181.999123 
L 145.855245 181.999123 
L 146.007765 180.700498 
L 147.075405 180.700498 
L 147.227925 179.401873 
L 148.295565 179.401873 
L 148.448085 180.700498 
L 150.735885 180.700498 
L 150.888405 181.999123 
L 151.956045 181.999123 
L 152.108565 183.297749 
L 153.176205 183.297749 
L 153.328725 184.596374 
L 154.396365 184.596374 
L 154.548885 185.894999 
L 156.836685 185.894999 
L 156.989205 181.999123 
L 158.056845 181.999123 
L 158.209365 176.804622 
L 160.497165 176.804622 
L 160.649685 181.999123 
L 161.717325 181.999123 
L 161.869845 183.297749 
L 162.937485 183.297749 
L 163.090005 184.596374 
L 164.157645 184.596374 
L 164.310165 187.193624 
L 165.377805 187.193624 
L 165.530325 183.297749 
L 166.597965 183.297749 
L 166.750485 179.401873 
L 167.818125 179.401873 
L 167.970645 181.999123 
L 169.038285 181.999123 
L 169.190805 185.894999 
L 171.478605 185.894999 
L 171.631125 187.193624 
L 173.918925 187.193624 
L 174.071445 184.596374 
L 175.139085 184.596374 
L 175.291605 180.700498 
L 176.359245 180.700498 
L 176.511765 183.297749 
L 177.579405 183.297749 
L 177.731925 185.894999 
L 178.799565 185.894999 
L 178.952085 187.193624 
L 181.239885 187.193624 
L 181.392405 185.894999 
L 182.460045 185.894999 
L 182.612565 183.297749 
L 183.680205 183.297749 
L 183.832725 179.401873 
L 184.900365 179.401873 
L 185.052885 181.999123 
L 186.120525 181.999123 
L 186.273045 184.596374 
L 187.340685 184.596374 
L 187.493205 185.894999 
L 191.001165 185.894999 
L 191.153685 181.999123 
L 192.221325 181.999123 
L 192.373845 179.401873 
L 193.441485 179.401873 
L 193.594005 180.700498 
L 194.661645 180.700498 
L 194.814165 184.596374 
L 195.881805 184.596374 
L 196.034325 185.894999 
L 199.542285 185.894999 
L 199.694805 183.297749 
L 200.762445 183.297749 
L 200.914965 179.401873 
L 201.982605 179.401873 
L 202.135125 180.700498 
L 203.202765 180.700498 
L 203.355285 184.596374 
L 205.643085 184.596374 
L 205.795605 185.894999 
L 208.083405 185.894999 
L 208.235925 183.297749 
L 209.303565 183.297749 
L 209.456085 180.700498 
L 210.523725 180.700498 
L 210.676245 181.999123 
L 211.743885 181.999123 
L 211.896405 184.596374 
L 212.964045 184.596374 
L 213.116565 185.894999 
L 214.184205 185.894999 
L 214.336725 187.193624 
L 215.404365 187.193624 
L 215.556885 185.894999 
L 216.624525 185.894999 
L 216.777045 183.297749 
L 217.844685 183.297749 
L 217.997205 180.700498 
L 219.064845 180.700498 
L 219.217365 183.297749 
L 220.285005 183.297749 
L 220.437525 185.894999 
L 222.725325 185.894999 
L 222.877845 187.193624 
L 223.945485 187.193624 
L 224.098005 185.894999 
L 225.165645 185.894999 
L 225.318165 183.297749 
L 226.385805 183.297749 
L 226.538325 180.700498 
L 227.605965 180.700498 
L 227.758485 183.297749 
L 228.826125 183.297749 
L 228.978645 185.894999 
L 231.266445 185.894999 
L 231.418965 187.193624 
L 232.486605 187.193624 
L 232.639125 185.894999 
L 233.706765 185.894999 
L 233.859285 183.297749 
L 234.926925 183.297749 
L 235.079445 179.401873 
L 236.147085 179.401873 
L 236.299605 180.700498 
L 237.367245 180.700498 
L 237.519765 184.596374 
L 238.587405 184.596374 
L 238.739925 185.894999 
L 242.247885 185.894999 
L 242.400405 181.999123 
L 243.468045 181.999123 
L 243.620565 178.103248 
L 244.688205 178.103248 
L 244.840725 179.401873 
L 245.908365 179.401873 
L 246.060885 183.297749 
L 247.128525 183.297749 
L 247.281045 184.596374 
L 249.568845 184.596374 
L 249.721365 183.297749 
L 250.789005 183.297749 
L 250.941525 180.700498 
L 252.009165 180.700498 
L 252.161685 179.401873 
L 254.449485 179.401873 
L 254.602005 181.999123 
L 255.669645 181.999123 
L 255.822165 183.297749 
L 258.109965 183.297749 
L 258.262485 181.999123 
L 259.330125 181.999123 
L 259.482645 180.700498 
L 260.550285 180.700498 
L 260.702805 178.103248 
L 261.770445 178.103248 
L 261.922965 179.401873 
L 262.990605 179.401873 
L 263.143125 181.999123 
L 264.210765 181.999123 
L 264.363285 183.297749 
L 265.430925 183.297749 
L 265.583445 181.999123 
L 267.871245 181.999123 
L 268.023765 179.401873 
L 269.091405 179.401873 
L 269.243925 178.103248 
L 270.311565 178.103248 
L 270.464085 179.401873 
L 272.751885 179.401873 
L 272.904405 180.700498 
L 276.412365 180.700498 
L 276.564885 179.401873 
L 277.632525 179.401873 
L 277.785045 176.804622 
L 278.852685 176.804622 
L 279.005205 178.103248 
L 280.072845 178.103248 
L 280.225365 180.700498 
L 282.513165 180.700498 
L 282.665685 181.999123 
L 284.953485 181.999123 
L 285.106005 180.700498 
L 286.173645 180.700498 
L 286.326165 176.804622 
L 287.393805 176.804622 
L 287.546325 178.103248 
L 288.613965 178.103248 
L 288.766485 180.700498 
L 293.494605 180.700498 
L 293.647125 178.103248 
L 294.714765 178.103248 
L 294.867285 176.804622 
L 297.155085 176.804622 
L 297.307605 179.401873 
L 298.375245 179.401873 
L 298.527765 180.700498 
L 302.035725 180.700498 
L 302.188245 178.103248 
L 303.255885 178.103248 
L 303.408405 176.804622 
L 304.476045 176.804622 
L 304.628565 178.103248 
L 305.696205 178.103248 
L 305.848725 180.700498 
L 310.576845 180.700498 
L 310.729365 179.401873 
L 311.797005 179.401873 
L 311.949525 178.103248 
L 314.237325 178.103248 
L 314.389845 180.700498 
L 315.457485 180.700498 
L 315.610005 183.297749 
L 316.677645 183.297749 
L 316.830165 181.999123 
L 319.117965 181.999123 
L 319.270485 179.401873 
L 320.338125 179.401873 
L 320.490645 176.804622 
L 322.778445 176.804622 
L 322.930965 181.999123 
L 323.998605 181.999123 
L 324.151125 184.596374 
L 327.659085 184.596374 
L 327.811605 181.999123 
L 328.879245 181.999123 
L 329.031765 179.401873 
L 330.099405 179.401873 
L 330.251925 180.700498 
L 331.319565 180.700498 
L 331.472085 184.596374 
L 332.539725 184.596374 
L 332.692245 187.193624 
L 336.200205 187.193624 
L 336.352725 184.596374 
L 337.420365 184.596374 
L 337.572885 180.700498 
L 338.640525 180.700498 
L 338.793045 181.999123 
L 339.860685 181.999123 
L 340.013205 185.894999 
L 341.080845 185.894999 
L 341.233365 187.193624 
L 342.301005 187.193624 
L 342.453525 188.492249 
L 343.521165 188.492249 
L 343.673685 187.193624 
L 344.741325 187.193624 
L 344.893845 184.596374 
L 345.961485 184.596374 
L 346.114005 179.401873 
L 347.181645 179.401873 
L 347.334165 183.297749 
L 348.401805 183.297749 
L 348.554325 185.894999 
L 349.621965 185.894999 
L 349.774485 187.193624 
L 353.282445 187.193624 
L 353.434965 184.596374 
L 354.502605 184.596374 
L 354.655125 179.401873 
L 355.722765 179.401873 
L 355.875285 181.999123 
L 356.942925 181.999123 
L 357.095445 184.596374 
L 358.163085 184.596374 
L 358.315605 187.193624 
L 360.603405 187.193624 
L 360.755925 184.596374 
L 361.823565 184.596374 
L 361.976085 180.700498 
L 363.043725 180.700498 
L 363.196245 179.401873 
L 364.263885 179.401873 
L 364.416405 180.700498 
L 365.484045 180.700498 
L 365.636565 184.596374 
L 366.704205 184.596374 
L 366.856725 187.193624 
L 370.364685 187.193624 
L 370.517205 184.596374 
L 371.584845 184.596374 
L 371.737365 179.401873 
L 372.805005 179.401873 
L 372.957525 181.999123 
L 374.025165 181.999123 
L 374.177685 185.894999 
L 375.245325 185.894999 
L 375.397845 187.193624 
L 377.685645 187.193624 
L 377.838165 185.894999 
L 378.905805 185.894999 
L 379.058325 181.999123 
L 380.125965 181.999123 
L 380.278485 179.401873 
L 381.346125 179.401873 
L 381.498645 180.700498 
L 382.566285 180.700498 
L 382.718805 184.596374 
L 383.786445 184.596374 
L 383.938965 185.894999 
L 387.446925 185.894999 
L 387.599445 183.297749 
L 388.667085 183.297749 
L 388.819605 178.103248 
L 389.887245 178.103248 
L 390.039765 179.401873 
L 391.107405 179.401873 
L 391.259925 183.297749 
L 392.327565 183.297749 
L 392.480085 184.596374 
L 393.547725 184.596374 
L 393.700245 185.894999 
L 394.767885 185.894999 
L 394.920405 184.596374 
L 395.988045 184.596374 
L 396.140565 181.999123 
L 397.208205 181.999123 
L 397.360725 178.103248 
L 398.428365 178.103248 
L 398.580885 179.401873 
L 399.648525 179.401873 
L 399.801045 184.596374 
L 400.868685 184.596374 
L 401.021205 185.894999 
L 404.529165 185.894999 
L 404.681685 181.999123 
L 405.749325 181.999123 
L 405.901845 178.103248 
L 406.969485 178.103248 
L 407.122005 180.700498 
L 408.189645 180.700498 
L 408.342165 184.596374 
L 409.409805 184.596374 
L 409.562325 185.894999 
L 411.850125 185.894999 
L 412.002645 184.596374 
L 413.070285 184.596374 
L 413.222805 181.999123 
L 414.290445 181.999123 
L 414.442965 178.103248 
L 415.510605 178.103248 
L 415.663125 179.401873 
L 416.730765 179.401873 
L 416.883285 181.999123 
L 417.950925 181.999123 
L 418.103445 183.297749 
L 420.391245 183.297749 
L 420.543765 184.596374 
L 421.611405 184.596374 
L 421.763925 181.999123 
L 422.831565 181.999123 
L 422.984085 178.103248 
L 424.051725 178.103248 
L 424.204245 179.401873 
L 425.271885 179.401873 
L 425.424405 183.297749 
L 426.492045 183.297749 
L 426.644565 185.894999 
L 428.932365 185.894999 
L 429.084885 184.596374 
L 430.152525 184.596374 
L 430.305045 180.700498 
L 431.372685 180.700498 
L 431.525205 176.804622 
L 432.592845 176.804622 
L 432.745365 178.103248 
L 433.813005 178.103248 
L 433.965525 181.999123 
L 435.033165 181.999123 
L 435.185685 184.596374 
L 437.473485 184.596374 
L 437.626005 183.297749 
L 438.693645 183.297749 
L 438.846165 180.700498 
L 439.913805 180.700498 
L 440.066325 176.804622 
L 441.133965 176.804622 
L 441.286485 178.103248 
L 442.354125 178.103248 
L 442.506645 180.700498 
L 443.574285 180.700498 
L 443.726805 184.596374 
L 446.014605 184.596374 
L 446.167125 183.297749 
L 447.234765 183.297749 
L 447.387285 179.401873 
L 448.454925 179.401873 
L 448.607445 176.804622 
L 449.675085 176.804622 
L 449.827605 178.103248 
L 450.895245 178.103248 
L 451.047765 181.999123 
L 452.115405 181.999123 
L 452.267925 184.596374 
L 453.335565 184.596374 
L 453.488085 183.297749 
L 455.775885 183.297749 
L 455.928405 180.700498 
L 456.996045 180.700498 
L 457.148565 175.505997 
L 458.216205 175.505997 
L 458.368725 176.804622 
L 459.436365 176.804622 
L 459.588885 180.700498 
L 460.656525 180.700498 
L 460.809045 181.999123 
L 461.876685 181.999123 
L 462.029205 180.700498 
L 464.317005 180.700498 
L 464.469525 178.103248 
L 465.537165 178.103248 
L 465.689685 174.207372 
L 466.757325 174.207372 
L 466.909845 175.505997 
L 467.977485 175.505997 
L 468.130005 178.103248 
L 472.858125 178.103248 
L 473.010645 175.505997 
L 474.078285 175.505997 
L 474.230805 172.908747 
L 476.518605 172.908747 
L 476.671125 174.207372 
L 477.738765 174.207372 
L 477.891285 175.505997 
L 478.958925 175.505997 
L 479.111445 174.207372 
L 480.179085 174.207372 
L 480.331605 172.908747 
L 482.619405 172.908747 
L 482.771925 171.610121 
L 485.059725 171.610121 
L 485.212245 174.207372 
L 486.279885 174.207372 
L 486.432405 172.908747 
L 487.500045 172.908747 
L 487.652565 174.207372 
L 488.720205 174.207372 
L 488.872725 172.908747 
L 489.940365 172.908747 
L 490.092885 171.610121 
L 492.380685 171.610121 
L 492.380685 171.610121 
" style="fill:none;stroke:#d62728;stroke-linecap:square;stroke-width:1.5;"/>
   </g>
   <g id="line2d_14">
    <path clip-path="url(#pd881a6a353)" d="M 47.073125 110.574735 
L 49.462605 110.574735 
L 49.615125 113.171986 
L 50.682765 113.171986 
L 50.835285 111.873361 
L 53.123085 111.873361 
L 53.275605 114.470611 
L 55.563405 114.470611 
L 55.715925 111.873361 
L 58.003725 111.873361 
L 58.156245 115.769236 
L 59.223885 115.769236 
L 59.376405 122.262362 
L 61.664205 122.262362 
L 61.816725 120.963737 
L 62.884365 120.963737 
L 63.036885 117.067861 
L 64.104525 117.067861 
L 64.257045 111.873361 
L 65.324685 111.873361 
L 65.477205 113.171986 
L 66.544845 113.171986 
L 66.697365 117.067861 
L 67.765005 117.067861 
L 67.917525 122.262362 
L 68.985165 122.262362 
L 69.137685 124.859613 
L 70.205325 124.859613 
L 70.357845 123.560988 
L 71.425485 123.560988 
L 71.578005 119.665112 
L 72.645645 119.665112 
L 72.798165 113.171986 
L 73.865805 113.171986 
L 74.018325 114.470611 
L 75.085965 114.470611 
L 75.238485 120.963737 
L 76.306125 120.963737 
L 76.458645 127.456863 
L 78.746445 127.456863 
L 78.898965 126.158238 
L 79.966605 126.158238 
L 80.119125 118.366487 
L 81.186765 118.366487 
L 81.339285 114.470611 
L 82.406925 114.470611 
L 82.559445 115.769236 
L 83.627085 115.769236 
L 83.779605 119.665112 
L 84.847245 119.665112 
L 84.999765 126.158238 
L 86.067405 126.158238 
L 86.219925 128.755489 
L 87.287565 128.755489 
L 87.440085 130.054114 
L 88.507725 130.054114 
L 88.660245 122.262362 
L 89.727885 122.262362 
L 89.880405 114.470611 
L 90.948045 114.470611 
L 91.100565 117.067861 
L 92.168205 117.067861 
L 92.320725 123.560988 
L 93.388365 123.560988 
L 93.540885 130.054114 
L 97.048845 130.054114 
L 97.201365 123.560988 
L 98.269005 123.560988 
L 98.421525 117.067861 
L 99.489165 117.067861 
L 99.641685 118.366487 
L 100.709325 118.366487 
L 100.861845 123.560988 
L 101.929485 123.560988 
L 102.082005 128.755489 
L 103.149645 128.755489 
L 103.302165 131.352739 
L 105.589965 131.352739 
L 105.742485 124.859613 
L 106.810125 124.859613 
L 106.962645 117.067861 
L 108.030285 117.067861 
L 108.182805 119.665112 
L 109.250445 119.665112 
L 109.402965 126.158238 
L 110.470605 126.158238 
L 110.623125 131.352739 
L 112.910925 131.352739 
L 113.063445 128.755489 
L 114.131085 128.755489 
L 114.283605 122.262362 
L 115.351245 122.262362 
L 115.503765 117.067861 
L 116.571405 117.067861 
L 116.723925 119.665112 
L 117.791565 119.665112 
L 117.944085 124.859613 
L 119.011725 124.859613 
L 119.164245 130.054114 
L 122.672205 130.054114 
L 122.824725 124.859613 
L 123.892365 124.859613 
L 124.044885 118.366487 
L 125.112525 118.366487 
L 125.265045 119.665112 
L 126.332685 119.665112 
L 126.485205 126.158238 
L 127.552845 126.158238 
L 127.705365 131.352739 
L 129.993165 131.352739 
L 130.145685 130.054114 
L 131.213325 130.054114 
L 131.365845 124.859613 
L 132.433485 124.859613 
L 132.586005 118.366487 
L 133.653645 118.366487 
L 133.806165 120.963737 
L 134.873805 120.963737 
L 135.026325 128.755489 
L 136.093965 128.755489 
L 136.246485 131.352739 
L 137.314125 131.352739 
L 137.466645 130.054114 
L 139.754445 130.054114 
L 139.906965 122.262362 
L 140.974605 122.262362 
L 141.127125 115.769236 
L 142.194765 115.769236 
L 142.347285 114.470611 
L 143.414925 114.470611 
L 143.567445 119.665112 
L 144.635085 119.665112 
L 144.787605 120.963737 
L 145.855245 120.963737 
L 146.007765 118.366487 
L 149.515725 118.366487 
L 149.668245 119.665112 
L 150.735885 119.665112 
L 150.888405 120.963737 
L 151.956045 120.963737 
L 152.108565 124.859613 
L 153.176205 124.859613 
L 153.328725 126.158238 
L 154.396365 126.158238 
L 154.548885 130.054114 
L 155.616525 130.054114 
L 155.769045 128.755489 
L 156.836685 128.755489 
L 156.989205 120.963737 
L 158.056845 120.963737 
L 158.209365 111.873361 
L 159.277005 111.873361 
L 159.429525 113.171986 
L 160.497165 113.171986 
L 160.649685 119.665112 
L 161.717325 119.665112 
L 161.869845 124.859613 
L 162.937485 124.859613 
L 163.090005 126.158238 
L 164.157645 126.158238 
L 164.310165 132.651364 
L 165.377805 132.651364 
L 165.530325 124.859613 
L 166.597965 124.859613 
L 166.750485 118.366487 
L 167.818125 118.366487 
L 167.970645 122.262362 
L 169.038285 122.262362 
L 169.190805 128.755489 
L 170.258445 128.755489 
L 170.410965 131.352739 
L 171.478605 131.352739 
L 171.631125 132.651364 
L 173.918925 132.651364 
L 174.071445 126.158238 
L 175.139085 126.158238 
L 175.291605 119.665112 
L 176.359245 119.665112 
L 176.511765 123.560988 
L 177.579405 123.560988 
L 177.731925 128.755489 
L 178.799565 128.755489 
L 178.952085 132.651364 
L 181.239885 132.651364 
L 181.392405 130.054114 
L 182.460045 130.054114 
L 182.612565 123.560988 
L 183.680205 123.560988 
L 183.832725 118.366487 
L 184.900365 118.366487 
L 185.052885 120.963737 
L 186.120525 120.963737 
L 186.273045 127.456863 
L 187.340685 127.456863 
L 187.493205 130.054114 
L 188.560845 130.054114 
L 188.713365 131.352739 
L 189.781005 131.352739 
L 189.933525 128.755489 
L 191.001165 128.755489 
L 191.153685 122.262362 
L 192.221325 122.262362 
L 192.373845 117.067861 
L 193.441485 117.067861 
L 193.594005 119.665112 
L 194.661645 119.665112 
L 194.814165 126.158238 
L 195.881805 126.158238 
L 196.034325 130.054114 
L 198.322125 130.054114 
L 198.474645 128.755489 
L 199.542285 128.755489 
L 199.694805 123.560988 
L 200.762445 123.560988 
L 200.914965 118.366487 
L 201.982605 118.366487 
L 202.135125 119.665112 
L 203.202765 119.665112 
L 203.355285 126.158238 
L 204.422925 126.158238 
L 204.575445 127.456863 
L 205.643085 127.456863 
L 205.795605 131.352739 
L 208.083405 131.352739 
L 208.235925 123.560988 
L 209.303565 123.560988 
L 209.456085 118.366487 
L 210.523725 118.366487 
L 210.676245 120.963737 
L 211.743885 120.963737 
L 211.896405 127.456863 
L 212.964045 127.456863 
L 213.116565 130.054114 
L 214.184205 130.054114 
L 214.336725 131.352739 
L 215.404365 131.352739 
L 215.556885 130.054114 
L 216.624525 130.054114 
L 216.777045 124.859613 
L 217.844685 124.859613 
L 217.997205 119.665112 
L 219.064845 119.665112 
L 219.217365 123.560988 
L 220.285005 123.560988 
L 220.437525 128.755489 
L 221.505165 128.755489 
L 221.657685 131.352739 
L 223.945485 131.352739 
L 224.098005 130.054114 
L 225.165645 130.054114 
L 225.318165 123.560988 
L 226.385805 123.560988 
L 226.538325 119.665112 
L 227.605965 119.665112 
L 227.758485 123.560988 
L 228.826125 123.560988 
L 228.978645 128.755489 
L 230.046285 128.755489 
L 230.198805 131.352739 
L 231.266445 131.352739 
L 231.418965 132.651364 
L 232.486605 132.651364 
L 232.639125 131.352739 
L 233.706765 131.352739 
L 233.859285 123.560988 
L 234.926925 123.560988 
L 235.079445 118.366487 
L 236.147085 118.366487 
L 236.299605 119.665112 
L 237.367245 119.665112 
L 237.519765 127.456863 
L 238.587405 127.456863 
L 238.739925 131.352739 
L 239.807565 131.352739 
L 239.960085 130.054114 
L 241.027725 130.054114 
L 241.180245 128.755489 
L 242.247885 128.755489 
L 242.400405 122.262362 
L 243.468045 122.262362 
L 243.620565 115.769236 
L 244.688205 115.769236 
L 244.840725 118.366487 
L 245.908365 118.366487 
L 246.060885 124.859613 
L 247.128525 124.859613 
L 247.281045 127.456863 
L 249.568845 127.456863 
L 249.721365 124.859613 
L 250.789005 124.859613 
L 250.941525 119.665112 
L 252.009165 119.665112 
L 252.161685 118.366487 
L 253.229325 118.366487 
L 253.381845 117.067861 
L 254.449485 117.067861 
L 254.602005 122.262362 
L 255.669645 122.262362 
L 255.822165 123.560988 
L 258.109965 123.560988 
L 258.262485 122.262362 
L 259.330125 122.262362 
L 259.482645 118.366487 
L 260.550285 118.366487 
L 260.702805 115.769236 
L 261.770445 115.769236 
L 261.922965 118.366487 
L 262.990605 118.366487 
L 263.143125 120.963737 
L 264.210765 120.963737 
L 264.363285 123.560988 
L 265.430925 123.560988 
L 265.583445 122.262362 
L 266.651085 122.262362 
L 266.803605 120.963737 
L 267.871245 120.963737 
L 268.023765 117.067861 
L 269.091405 117.067861 
L 269.243925 115.769236 
L 270.311565 115.769236 
L 270.464085 117.067861 
L 271.531725 117.067861 
L 271.684245 118.366487 
L 272.751885 118.366487 
L 272.904405 119.665112 
L 273.972045 119.665112 
L 274.124565 118.366487 
L 276.412365 118.366487 
L 276.564885 115.769236 
L 277.632525 115.769236 
L 277.785045 111.873361 
L 278.852685 111.873361 
L 279.005205 114.470611 
L 280.072845 114.470611 
L 280.225365 118.366487 
L 281.293005 118.366487 
L 281.445525 120.963737 
L 284.953485 120.963737 
L 285.106005 118.366487 
L 286.173645 118.366487 
L 286.326165 113.171986 
L 287.393805 113.171986 
L 287.546325 114.470611 
L 288.613965 114.470611 
L 288.766485 119.665112 
L 291.054285 119.665112 
L 291.206805 118.366487 
L 293.494605 118.366487 
L 293.647125 115.769236 
L 294.714765 115.769236 
L 294.867285 113.171986 
L 297.155085 113.171986 
L 297.307605 117.067861 
L 298.375245 117.067861 
L 298.527765 118.366487 
L 302.035725 118.366487 
L 302.188245 115.769236 
L 303.255885 115.769236 
L 303.408405 114.470611 
L 305.696205 114.470611 
L 305.848725 118.366487 
L 306.916365 118.366487 
L 307.068885 119.665112 
L 308.136525 119.665112 
L 308.289045 120.963737 
L 309.356685 120.963737 
L 309.509205 119.665112 
L 310.576845 119.665112 
L 310.729365 117.067861 
L 311.797005 117.067861 
L 311.949525 114.470611 
L 313.017165 114.470611 
L 313.169685 115.769236 
L 314.237325 115.769236 
L 314.389845 119.665112 
L 315.457485 119.665112 
L 315.610005 122.262362 
L 317.897805 122.262362 
L 318.050325 120.963737 
L 319.117965 120.963737 
L 319.270485 117.067861 
L 320.338125 117.067861 
L 320.490645 113.171986 
L 322.778445 113.171986 
L 322.930965 122.262362 
L 323.998605 122.262362 
L 324.151125 126.158238 
L 325.218765 126.158238 
L 325.371285 127.456863 
L 327.659085 127.456863 
L 327.811605 122.262362 
L 328.879245 122.262362 
L 329.031765 118.366487 
L 330.099405 118.366487 
L 330.251925 119.665112 
L 331.319565 119.665112 
L 331.472085 126.158238 
L 332.539725 126.158238 
L 332.692245 132.651364 
L 333.759885 132.651364 
L 333.912405 133.94999 
L 336.200205 133.94999 
L 336.352725 126.158238 
L 337.420365 126.158238 
L 337.572885 119.665112 
L 338.640525 119.665112 
L 338.793045 122.262362 
L 339.860685 122.262362 
L 340.013205 130.054114 
L 341.080845 130.054114 
L 341.233365 133.94999 
L 342.301005 133.94999 
L 342.453525 135.248615 
L 343.521165 135.248615 
L 343.673685 133.94999 
L 344.741325 133.94999 
L 344.893845 126.158238 
L 345.961485 126.158238 
L 346.114005 117.067861 
L 347.181645 117.067861 
L 347.334165 123.560988 
L 348.401805 123.560988 
L 348.554325 128.755489 
L 349.621965 128.755489 
L 349.774485 133.94999 
L 350.842125 133.94999 
L 350.994645 135.248615 
L 352.062285 135.248615 
L 352.214805 133.94999 
L 353.282445 133.94999 
L 353.434965 126.158238 
L 354.502605 126.158238 
L 354.655125 117.067861 
L 355.722765 117.067861 
L 355.875285 120.963737 
L 356.942925 120.963737 
L 357.095445 128.755489 
L 358.163085 128.755489 
L 358.315605 132.651364 
L 360.603405 132.651364 
L 360.755925 126.158238 
L 361.823565 126.158238 
L 361.976085 119.665112 
L 363.043725 119.665112 
L 363.196245 117.067861 
L 364.263885 117.067861 
L 364.416405 119.665112 
L 365.484045 119.665112 
L 365.636565 127.456863 
L 366.704205 127.456863 
L 366.856725 132.651364 
L 369.144525 132.651364 
L 369.297045 131.352739 
L 370.364685 131.352739 
L 370.517205 126.158238 
L 371.584845 126.158238 
L 371.737365 118.366487 
L 372.805005 118.366487 
L 372.957525 120.963737 
L 374.025165 120.963737 
L 374.177685 128.755489 
L 375.245325 128.755489 
L 375.397845 132.651364 
L 376.465485 132.651364 
L 376.618005 131.352739 
L 377.685645 131.352739 
L 377.838165 130.054114 
L 378.905805 130.054114 
L 379.058325 122.262362 
L 380.125965 122.262362 
L 380.278485 117.067861 
L 381.346125 117.067861 
L 381.498645 119.665112 
L 382.566285 119.665112 
L 382.718805 126.158238 
L 383.786445 126.158238 
L 383.938965 130.054114 
L 385.006605 130.054114 
L 385.159125 131.352739 
L 386.226765 131.352739 
L 386.379285 130.054114 
L 387.446925 130.054114 
L 387.599445 124.859613 
L 388.667085 124.859613 
L 388.819605 115.769236 
L 389.887245 115.769236 
L 390.039765 117.067861 
L 391.107405 117.067861 
L 391.259925 123.560988 
L 392.327565 123.560988 
L 392.480085 127.456863 
L 393.547725 127.456863 
L 393.700245 128.755489 
L 395.988045 128.755489 
L 396.140565 123.560988 
L 397.208205 123.560988 
L 397.360725 115.769236 
L 398.428365 115.769236 
L 398.580885 118.366487 
L 399.648525 118.366487 
L 399.801045 126.158238 
L 400.868685 126.158238 
L 401.021205 130.054114 
L 402.088845 130.054114 
L 402.241365 131.352739 
L 403.309005 131.352739 
L 403.461525 128.755489 
L 404.529165 128.755489 
L 404.681685 122.262362 
L 405.749325 122.262362 
L 405.901845 115.769236 
L 406.969485 115.769236 
L 407.122005 119.665112 
L 408.189645 119.665112 
L 408.342165 127.456863 
L 409.409805 127.456863 
L 409.562325 130.054114 
L 411.850125 130.054114 
L 412.002645 127.456863 
L 413.070285 127.456863 
L 413.222805 120.963737 
L 414.290445 120.963737 
L 414.442965 115.769236 
L 415.510605 115.769236 
L 415.663125 117.067861 
L 416.730765 117.067861 
L 416.883285 122.262362 
L 417.950925 122.262362 
L 418.103445 124.859613 
L 420.391245 124.859613 
L 420.543765 126.158238 
L 421.611405 126.158238 
L 421.763925 122.262362 
L 422.831565 122.262362 
L 422.984085 115.769236 
L 424.051725 115.769236 
L 424.204245 118.366487 
L 425.271885 118.366487 
L 425.424405 124.859613 
L 426.492045 124.859613 
L 426.644565 128.755489 
L 427.712205 128.755489 
L 427.864725 130.054114 
L 428.932365 130.054114 
L 429.084885 126.158238 
L 430.152525 126.158238 
L 430.305045 119.665112 
L 431.372685 119.665112 
L 431.525205 114.470611 
L 432.592845 114.470611 
L 432.745365 115.769236 
L 433.813005 115.769236 
L 433.965525 122.262362 
L 435.033165 122.262362 
L 435.185685 126.158238 
L 437.473485 126.158238 
L 437.626005 124.859613 
L 438.693645 124.859613 
L 438.846165 119.665112 
L 439.913805 119.665112 
L 440.066325 113.171986 
L 441.133965 113.171986 
L 441.286485 115.769236 
L 442.354125 115.769236 
L 442.506645 119.665112 
L 443.574285 119.665112 
L 443.726805 126.158238 
L 444.794445 126.158238 
L 444.946965 127.456863 
L 446.014605 127.456863 
L 446.167125 124.859613 
L 447.234765 124.859613 
L 447.387285 118.366487 
L 448.454925 118.366487 
L 448.607445 114.470611 
L 449.675085 114.470611 
L 449.827605 115.769236 
L 450.895245 115.769236 
L 451.047765 122.262362 
L 452.115405 122.262362 
L 452.267925 126.158238 
L 453.335565 126.158238 
L 453.488085 124.859613 
L 454.555725 124.859613 
L 454.708245 123.560988 
L 455.775885 123.560988 
L 455.928405 118.366487 
L 456.996045 118.366487 
L 457.148565 111.873361 
L 458.216205 111.873361 
L 458.368725 114.470611 
L 459.436365 114.470611 
L 459.588885 118.366487 
L 460.656525 118.366487 
L 460.809045 120.963737 
L 461.876685 120.963737 
L 462.029205 118.366487 
L 464.317005 118.366487 
L 464.469525 115.769236 
L 465.537165 115.769236 
L 465.689685 110.574735 
L 466.757325 110.574735 
L 466.909845 111.873361 
L 467.977485 111.873361 
L 468.130005 114.470611 
L 469.197645 114.470611 
L 469.350165 115.769236 
L 471.637965 115.769236 
L 471.790485 114.470611 
L 472.858125 114.470611 
L 473.010645 111.873361 
L 474.078285 111.873361 
L 474.230805 109.27611 
L 476.518605 109.27611 
L 476.671125 110.574735 
L 477.738765 110.574735 
L 477.891285 111.873361 
L 478.958925 111.873361 
L 479.111445 110.574735 
L 480.179085 110.574735 
L 480.331605 109.27611 
L 481.399245 109.27611 
L 481.551765 107.977485 
L 482.619405 107.977485 
L 482.771925 106.67886 
L 485.059725 106.67886 
L 485.212245 110.574735 
L 486.279885 110.574735 
L 486.432405 107.977485 
L 487.500045 107.977485 
L 487.652565 109.27611 
L 488.720205 109.27611 
L 488.872725 107.977485 
L 491.160525 107.977485 
L 491.313045 106.67886 
L 492.380685 106.67886 
L 492.380685 106.67886 
" style="fill:none;stroke:#9467bd;stroke-linecap:square;stroke-width:1.5;"/>
   </g>
   <g id="patch_3">
    <path d="M 47.073125 224.64 
L 47.073125 7.2 
" style="fill:none;stroke:#000000;stroke-linecap:square;stroke-linejoin:miter;stroke-width:0.8;"/>
   </g>
   <g id="patch_4">
    <path d="M 504.633125 224.64 
L 504.633125 7.2 
" style="fill:none;stroke:#000000;stroke-linecap:square;stroke-linejoin:miter;stroke-width:0.8;"/>
   </g>
   <g id="patch_5">
    <path d="M 47.073125 224.64 
L 504.633125 224.64 
" style="fill:none;stroke:#000000;stroke-linecap:square;stroke-linejoin:miter;stroke-width:0.8;"/>
   </g>
   <g id="patch_6">
    <path d="M 47.073125 7.2 
L 504.633125 7.2 
" style="fill:none;stroke:#000000;stroke-linecap:square;stroke-linejoin:miter;stroke-width:0.8;"/>
   </g>
   <g id="legend_1">
    <g id="patch_7">
     <path d="M 55.701875 34.7475 
L 496.233125 34.7475 
Q 498.633125 34.7475 498.633125 32.3475 
L 498.633125 15.6 
Q 498.633125 13.2 496.233125 13.2 
L 55.701875 13.2 
Q 53.301875 13.2 53.301875 15.6 
L 53.301875 32.3475 
Q 53.301875 34.7475 55.701875 34.7475 
z
" style="fill:#ffffff;opacity:0.8;stroke:#cccccc;stroke-linejoin:miter;"/>
    </g>
    <g id="line2d_15">
     <path d="M 58.101875 22.918125 
L 82.101875 22.918125 
" style="fill:none;stroke:#1f77b4;stroke-linecap:square;stroke-width:1.5;"/>
    </g>
    <g id="line2d_16"/>
    <g id="text_12">
     <!-- sin_rl -->
     <defs>
      <path d="M 9.421875 54.6875 
L 18.40625 54.6875 
L 18.40625 0 
L 9.421875 0 
z
M 9.421875 75.984375 
L 18.40625 75.984375 
L 18.40625 64.59375 
L 9.421875 64.59375 
z
" id="DejaVuSans-105"/>
      <path d="M 54.890625 33.015625 
L 54.890625 0 
L 45.90625 0 
L 45.90625 32.71875 
Q 45.90625 40.484375 42.875 44.328125 
Q 39.84375 48.1875 33.796875 48.1875 
Q 26.515625 48.1875 22.3125 43.546875 
Q 18.109375 38.921875 18.109375 30.90625 
L 18.109375 0 
L 9.078125 0 
L 9.078125 54.6875 
L 18.109375 54.6875 
L 18.109375 46.1875 
Q 21.34375 51.125 25.703125 53.5625 
Q 30.078125 56 35.796875 56 
Q 45.21875 56 50.046875 50.171875 
Q 54.890625 44.34375 54.890625 33.015625 
z
" id="DejaVuSans-110"/>
      <path d="M 50.984375 -16.609375 
L 50.984375 -23.578125 
L -0.984375 -23.578125 
L -0.984375 -16.609375 
z
" id="DejaVuSans-95"/>
      <path d="M 9.421875 75.984375 
L 18.40625 75.984375 
L 18.40625 0 
L 9.421875 0 
z
" id="DejaVuSans-108"/>
     </defs>
     <g transform="translate(91.701875 27.118125)scale(0.12 -0.12)">
      <use xlink:href="#DejaVuSans-115"/>
      <use x="52.099609" xlink:href="#DejaVuSans-105"/>
      <use x="79.882812" xlink:href="#DejaVuSans-110"/>
      <use x="143.261719" xlink:href="#DejaVuSans-95"/>
      <use x="193.261719" xlink:href="#DejaVuSans-114"/>
      <use x="234.375" xlink:href="#DejaVuSans-108"/>
     </g>
    </g>
    <g id="line2d_17">
     <path d="M 147.15875 22.918125 
L 171.15875 22.918125 
" style="fill:none;stroke:#ff7f0e;stroke-linecap:square;stroke-width:1.5;"/>
    </g>
    <g id="line2d_18"/>
    <g id="text_13">
     <!-- sfo_rl -->
     <defs>
      <path d="M 37.109375 75.984375 
L 37.109375 68.5 
L 28.515625 68.5 
Q 23.6875 68.5 21.796875 66.546875 
Q 19.921875 64.59375 19.921875 59.515625 
L 19.921875 54.6875 
L 34.71875 54.6875 
L 34.71875 47.703125 
L 19.921875 47.703125 
L 19.921875 0 
L 10.890625 0 
L 10.890625 47.703125 
L 2.296875 47.703125 
L 2.296875 54.6875 
L 10.890625 54.6875 
L 10.890625 58.5 
Q 10.890625 67.625 15.140625 71.796875 
Q 19.390625 75.984375 28.609375 75.984375 
z
" id="DejaVuSans-102"/>
     </defs>
     <g transform="translate(180.75875 27.118125)scale(0.12 -0.12)">
      <use xlink:href="#DejaVuSans-115"/>
      <use x="52.099609" xlink:href="#DejaVuSans-102"/>
      <use x="87.304688" xlink:href="#DejaVuSans-111"/>
      <use x="148.486328" xlink:href="#DejaVuSans-95"/>
      <use x="198.486328" xlink:href="#DejaVuSans-114"/>
      <use x="239.599609" xlink:href="#DejaVuSans-108"/>
     </g>
    </g>
    <g id="line2d_19">
     <path d="M 236.84375 22.918125 
L 260.84375 22.918125 
" style="fill:none;stroke:#2ca02c;stroke-linecap:square;stroke-width:1.5;"/>
    </g>
    <g id="line2d_20"/>
    <g id="text_14">
     <!-- ams_rl -->
     <defs>
      <path d="M 52 44.1875 
Q 55.375 50.25 60.0625 53.125 
Q 64.75 56 71.09375 56 
Q 79.640625 56 84.28125 50.015625 
Q 88.921875 44.046875 88.921875 33.015625 
L 88.921875 0 
L 79.890625 0 
L 79.890625 32.71875 
Q 79.890625 40.578125 77.09375 44.375 
Q 74.3125 48.1875 68.609375 48.1875 
Q 61.625 48.1875 57.5625 43.546875 
Q 53.515625 38.921875 53.515625 30.90625 
L 53.515625 0 
L 44.484375 0 
L 44.484375 32.71875 
Q 44.484375 40.625 41.703125 44.40625 
Q 38.921875 48.1875 33.109375 48.1875 
Q 26.21875 48.1875 22.15625 43.53125 
Q 18.109375 38.875 18.109375 30.90625 
L 18.109375 0 
L 9.078125 0 
L 9.078125 54.6875 
L 18.109375 54.6875 
L 18.109375 46.1875 
Q 21.1875 51.21875 25.484375 53.609375 
Q 29.78125 56 35.6875 56 
Q 41.65625 56 45.828125 52.96875 
Q 50 49.953125 52 44.1875 
z
" id="DejaVuSans-109"/>
     </defs>
     <g transform="translate(270.44375 27.118125)scale(0.12 -0.12)">
      <use xlink:href="#DejaVuSans-97"/>
      <use x="61.279297" xlink:href="#DejaVuSans-109"/>
      <use x="158.691406" xlink:href="#DejaVuSans-115"/>
      <use x="210.791016" xlink:href="#DejaVuSans-95"/>
      <use x="260.791016" xlink:href="#DejaVuSans-114"/>
      <use x="301.904297" xlink:href="#DejaVuSans-108"/>
     </g>
    </g>
    <g id="line2d_21">
     <path d="M 334.004375 22.918125 
L 358.004375 22.918125 
" style="fill:none;stroke:#d62728;stroke-linecap:square;stroke-width:1.5;"/>
    </g>
    <g id="line2d_22"/>
    <g id="text_15">
     <!-- car_rl -->
     <defs>
      <path d="M 48.78125 52.59375 
L 48.78125 44.1875 
Q 44.96875 46.296875 41.140625 47.34375 
Q 37.3125 48.390625 33.40625 48.390625 
Q 24.65625 48.390625 19.8125 42.84375 
Q 14.984375 37.3125 14.984375 27.296875 
Q 14.984375 17.28125 19.8125 11.734375 
Q 24.65625 6.203125 33.40625 6.203125 
Q 37.3125 6.203125 41.140625 7.25 
Q 44.96875 8.296875 48.78125 10.40625 
L 48.78125 2.09375 
Q 45.015625 0.34375 40.984375 -0.53125 
Q 36.96875 -1.421875 32.421875 -1.421875 
Q 20.0625 -1.421875 12.78125 6.34375 
Q 5.515625 14.109375 5.515625 27.296875 
Q 5.515625 40.671875 12.859375 48.328125 
Q 20.21875 56 33.015625 56 
Q 37.15625 56 41.109375 55.140625 
Q 45.0625 54.296875 48.78125 52.59375 
z
" id="DejaVuSans-99"/>
     </defs>
     <g transform="translate(367.604375 27.118125)scale(0.12 -0.12)">
      <use xlink:href="#DejaVuSans-99"/>
      <use x="54.980469" xlink:href="#DejaVuSans-97"/>
      <use x="116.259766" xlink:href="#DejaVuSans-114"/>
      <use x="157.373047" xlink:href="#DejaVuSans-95"/>
      <use x="207.373047" xlink:href="#DejaVuSans-114"/>
      <use x="248.486328" xlink:href="#DejaVuSans-108"/>
     </g>
    </g>
    <g id="line2d_23">
     <path d="M 424.75625 22.918125 
L 448.75625 22.918125 
" style="fill:none;stroke:#9467bd;stroke-linecap:square;stroke-width:1.5;"/>
    </g>
    <g id="line2d_24"/>
    <g id="text_16">
     <!-- ash_rl -->
     <defs>
      <path d="M 54.890625 33.015625 
L 54.890625 0 
L 45.90625 0 
L 45.90625 32.71875 
Q 45.90625 40.484375 42.875 44.328125 
Q 39.84375 48.1875 33.796875 48.1875 
Q 26.515625 48.1875 22.3125 43.546875 
Q 18.109375 38.921875 18.109375 30.90625 
L 18.109375 0 
L 9.078125 0 
L 9.078125 75.984375 
L 18.109375 75.984375 
L 18.109375 46.1875 
Q 21.34375 51.125 25.703125 53.5625 
Q 30.078125 56 35.796875 56 
Q 45.21875 56 50.046875 50.171875 
Q 54.890625 44.34375 54.890625 33.015625 
z
" id="DejaVuSans-104"/>
     </defs>
     <g transform="translate(458.35625 27.118125)scale(0.12 -0.12)">
      <use xlink:href="#DejaVuSans-97"/>
      <use x="61.279297" xlink:href="#DejaVuSans-115"/>
      <use x="113.378906" xlink:href="#DejaVuSans-104"/>
      <use x="176.757812" xlink:href="#DejaVuSans-95"/>
      <use x="226.757812" xlink:href="#DejaVuSans-114"/>
      <use x="267.871094" xlink:href="#DejaVuSans-108"/>
     </g>
    </g>
   </g>
  </g>
 </g>
 <defs>
  <clipPath id="pd881a6a353">
   <rect height="217.44" width="457.56" x="47.073125" y="7.2"/>
  </clipPath>
 </defs>
</svg>
